<?xml version="1.0" standalone="no"?>
<!DOCTYPE svg PUBLIC "-//W3C//DTD SVG 1.1//EN" "http://www.w3.org/Graphics/SVG/1.1/DTD/svg11.dtd" >
<svg xmlns="http://www.w3.org/2000/svg" xmlns:xlink="http://www.w3.org/1999/xlink" version="1.1">
<metadata>
Created by FontForge 20170924 at Thu Jul  1 15:06:08 2010
 By www-data

</metadata>
<defs>
<font id="ClanOT-Medium" horiz-adv-x="402" >
  <font-face 
    font-family="ClanOT-Medium"
    font-weight="500"
    font-stretch="normal"
    units-per-em="1000"
    panose-1="2 11 6 4 2 1 1 2 1 2"
    ascent="787"
    descent="-213"
    x-height="602"
    cap-height="750"
    bbox="-128 -236 1206 953"
    underline-thickness="80"
    underline-position="-100"
    stemh="115"
    stemv="127"
    unicode-range="U+000D-FB02"
  />
<missing-glyph horiz-adv-x="625" 
d="M72 0v750h481v-750h-481zM152 80h321v590h-321v-590z" />
    <glyph glyph-name="f_i" unicode="fi" horiz-adv-x="705" 
d="M236 505v-505h-127v505h-82v97h82v26c0 95 61 170 202 170c32 0 64 -5 84 -11l-3 -86c-15 4 -35 6 -54 6c-74 0 -102 -31 -102 -82v-23h374v-602h-129v505h-245zM623 742c0 -40 -24 -59 -77 -59c-51 0 -76 15 -76 59c0 40 25 60 76 60c53 0 77 -20 77 -60z" />
    <glyph glyph-name="f_j" unicode="fj" horiz-adv-x="705" 
d="M236 0h-127v505h-82v97h82v26c0 95 61 170 202 170c32 0 64 -5 84 -11l-3 -86c-15 4 -35 6 -54 6c-74 0 -102 -31 -102 -82v-23h374v-603c0 -122 -72 -161 -160 -161c-26 0 -55 5 -77 13l7 92c13 -4 26 -6 39 -6c37 0 64 19 64 66v502h-247v-505zM623 742
c0 -40 -24 -59 -77 -59c-51 0 -76 15 -76 59c0 40 25 60 76 60c53 0 77 -20 77 -60z" />
    <glyph glyph-name="f_l" unicode="fl" horiz-adv-x="673" 
d="M586 0h-128v704c-32 4 -62 8 -92 8c-99 0 -130 -33 -130 -90v-20h110v-97h-110v-505h-127v505h-82v97h81v24c0 97 63 174 259 174c83 0 139 -13 219 -16v-784z" />
    <glyph glyph-name=".notdef" horiz-adv-x="625" 
d="M72 0v750h481v-750h-481zM152 80h321v590h-321v-590z" />
    <glyph glyph-name=".null" horiz-adv-x="0" 
 />
    <glyph glyph-name=".null" horiz-adv-x="0" 
 />
    <glyph glyph-name="CR" unicode="&#xd;" horiz-adv-x="282" 
 />
    <glyph glyph-name="space" unicode=" " horiz-adv-x="282" 
 />
    <glyph glyph-name="exclam" unicode="!" horiz-adv-x="303" 
d="M200 211h-98l-20 539h138zM229 57c0 -43 -23 -68 -75 -68c-51 0 -75 19 -75 68c0 44 24 69 75 69c52 0 75 -25 75 -69z" />
    <glyph glyph-name="quotedbl" unicode="&#x22;" horiz-adv-x="410" 
d="M245 768h124l-23 -259h-83zM53 768h124l-23 -259h-83z" />
    <glyph glyph-name="numbersign" unicode="#" horiz-adv-x="645" 
d="M59 299h105l22 152h-126v100h138l26 199h101l-26 -199h99l25 199h100l-27 -199h92v-100h-103l-21 -152h123v-101h-135l-26 -198h-99l25 198h-99l-26 -198h-101l26 198h-93v101zM287 451l-22 -152h100l21 152h-99z" />
    <glyph glyph-name="dollar" unicode="$" horiz-adv-x="645" 
d="M308 -82l-71 7l8 65c-65 7 -127 23 -169 47l16 123c50 -28 108 -48 167 -57l27 224c-103 38 -211 87 -211 221c0 136 91 211 265 214l8 65l78 -7l-8 -62c49 -6 94 -17 122 -30l-8 -118c-40 13 -85 23 -130 28l-26 -197c99 -35 202 -86 202 -225
c0 -156 -81 -227 -261 -230zM473 198c0 52 -50 79 -115 103l-27 -202c98 2 142 36 142 99zM192 555c0 -47 49 -69 111 -90l22 177c-94 -2 -133 -38 -133 -87z" />
    <glyph glyph-name="percent" unicode="%" horiz-adv-x="726" 
d="M338 586c0 -119 -51 -175 -150 -175c-103 0 -149 57 -149 175c0 122 44 174 150 174c98 0 149 -47 149 -174zM252 587c0 73 -20 93 -63 93c-44 0 -64 -19 -64 -93s20 -93 64 -93c43 0 63 19 63 93zM519 723l74 -59l-399 -642l-74 58zM687 165c0 -119 -51 -175 -150 -175
c-103 0 -150 57 -150 175c0 122 44 177 150 177c99 0 150 -50 150 -177zM601 165c0 73 -20 92 -64 92c-43 0 -63 -18 -63 -92c0 -72 20 -91 63 -91c44 0 64 18 64 91z" />
    <glyph glyph-name="ampersand" unicode="&#x26;" horiz-adv-x="707" 
d="M698 108l-45 -117c-51 25 -106 59 -159 98c-61 -60 -141 -102 -240 -102c-157 0 -216 100 -216 205c0 103 64 171 136 226c-40 62 -64 120 -64 167c0 97 54 177 202 177c115 0 192 -58 192 -145c0 -93 -89 -155 -175 -217c42 -49 94 -101 152 -149c27 46 46 96 56 142
h109c-6 -55 -31 -134 -77 -209c42 -29 86 -55 129 -76zM275 108c49 0 93 20 131 52c-62 54 -119 112 -167 170c-41 -37 -70 -77 -70 -127c0 -62 42 -95 106 -95zM229 585c0 -27 14 -63 39 -103c60 41 108 77 109 123c0 38 -28 57 -68 57c-47 0 -80 -27 -80 -77z" />
    <glyph glyph-name="quotesingle" unicode="'" horiz-adv-x="218" 
d="M47 768h124l-23 -259h-83z" />
    <glyph glyph-name="parenleft" unicode="(" horiz-adv-x="346" 
d="M244 792l99 -8c-89 -129 -136 -286 -136 -455c0 -172 49 -328 135 -455l-98 -8c-101 113 -159 280 -159 463c0 187 56 342 159 463z" />
    <glyph glyph-name="parenright" unicode=")" horiz-adv-x="345" 
d="M3 784l98 8c104 -121 159 -276 159 -463c0 -183 -57 -350 -159 -463l-98 8c87 127 135 283 135 455c0 169 -47 326 -135 455z" />
    <glyph glyph-name="asterisk" unicode="*" horiz-adv-x="369" 
d="M155 787h61l9 -107l102 26l21 -63l-101 -40l62 -92l-47 -38l-75 85l-78 -85l-49 36l62 94l-102 40l23 63l103 -26z" />
    <glyph glyph-name="plus" unicode="+" horiz-adv-x="600" 
d="M532 278h-178v-175h-112v175h-175v119h175v176h112v-176h178v-119z" />
    <glyph glyph-name="comma" unicode="," horiz-adv-x="258" 
d="M128 137c53 0 76 -31 76 -75c0 -54 -44 -151 -82 -205l-46 11l26 122c-25 10 -48 37 -48 69c0 45 20 78 74 78z" />
    <glyph glyph-name="hyphen" unicode="-" horiz-adv-x="397" 
d="M60 389h277v-95h-277v95z" />
    <glyph glyph-name="period" unicode="." horiz-adv-x="261" 
d="M208 64c0 -47 -24 -75 -77 -75c-54 0 -77 21 -77 75c0 49 23 76 77 76c53 0 77 -27 77 -76z" />
    <glyph glyph-name="slash" unicode="/" horiz-adv-x="452" 
d="M342 788h110l-343 -911h-107z" />
    <glyph glyph-name="zero" unicode="0" horiz-adv-x="645" 
d="M596 373c0 -272 -83 -384 -274 -384c-194 0 -273 112 -273 384c0 283 80 386 274 386c191 0 273 -103 273 -386zM464 375c0 219 -44 263 -141 263c-98 0 -143 -46 -143 -264c0 -223 45 -266 143 -266c97 0 141 45 141 267z" />
    <glyph glyph-name="one" unicode="1" horiz-adv-x="645" 
d="M171 0v100h121v401l2 80l-2 2l-69 -43l-78 -47l-14 114l218 144h81v-651h118v-100h-377z" />
    <glyph glyph-name="two" unicode="2" horiz-adv-x="645" 
d="M573 545c0 -144 -130 -266 -315 -420v-3h316l-3 -122h-491v91c186 180 354 318 354 440c0 60 -40 104 -137 104c-69 0 -133 -28 -187 -69l-33 112c60 47 144 80 244 80c166 0 252 -84 252 -213z" />
    <glyph glyph-name="three" unicode="3" horiz-adv-x="645" 
d="M583 225c0 -142 -88 -234 -284 -234c-96 0 -171 25 -226 58l27 109c58 -33 120 -52 196 -52c106 0 157 50 157 124s-51 113 -218 113v98c157 0 205 40 205 108c0 59 -49 91 -139 91c-78 0 -140 -26 -194 -68l-33 107c56 45 141 79 235 79c161 0 255 -73 255 -199
c0 -80 -42 -133 -111 -163v-2c83 -26 130 -79 130 -169z" />
    <glyph glyph-name="four" unicode="4" horiz-adv-x="645" 
d="M603 151h-81v-151h-124v151h-338l-12 87l312 512h162v-483h85zM402 267l5 280l4 81l-2 1l-41 -71l-132 -222l-42 -66l1 -3h207z" />
    <glyph glyph-name="five" unicode="5" horiz-adv-x="645" 
d="M578 257c0 -168 -84 -266 -271 -266c-88 0 -163 20 -226 58l25 110c60 -34 113 -53 188 -53c108 0 151 47 151 140c0 82 -46 116 -146 116c-58 0 -119 -12 -162 -31l-49 53l31 366h419l5 -122h-319l-13 -169c39 10 82 16 126 16c156 0 241 -72 241 -218z" />
    <glyph glyph-name="six" unicode="6" horiz-adv-x="645" 
d="M589 261c0 -182 -93 -270 -260 -270c-178 0 -275 97 -275 364c0 268 111 404 322 404c64 0 116 -8 170 -29l-10 -117c-48 17 -90 24 -144 24c-134 0 -196 -64 -209 -204l2 -2c47 33 105 53 168 53c158 0 236 -73 236 -223zM458 263c0 79 -39 116 -130 116
c-46 0 -109 -22 -139 -58c2 -162 43 -214 139 -214c85 0 130 49 130 156z" />
    <glyph glyph-name="seven" unicode="7" horiz-adv-x="645" 
d="M592 749v-116l-297 -633h-152l317 619h-403l6 130h529z" />
    <glyph glyph-name="eight" unicode="8" horiz-adv-x="645" 
d="M166 393v2c-51 33 -86 83 -86 168c0 121 74 196 244 196c168 0 242 -73 242 -197c0 -71 -35 -128 -93 -165v-2c67 -30 120 -80 120 -181c0 -148 -92 -223 -269 -223c-187 0 -271 77 -271 224c0 73 42 138 113 178zM463 205c0 78 -77 102 -161 130l-23 8
c-55 -29 -98 -69 -98 -129c0 -79 42 -115 146 -115c82 0 136 30 136 106zM204 557c0 -76 74 -98 158 -123c57 31 85 65 85 117c0 66 -38 99 -124 99c-81 0 -119 -32 -119 -93z" />
    <glyph glyph-name="nine" unicode="9" horiz-adv-x="645" 
d="M587 408c0 -296 -103 -417 -309 -417c-76 0 -127 10 -183 35l19 112c49 -20 94 -30 151 -30c128 0 184 67 193 226l-2 2c-44 -33 -100 -48 -165 -48c-163 0 -239 90 -239 227c0 150 82 244 259 244c175 0 276 -115 276 -351zM455 453c-2 141 -58 190 -146 190
c-85 0 -129 -40 -129 -123c0 -80 40 -124 136 -124c58 0 108 18 139 57z" />
    <glyph glyph-name="colon" unicode=":" horiz-adv-x="261" 
d="M208 493c0 -47 -24 -75 -77 -75c-54 0 -77 21 -77 75c0 49 23 76 77 76c53 0 77 -27 77 -76zM208 64c0 -47 -24 -75 -77 -75c-54 0 -77 21 -77 75c0 49 23 76 77 76c53 0 77 -27 77 -76z" />
    <glyph glyph-name="semicolon" unicode=";" horiz-adv-x="264" 
d="M211 493c0 -47 -24 -75 -77 -75c-54 0 -77 21 -77 75c0 49 23 76 77 76c53 0 77 -27 77 -76zM131 137c53 0 76 -31 76 -75c0 -54 -44 -151 -82 -205l-46 11l26 122c-25 10 -48 37 -48 69c0 45 20 78 74 78z" />
    <glyph glyph-name="less" unicode="&#x3c;" horiz-adv-x="600" 
d="M512 462l-197 -94l-73 -33v-3l73 -33l197 -94v-125l-424 221v65l423 226z" />
    <glyph glyph-name="equal" unicode="=" horiz-adv-x="600" 
d="M524 377h-449v102h449v-102zM524 182h-449v102h449v-102z" />
    <glyph glyph-name="greater" unicode="&#x3e;" horiz-adv-x="600" 
d="M88 80v125l196 93l74 33v3l-74 33l-196 95v130l424 -226v-65z" />
    <glyph glyph-name="question" unicode="?" horiz-adv-x="511" 
d="M475 576c0 -113 -67 -187 -176 -244l-5 -121h-100l-8 169c96 55 158 102 158 175c0 57 -41 85 -110 85c-66 0 -120 -23 -162 -60l-46 103c50 45 133 78 225 78c149 0 224 -71 224 -185zM319 57c0 -43 -23 -68 -75 -68s-75 19 -75 68c0 44 23 69 75 69s75 -25 75 -69z" />
    <glyph glyph-name="at" unicode="@" horiz-adv-x="878" 
d="M449 582c39 0 71 -14 92 -41l15 34l70 -4l-44 -266c-2 -12 -3 -24 -3 -36c0 -41 15 -74 62 -74c67 0 119 64 119 212c0 179 -100 313 -295 313c-231 0 -345 -170 -345 -377c0 -216 108 -379 346 -379c155 0 249 58 296 99l30 -67c-69 -57 -177 -106 -326 -106
c-267 0 -422 172 -422 453c0 242 147 452 422 452c227 0 368 -162 368 -387c0 -213 -97 -299 -204 -299c-61 0 -102 26 -122 72c-32 -42 -79 -72 -141 -72c-79 0 -139 58 -139 181c0 154 96 292 221 292zM485 311l25 150c-11 20 -29 30 -55 30c-69 0 -122 -99 -122 -200
c0 -56 22 -87 63 -87c43 0 80 43 89 107z" />
    <glyph glyph-name="A" unicode="A" horiz-adv-x="723" 
d="M557 0l-49 161h-300l-50 -161h-147l267 750h165l269 -750h-155zM358 649l-23 -78l-91 -293h228l-90 293l-21 78h-3z" />
    <glyph glyph-name="B" unicode="B" horiz-adv-x="689" 
d="M637 216c0 -134 -74 -216 -255 -216h-299v750h291c157 0 235 -69 235 -190c0 -87 -40 -138 -101 -162v-2c83 -23 129 -82 129 -180zM499 227c0 73 -35 105 -119 105h-164v-216h167c77 0 116 27 116 111zM477 535c0 70 -33 96 -108 96h-153v-194h159c70 0 102 31 102 98z
" />
    <glyph glyph-name="C" unicode="C" horiz-adv-x="601" 
d="M564 730l-15 -121c-39 15 -94 27 -152 27c-146 0 -201 -62 -201 -256c0 -206 57 -269 204 -269c58 0 108 13 151 32l16 -115c-49 -24 -120 -42 -185 -42c-225 0 -331 125 -331 395c0 254 105 382 339 382c61 0 132 -15 174 -33z" />
    <glyph glyph-name="D" unicode="D" horiz-adv-x="735" 
d="M683 378c0 -272 -109 -378 -328 -378h-272v750h270c233 0 330 -111 330 -372zM539 379c0 194 -52 244 -187 244h-131v-497h131c130 0 187 45 187 253z" />
    <glyph glyph-name="E" unicode="E" horiz-adv-x="621" 
d="M221 123h360l-3 -123h-495v750h480l2 -125h-344v-181h292v-113h-292v-208z" />
    <glyph glyph-name="F" unicode="F" horiz-adv-x="593" 
d="M565 622h-344v-192h287l-1 -121h-286v-309h-138v750h479z" />
    <glyph glyph-name="G" unicode="G" horiz-adv-x="677" 
d="M620 401v-373c-55 -25 -140 -42 -221 -42c-248 0 -348 126 -348 387c0 267 107 390 352 390c71 0 148 -14 203 -35l-14 -123c-52 21 -117 33 -182 33c-157 0 -214 -60 -214 -263c0 -202 53 -262 199 -262c39 0 73 5 103 14v274h122z" />
    <glyph glyph-name="H" unicode="H" horiz-adv-x="747" 
d="M664 0h-138v322h-305v-322h-138v750h138v-301h305v301h138v-750z" />
    <glyph glyph-name="I" unicode="I" horiz-adv-x="330" 
d="M95 0v750h140v-750h-140z" />
    <glyph glyph-name="J" unicode="J" horiz-adv-x="550" 
d="M467 750v-485c0 -198 -106 -279 -283 -279c-63 0 -112 14 -150 36l9 120c29 -20 70 -32 121 -32c105 0 162 48 162 158v482h141z" />
    <glyph glyph-name="K" unicode="K" horiz-adv-x="712" 
d="M693 0h-168l-211 329h-93v-329h-138v750h138v-306h96l202 306h161l-240 -356z" />
    <glyph glyph-name="L" unicode="L" horiz-adv-x="571" 
d="M222 127h327l-3 -127h-463v750h139v-623z" />
    <glyph glyph-name="M" unicode="M" horiz-adv-x="919" 
d="M83 750h154l192 -478l29 -75h3l28 75l194 478h153v-750h-126v433l2 81l-3 1l-29 -76l-176 -439h-94l-175 439l-29 76l-2 -1l1 -81v-433h-122v750z" />
    <glyph glyph-name="N" unicode="N" horiz-adv-x="752" 
d="M669 0h-97l-320 457l-45 68l-2 -1l1 -81v-443h-123v750h120l299 -438l45 -67l2 1l-2 80v424h122v-750z" />
    <glyph glyph-name="O" unicode="O" horiz-adv-x="745" 
d="M693 375c0 -274 -91 -389 -320 -389c-227 0 -322 119 -322 389s92 387 322 387c229 0 320 -117 320 -387zM549 375c0 208 -46 260 -177 260c-128 0 -176 -53 -176 -260s48 -262 177 -262s176 56 176 262z" />
    <glyph glyph-name="P" unicode="P" horiz-adv-x="658" 
d="M621 502c0 -156 -80 -241 -278 -241h-122v-261h-138v750h260c197 0 278 -78 278 -248zM479 503c0 98 -39 129 -136 129h-122v-258h122c93 0 136 26 136 129z" />
    <glyph glyph-name="Q" unicode="Q" horiz-adv-x="745" 
d="M693 375c0 -223 -61 -341 -208 -374l150 -113l-162 -41l-121 139c-212 7 -301 127 -301 389c0 270 92 387 322 387c229 0 320 -117 320 -387zM549 375c0 208 -46 260 -177 260c-128 0 -176 -53 -176 -260s48 -262 177 -262s176 56 176 262z" />
    <glyph glyph-name="R" unicode="R" horiz-adv-x="672" 
d="M609 525c0 -110 -48 -182 -135 -203l185 -322h-162l-148 295h-128v-295h-138v750h265c176 0 261 -71 261 -225zM466 520c0 83 -34 112 -117 112h-128v-230h124c85 0 121 28 121 118z" />
    <glyph glyph-name="S" unicode="S" horiz-adv-x="573" 
d="M539 220c0 -145 -98 -234 -268 -234c-86 0 -164 21 -226 56l19 123c63 -36 130 -56 206 -56c93 0 136 37 136 102c0 141 -357 80 -357 331c0 122 79 221 260 221c74 0 149 -15 205 -40l-18 -119c-61 22 -120 34 -180 34c-102 0 -134 -41 -134 -89
c0 -137 357 -74 357 -329z" />
    <glyph glyph-name="T" unicode="T" horiz-adv-x="590" 
d="M576 622h-211v-622h-140v622h-211l3 128h556z" />
    <glyph glyph-name="U" unicode="U" horiz-adv-x="731" 
d="M660 750v-481c0 -192 -102 -283 -294 -283c-191 0 -295 90 -295 283v481h137v-480c0 -108 50 -156 158 -156s156 48 156 156v480h138z" />
    <glyph glyph-name="V" unicode="V" horiz-adv-x="702" 
d="M546 750h143l-260 -750h-156l-260 750h152l166 -540l22 -77h3l22 77z" />
    <glyph glyph-name="W" unicode="W" horiz-adv-x="1024" 
d="M440 750h150l120 -536l17 -79h3l14 79l107 536h137l-178 -750h-167l-114 535l-15 80h-3l-16 -80l-114 -535h-166l-179 750h143l107 -539l15 -79h3l15 79z" />
    <glyph glyph-name="X" unicode="X" horiz-adv-x="705" 
d="M666 750l-216 -359l228 -391h-158l-130 238l-36 72h-3l-36 -73l-126 -237h-161l223 388l-217 362h165l116 -209l38 -71h3l37 71l115 209h158z" />
    <glyph glyph-name="Y" unicode="Y" horiz-adv-x="685" 
d="M13 750h156l144 -306l33 -73h3l31 74l141 305h151l-257 -504v-246h-141v246z" />
    <glyph glyph-name="Z" unicode="Z" horiz-adv-x="617" 
d="M570 0h-529v92l316 464l46 64l-1 2h-352l5 128h515v-104l-309 -453l-46 -63l1 -3h356z" />
    <glyph glyph-name="bracketleft" unicode="[" horiz-adv-x="340" 
d="M85 -130v919h252v-93h-136v-735h136v-91h-252z" />
    <glyph glyph-name="backslash" unicode="\" horiz-adv-x="380" 
d="M-4 788h104l298 -911h-103z" />
    <glyph glyph-name="bracketright" unicode="]" horiz-adv-x="340" 
d="M255 789v-919h-252v90h137v736h-137v93h252z" />
    <glyph glyph-name="asciicircum" unicode="^" horiz-adv-x="645" 
d="M484 464l-162 244l-160 -244h-104l221 340h89l218 -340h-102z" />
    <glyph glyph-name="underscore" unicode="_" horiz-adv-x="422" 
d="M20 -41h384v-80h-384v80z" />
    <glyph glyph-name="grave" unicode="`" 
d="M302 658h-98l-114 145h148z" />
    <glyph glyph-name="a" unicode="a" horiz-adv-x="577" 
d="M416 0l-11 64l-3 1c-37 -47 -98 -75 -170 -75c-112 0 -186 62 -186 196c0 113 76 186 216 186c47 0 91 -8 125 -19v45c0 75 -36 105 -126 105c-65 0 -112 -10 -167 -34l-11 105c59 26 126 39 201 39c168 0 229 -72 229 -234v-379h-97zM387 177v88c-15 7 -52 17 -102 17
c-82 0 -119 -33 -119 -94c0 -70 42 -95 101 -95c63 0 120 40 120 84z" />
    <glyph glyph-name="b" unicode="b" horiz-adv-x="633" 
d="M591 302c0 -223 -90 -314 -242 -314c-71 0 -130 27 -168 67l-18 -55h-86v783l127 7v-156l-2 -80l3 -2c42 41 99 60 159 60c139 0 227 -86 227 -310zM461 300c0 164 -48 198 -133 198c-54 0 -98 -22 -124 -59v-285c21 -33 63 -61 125 -61c81 0 132 38 132 207z" />
    <glyph glyph-name="c" unicode="c" horiz-adv-x="496" 
d="M455 584l-8 -112c-33 14 -73 23 -111 23c-121 0 -163 -54 -163 -193c0 -147 57 -203 160 -203c43 0 85 10 118 28l9 -102c-35 -23 -90 -38 -154 -38c-174 0 -265 100 -265 315c0 201 81 309 268 309c52 0 107 -11 146 -27z" />
    <glyph glyph-name="d" unicode="d" horiz-adv-x="631" 
d="M556 0h-99l-14 57l-3 1c-37 -45 -91 -70 -168 -70c-158 0 -231 100 -231 315c0 200 74 310 230 310c61 0 117 -21 158 -61l2 2l-2 80v149l127 7v-790zM429 154v287c-22 33 -66 55 -121 55c-99 0 -135 -52 -135 -198c0 -153 32 -204 134 -204c69 0 106 32 122 60z" />
    <glyph glyph-name="e" unicode="e" horiz-adv-x="582" 
d="M332 -11c-203 0 -291 107 -291 323c0 191 84 300 258 300c148 0 243 -87 243 -279c0 -19 -1 -43 -3 -61h-366c6 -126 59 -170 174 -170c59 0 111 11 162 33l15 -105c-51 -25 -117 -41 -192 -41zM170 358h255c-2 106 -50 146 -125 146c-87 0 -124 -44 -130 -146z" />
    <glyph glyph-name="f" unicode="f" horiz-adv-x="404" 
d="M236 0h-127v505h-82v97h81v26c0 95 61 170 203 170c33 0 69 -6 93 -14l-8 -84c-18 4 -39 7 -61 7c-71 0 -99 -31 -99 -82v-23h140v-97h-140v-505z" />
    <glyph glyph-name="g" unicode="g" horiz-adv-x="580" 
d="M284 248c-27 0 -54 2 -79 7c-20 -8 -32 -21 -32 -36c0 -17 14 -31 45 -33l145 -10c143 -10 194 -60 194 -149c0 -116 -75 -189 -267 -189c-168 0 -239 66 -239 159c0 39 18 76 52 104c-27 17 -47 46 -47 86s24 77 75 100c-42 27 -69 71 -69 141c0 111 61 184 222 184
c52 0 107 -8 149 -35l100 36l27 -63l-67 -50c8 -20 12 -44 12 -72c0 -115 -61 -180 -221 -180zM341 66l-145 11c-23 -19 -36 -43 -36 -64c0 -50 37 -77 127 -77c124 0 155 29 155 72c0 34 -19 52 -101 58zM285 514c-72 0 -98 -28 -98 -88c0 -70 39 -88 95 -88
c78 0 101 27 101 88c0 65 -29 88 -98 88z" />
    <glyph glyph-name="h" unicode="h" horiz-adv-x="630" 
d="M566 0h-128v390c0 70 -36 107 -114 107c-53 0 -99 -24 -120 -56v-441h-127v783l127 7v-154l-2 -80l3 -2c45 42 102 59 159 59c128 0 202 -81 202 -223v-390z" />
    <glyph glyph-name="i" unicode="i" horiz-adv-x="316" 
d="M222 0h-129v598l129 7v-605zM234 741c0 -40 -24 -59 -76 -59c-51 0 -76 15 -76 59c0 39 25 61 76 61c52 0 76 -22 76 -61z" />
    <glyph glyph-name="j" unicode="j" horiz-adv-x="315" 
d="M222 605v-606c0 -122 -71 -161 -159 -161c-27 0 -55 5 -77 13l7 92c13 -4 26 -6 39 -6c37 0 63 19 63 66v595zM232 742c0 -40 -23 -59 -75 -59s-76 15 -76 59c0 40 24 60 76 60s75 -20 75 -60z" />
    <glyph glyph-name="k" unicode="k" horiz-adv-x="604" 
d="M204 790v-414h86l148 226h144l-183 -274l189 -328h-145l-153 270h-86v-270h-127v783z" />
    <glyph glyph-name="l" unicode="l" horiz-adv-x="303" 
d="M215 0h-128v783l128 7v-790z" />
    <glyph glyph-name="m" unicode="m" horiz-adv-x="934" 
d="M870 0h-127v391c0 72 -40 105 -106 105c-58 0 -102 -32 -102 -98v-398h-127v398c0 71 -42 99 -102 99c-43 0 -86 -22 -107 -55v-442h-127v599l91 6l22 -60c41 42 97 67 155 67c78 0 130 -28 161 -86c38 59 98 86 170 86c117 0 199 -72 199 -219v-393z" />
    <glyph glyph-name="n" unicode="n" horiz-adv-x="625" 
d="M561 0h-127v389c0 76 -41 108 -115 108c-45 0 -95 -20 -120 -55v-442h-127v599l91 7l20 -58c45 42 106 65 171 65c127 0 207 -77 207 -223v-390z" />
    <glyph glyph-name="o" unicode="o" horiz-adv-x="620" 
d="M578 299c0 -223 -80 -313 -267 -313c-186 0 -270 90 -270 313c0 222 84 314 270 314c187 0 267 -92 267 -314zM173 299c0 -158 39 -206 138 -206s136 48 136 206s-37 206 -136 206c-100 0 -138 -48 -138 -206z" />
    <glyph glyph-name="p" unicode="p" horiz-adv-x="628" 
d="M586 302c0 -217 -91 -313 -234 -313c-57 0 -110 14 -150 56l-3 -1l2 -81v-114h-129v749l90 6l25 -57c43 41 103 65 170 65c148 0 229 -79 229 -310zM455 303c0 153 -43 194 -131 194c-54 0 -97 -22 -123 -59v-279c21 -34 60 -61 119 -61c80 0 135 38 135 205z" />
    <glyph glyph-name="q" unicode="q" horiz-adv-x="628" 
d="M554 -151l-127 -1v112l2 81l-2 1c-38 -33 -88 -51 -150 -51c-141 0 -236 89 -236 309c0 209 81 312 239 312c74 0 134 -24 174 -70h3l16 59h81v-752zM427 164v275c-17 31 -63 56 -120 56c-98 0 -134 -42 -134 -196c0 -149 41 -198 135 -198c69 0 112 33 119 63z" />
    <glyph glyph-name="r" unicode="r" horiz-adv-x="452" 
d="M199 0h-127v598l102 6l11 -113h3c37 78 99 120 173 120c25 0 47 -3 63 -8l-8 -129c-19 6 -41 10 -63 10c-87 0 -154 -68 -154 -181v-303z" />
    <glyph glyph-name="s" unicode="s" horiz-adv-x="495" 
d="M458 183c0 -117 -66 -195 -222 -195c-72 0 -137 15 -187 45l15 108c47 -31 117 -47 172 -47c73 0 104 33 104 77c0 114 -293 55 -293 263c0 105 73 178 220 178c60 0 117 -12 167 -34l-11 -106c-50 21 -112 31 -158 31c-60 0 -96 -24 -96 -64c0 -106 289 -47 289 -256z
" />
    <glyph glyph-name="t" unicode="t" horiz-adv-x="398" 
d="M370 504h-141v-335c0 -53 28 -75 79 -75c16 0 38 3 49 7l8 -95c-20 -9 -57 -16 -94 -16c-113 0 -169 65 -169 176v338h-75v98h79l23 141l100 10v-151h141v-98z" />
    <glyph glyph-name="u" unicode="u" horiz-adv-x="617" 
d="M553 602v-396c0 -141 -80 -217 -245 -217s-244 79 -244 217v396h127v-393c0 -69 38 -105 118 -105c78 0 117 35 117 105v393h127z" />
    <glyph glyph-name="v" unicode="v" horiz-adv-x="646" 
d="M482 602h139l-224 -602h-149l-224 602h140l134 -412l24 -77h3l23 77z" />
    <glyph glyph-name="w" unicode="w" horiz-adv-x="882" 
d="M377 602h134l94 -421l16 -79h3l13 80l81 420h124l-139 -602h-158l-82 388l-15 80h-3l-16 -80l-86 -388h-156l-147 602h128l84 -419l15 -79h3l15 79z" />
    <glyph glyph-name="x" unicode="x" horiz-adv-x="614" 
d="M435 0l-95 176l-36 72h-3l-36 -73l-93 -175h-142l188 304l-184 298h149l89 -166l37 -71h3l36 72l88 165h143l-178 -295l183 -307h-149z" />
    <glyph glyph-name="y" unicode="y" horiz-adv-x="646" 
d="M184 -67c43 0 75 15 98 66l3 9l-261 594h146l149 -400l27 -76h3l20 78l117 398h136l-213 -604c-44 -118 -108 -162 -203 -162c-35 0 -69 6 -98 19l11 93c22 -11 43 -15 65 -15z" />
    <glyph glyph-name="z" unicode="z" horiz-adv-x="540" 
d="M487 511l-241 -338l-48 -62l1 -3h295l-4 -108h-440v91l242 337l48 63l-1 2h-280l5 109h423v-91z" />
    <glyph glyph-name="braceleft" unicode="{" horiz-adv-x="379" 
d="M265 439c0 -48 -21 -87 -59 -106v-3c38 -20 59 -58 59 -105c0 -70 -13 -114 -13 -178c0 -46 26 -81 92 -81h32v-97h-26c-157 0 -213 59 -213 161c0 70 17 131 17 197c0 41 -28 70 -69 77v55c41 7 69 36 69 77c0 66 -17 127 -17 197c0 102 56 161 213 161h26v-97h-32
c-66 0 -92 -34 -92 -81c0 -64 13 -108 13 -177z" />
    <glyph glyph-name="bar" unicode="|" horiz-adv-x="286" 
d="M94 -178v987h99v-987h-99z" />
    <glyph glyph-name="braceright" unicode="}" horiz-adv-x="379" 
d="M114 225c0 47 21 85 60 105v3c-40 19 -60 58 -60 106c0 69 13 113 13 177c0 47 -27 81 -92 81h-32v97h26c157 0 212 -59 212 -161c0 -70 -16 -131 -16 -197c0 -41 28 -70 69 -77v-55c-41 -7 -69 -36 -69 -77c0 -66 16 -127 16 -197c0 -102 -55 -161 -212 -161h-26v97h32
c65 0 92 35 92 81c0 64 -13 108 -13 178z" />
    <glyph glyph-name="asciitilde" unicode="~" horiz-adv-x="645" 
d="M156 604h-74c8 114 54 172 138 172c77 0 142 -67 203 -67c38 0 56 24 65 54h74c-8 -115 -57 -171 -138 -171c-77 0 -140 67 -200 67c-37 0 -59 -23 -68 -55z" />
    <glyph glyph-name="uni00A0" unicode="&#xa0;" horiz-adv-x="282" 
 />
    <glyph glyph-name="exclamdown" unicode="&#xa1;" horiz-adv-x="302" 
d="M100 448h103l16 -582h-135zM74 595c0 42 23 68 75 68c51 0 75 -20 75 -68c0 -44 -24 -69 -75 -69c-52 0 -75 25 -75 69z" />
    <glyph glyph-name="cent" unicode="&#xa2;" horiz-adv-x="645" 
d="M511 584l-8 -112c-33 14 -73 23 -111 23c-121 0 -163 -54 -163 -193c0 -147 57 -203 160 -203c43 0 85 10 118 28l9 -102c-29 -19 -72 -33 -122 -37l-7 -123h-100l8 128c-131 23 -198 123 -198 309c0 183 67 289 222 306l9 122h99l-9 -123c34 -4 67 -13 93 -23z" />
    <glyph glyph-name="sterling" unicode="&#xa3;" horiz-adv-x="645" 
d="M78 321l-5 103h50c-13 38 -24 75 -24 119c0 117 71 219 279 219c76 0 137 -15 184 -34l-16 -118c-40 17 -97 30 -153 30c-115 0 -158 -48 -158 -113c0 -36 8 -69 18 -103h252v-103h-227c3 -20 5 -40 5 -63c0 -66 -26 -116 -70 -144l1 -2c59 13 123 17 195 17
c67 0 128 -4 189 -12l-7 -124c-85 10 -160 15 -243 15c-94 0 -173 -3 -281 -13l-6 120c61 16 96 74 96 137c0 25 -2 48 -6 69h-73z" />
    <glyph glyph-name="currency" unicode="&#xa4;" horiz-adv-x="645" 
d="M135 361c0 35 9 68 26 96l-67 69l66 71l69 -71c27 15 59 24 92 24s65 -9 92 -25l72 73l65 -71l-69 -71c17 -28 26 -60 26 -95c0 -33 -8 -63 -22 -89l64 -66l-65 -71l-64 65c-29 -18 -63 -28 -99 -28s-70 10 -98 28l-64 -65l-65 71l63 64c-14 27 -22 58 -22 91zM218 363
c0 -55 46 -98 103 -98s102 43 102 98s-45 98 -102 98s-103 -43 -103 -98z" />
    <glyph glyph-name="yen" unicode="&#xa5;" horiz-adv-x="645" 
d="M123 350h94l-190 400h152l143 -408h3l25 76l118 332h148l-185 -400h96v-79h-129v-44h130v-79h-130v-148h-146v148h-129v79h129v44h-129v79z" />
    <glyph glyph-name="brokenbar" unicode="&#xa6;" horiz-adv-x="286" 
d="M94 373v436h99v-436h-99zM94 -167v436h99v-436h-99z" />
    <glyph glyph-name="section" unicode="&#xa7;" horiz-adv-x="566" 
d="M53 338c0 56 28 114 89 149c-43 31 -73 70 -73 123c0 110 82 172 232 172c65 0 144 -14 195 -43l-11 -98c-59 27 -117 39 -178 39c-70 0 -107 -24 -107 -65c0 -100 330 -102 330 -315c0 -57 -28 -115 -90 -150c42 -31 73 -70 73 -122c0 -110 -81 -172 -231 -172
c-65 0 -144 14 -194 43l10 98c59 -27 117 -39 177 -39c71 0 107 24 107 65c0 100 -329 102 -329 315zM407 286c0 60 -73 96 -167 143c-43 -17 -64 -44 -64 -77c0 -61 72 -97 166 -144c44 17 65 45 65 78z" />
    <glyph glyph-name="dieresis" unicode="&#xa8;" 
d="M173 743c0 -38 -18 -57 -57 -57c-38 0 -56 15 -56 57c0 38 18 58 56 58c39 0 57 -20 57 -58zM345 743c0 -38 -17 -57 -56 -57c-38 0 -57 15 -57 57c0 38 19 58 57 58c39 0 56 -20 56 -58z" />
    <glyph glyph-name="copyright" unicode="&#xa9;" horiz-adv-x="887" 
d="M51 379c0 216 176 391 393 391c216 0 392 -175 392 -391c0 -217 -176 -393 -392 -393c-217 0 -393 176 -393 393zM117 379c0 -176 143 -325 327 -325c182 0 328 146 328 325c0 174 -146 320 -328 320c-184 0 -327 -146 -327 -320zM609 580l-10 -92c-30 17 -78 29 -116 29
c-105 0 -161 -58 -161 -138c0 -86 60 -142 163 -142c47 0 93 15 122 32l13 -89c-37 -31 -102 -62 -170 -62c-150 0 -256 113 -256 260c0 134 95 254 256 254c68 0 124 -23 159 -52z" />
    <glyph glyph-name="ordfeminine" unicode="&#xaa;" horiz-adv-x="433" 
d="M300 353l-9 44l-3 1c-27 -34 -65 -51 -113 -51c-83 0 -136 48 -136 152c0 86 57 144 155 144c32 0 60 -5 83 -14v30c0 48 -24 67 -87 67c-43 0 -75 -7 -115 -24l-9 91c44 19 93 30 146 30c127 0 172 -56 172 -182v-288h-84zM276 492v61c-10 5 -31 10 -61 10
c-50 0 -74 -21 -74 -63c0 -46 26 -62 63 -62c39 0 72 25 72 54z" />
    <glyph glyph-name="guillemotleft" unicode="&#xab;" horiz-adv-x="639" 
d="M563 432l-175 -109l175 -110v-101l-302 206v10l302 206v-102zM326 432l-175 -109l175 -110v-101l-302 206v10l302 206v-102z" />
    <glyph glyph-name="logicalnot" unicode="&#xac;" horiz-adv-x="645" 
d="M438 283h-335v113h439v-265h-104v152z" />
    <glyph glyph-name="uni00AD" unicode="&#xad;" horiz-adv-x="397" 
d="M60 389h277v-95h-277v95z" />
    <glyph glyph-name="registered" unicode="&#xae;" horiz-adv-x="444" 
d="M37 647c0 104 83 189 186 189c102 0 185 -85 185 -189c0 -103 -83 -187 -185 -187c-103 0 -186 84 -186 187zM73 647c0 -81 68 -149 150 -149s149 68 149 149c0 83 -67 149 -149 149s-150 -66 -150 -149zM316 687c0 -25 -12 -47 -36 -56l40 -81h-57l-33 74h-35v-74h-54
v203h91c61 0 84 -27 84 -66zM264 684c0 15 -9 24 -31 24h-38v-48h41c19 0 28 10 28 24z" />
    <glyph glyph-name="macron" unicode="&#xaf;" 
d="M355 776v-81h-303v81h303z" />
    <glyph glyph-name="degree" unicode="&#xb0;" horiz-adv-x="348" 
d="M39 680c0 76 59 137 135 137c75 0 135 -61 135 -137c0 -75 -60 -137 -135 -137s-135 62 -135 137zM98 680c0 -41 33 -73 76 -73s76 31 76 73c0 43 -33 74 -76 74c-44 0 -76 -33 -76 -74z" />
    <glyph glyph-name="plusminus" unicode="&#xb1;" horiz-adv-x="645" 
d="M550 337h-173v-155h-113v155h-169v110h169v164h113v-164h173v-110zM548 47h-453v98h453v-98z" />
    <glyph glyph-name="twosuperior" unicode="&#xb2;" horiz-adv-x="364" 
d="M330 774c0 -77 -69 -131 -170 -201v-3h170l-1 -77h-287v60c107 95 192 155 192 213c0 27 -19 48 -68 48c-39 0 -72 -14 -107 -36l-22 73c38 25 87 42 146 42c100 0 147 -49 147 -119z" />
    <glyph glyph-name="threesuperior" unicode="&#xb3;" horiz-adv-x="364" 
d="M333 611c0 -76 -50 -123 -165 -123c-55 0 -101 14 -134 33l20 70c33 -19 71 -29 114 -29c52 0 76 21 76 54s-22 50 -115 50v63c88 0 109 18 109 48c0 26 -22 41 -69 41c-45 0 -80 -12 -114 -35l-21 68c34 24 85 42 139 42c96 0 151 -41 151 -109c0 -42 -23 -69 -60 -84
v-2c44 -13 69 -40 69 -87z" />
    <glyph glyph-name="acute" unicode="&#xb4;" 
d="M214 803h148l-117 -145h-97z" />
    <glyph glyph-name="mu" unicode="&#xb5;" horiz-adv-x="625" 
d="M324 -10c-59 0 -110 24 -140 74l-2 -1c4 -74 8 -144 14 -211l-124 -10v760h127v-392c0 -66 50 -105 121 -105c66 0 113 32 113 94v403h127v-599l-90 -8l-17 49h-3c-26 -34 -72 -54 -126 -54z" />
    <glyph glyph-name="paragraph" unicode="&#xb6;" horiz-adv-x="683" 
d="M297 -156h-112v631c-87 4 -150 51 -150 143c0 76 56 132 156 132h450l-5 -106h-76v-800h-112v800h-151v-800z" />
    <glyph glyph-name="periodcentered" unicode="&#xb7;" horiz-adv-x="290" 
d="M222 345c0 -47 -24 -75 -77 -75c-54 0 -77 21 -77 75c0 49 23 76 77 76c53 0 77 -27 77 -76z" />
    <glyph glyph-name="cedilla" unicode="&#xb8;" 
d="M115 -190l68 199l84 2l-36 -201h-116z" />
    <glyph glyph-name="onesuperior" unicode="&#xb9;" horiz-adv-x="279" 
d="M219 889v-396h-92v206l3 79l-3 1l-81 -47l-8 75l124 82h57z" />
    <glyph glyph-name="ordmasculine" unicode="&#xba;" horiz-adv-x="473" 
d="M432 585c0 -172 -59 -238 -195 -238c-135 0 -196 66 -196 238c0 171 62 238 196 238c136 0 195 -67 195 -238zM153 585c0 -116 23 -145 84 -145s84 29 84 145s-23 144 -84 144s-84 -28 -84 -144z" />
    <glyph glyph-name="guillemotright" unicode="&#xbb;" horiz-adv-x="639" 
d="M300 112v101l174 110l-174 109v102l303 -206v-10zM64 112v101l174 110l-174 109v102l303 -206v-10z" />
    <glyph glyph-name="onequarter" unicode="&#xbc;" horiz-adv-x="886" 
d="M290 751v-395h-92v205l3 79l-3 1l-81 -47l-8 76l124 81h57zM818 75h-41v-75h-85v75h-203l-7 53l184 266h111v-245h44zM694 149l2 85l4 80h-3l-66 -98l-45 -64l1 -3h107zM650 750h92l-501 -750h-91z" />
    <glyph glyph-name="onehalf" unicode="&#xbd;" horiz-adv-x="886" 
d="M637 750h92l-501 -750h-91zM824 281c0 -77 -69 -131 -170 -201v-3h170l-1 -77h-287v60c107 95 192 155 192 213c0 27 -19 48 -68 48c-39 0 -72 -14 -107 -36l-22 73c38 25 87 41 146 41c100 0 147 -49 147 -118zM291 751v-395h-92v205l3 79l-3 1l-81 -47l-8 76l124 81h57
z" />
    <glyph glyph-name="threequarters" unicode="&#xbe;" horiz-adv-x="886" 
d="M796 75h-41v-75h-85v75h-203l-7 53l184 266h111v-245h44zM672 149l2 85l4 80h-3l-66 -98l-45 -64l1 -3h107zM646 750h92l-501 -750h-91zM358 474c0 -77 -50 -124 -165 -124c-55 0 -101 14 -134 33l20 70c33 -18 71 -29 114 -29c52 0 76 21 76 54s-22 51 -115 51v63
c88 0 109 17 109 47c0 26 -22 41 -69 41c-45 0 -80 -11 -114 -35l-21 68c34 25 85 42 139 42c96 0 151 -40 151 -109c0 -42 -23 -68 -60 -83v-2c44 -14 69 -40 69 -87z" />
    <glyph glyph-name="questiondown" unicode="&#xbf;" horiz-adv-x="489" 
d="M35 84c0 111 66 186 175 244l6 121h100l7 -170c-96 -54 -157 -102 -157 -175c0 -57 41 -85 110 -85c65 0 119 24 161 61l46 -104c-50 -45 -133 -77 -225 -77c-149 0 -223 70 -223 185zM191 603c0 42 22 68 74 68s75 -19 75 -68c0 -44 -23 -69 -75 -69s-74 25 -74 69z" />
    <glyph glyph-name="Agrave" unicode="&#xc0;" horiz-adv-x="723" 
d="M557 0l-49 161h-300l-50 -161h-147l267 750h165l269 -750h-155zM358 649l-23 -78l-91 -293h228l-90 293l-21 78h-3zM429 796h-104l-124 119h154z" />
    <glyph glyph-name="Aacute" unicode="&#xc1;" horiz-adv-x="723" 
d="M557 0l-49 161h-300l-50 -161h-147l267 750h165l269 -750h-155zM358 649l-23 -78l-91 -293h228l-90 293l-21 78h-3zM361 913h166l-135 -118h-103z" />
    <glyph glyph-name="Acircumflex" unicode="&#xc2;" horiz-adv-x="723" 
d="M557 0l-49 161h-300l-50 -161h-147l267 750h165l269 -750h-155zM358 649l-23 -78l-91 -293h228l-90 293l-21 78h-3zM291 914h136l111 -120h-115l-63 74l-63 -74h-113z" />
    <glyph glyph-name="Atilde" unicode="&#xc3;" horiz-adv-x="723" 
d="M557 0l-49 161h-300l-50 -161h-147l267 750h165l269 -750h-155zM358 649l-23 -78l-91 -293h228l-90 293l-21 78h-3zM258 799h-59c4 67 39 115 96 115c63 0 101 -50 137 -50c19 0 30 11 35 37l56 -1c-4 -68 -40 -114 -97 -114c-61 0 -97 50 -132 50c-18 0 -32 -15 -36 -37
z" />
    <glyph glyph-name="Adieresis" unicode="&#xc4;" horiz-adv-x="723" 
d="M557 0l-49 161h-300l-50 -161h-147l267 750h165l269 -750h-155zM358 649l-23 -78l-91 -293h228l-90 293l-21 78h-3zM319 851c0 -36 -18 -54 -56 -54s-57 14 -57 54c0 36 19 55 57 55s56 -19 56 -55zM514 851c0 -36 -17 -54 -56 -54c-37 0 -56 14 -56 54c0 36 19 55 56 55
c39 0 56 -19 56 -55z" />
    <glyph glyph-name="Aring" unicode="&#xc5;" horiz-adv-x="723" 
d="M243 804c0 56 31 92 115 92c82 0 117 -37 117 -92c0 -31 -9 -54 -27 -69l264 -735h-155l-49 161h-300l-50 -161h-147l260 732c-19 15 -28 38 -28 72zM358 649l-23 -78l-91 -293h228l-90 293l-21 78h-3zM310 800c0 -22 11 -35 50 -35c36 0 49 11 49 35c0 23 -12 37 -49 37
c-38 0 -50 -14 -50 -37z" />
    <glyph glyph-name="AE" unicode="&#xc6;" horiz-adv-x="1060" 
d="M1009 625h-352l14 -181h281v-113h-272l17 -208h323l-3 -123h-450l-12 162h-281l-80 -162h-164l410 750h566zM517 659l-34 -74l-152 -307h215l-22 299l-4 81z" />
    <glyph glyph-name="Ccedilla" unicode="&#xc7;" horiz-adv-x="601" 
d="M271 -190l61 178c-191 18 -281 144 -281 393c0 254 105 382 339 382c61 0 132 -15 174 -33l-15 -121c-39 15 -94 27 -152 27c-146 0 -201 -62 -201 -256c0 -206 57 -269 204 -269c58 0 108 13 151 32l16 -115c-40 -20 -94 -35 -148 -40l-32 -178h-116z" />
    <glyph glyph-name="Egrave" unicode="&#xc8;" horiz-adv-x="621" 
d="M221 123h360l-3 -123h-495v750h480l2 -125h-344v-181h292v-113h-292v-208zM401 796h-104l-124 119h154z" />
    <glyph glyph-name="Eacute" unicode="&#xc9;" horiz-adv-x="621" 
d="M221 123h360l-3 -123h-495v750h480l2 -125h-344v-181h292v-113h-292v-208zM332 913h166l-135 -118h-103z" />
    <glyph glyph-name="Ecircumflex" unicode="&#xca;" horiz-adv-x="621" 
d="M221 123h360l-3 -123h-495v750h480l2 -125h-344v-181h292v-113h-292v-208zM262 914h136l111 -120h-115l-63 74l-63 -74h-113z" />
    <glyph glyph-name="Edieresis" unicode="&#xcb;" horiz-adv-x="621" 
d="M221 123h360l-3 -123h-495v750h480l2 -125h-344v-181h292v-113h-292v-208zM290 851c0 -36 -18 -54 -56 -54s-57 14 -57 54c0 36 19 55 57 55s56 -19 56 -55zM485 851c0 -36 -17 -54 -56 -54c-37 0 -56 14 -56 54c0 36 19 55 56 55c39 0 56 -19 56 -55z" />
    <glyph glyph-name="Igrave" unicode="&#xcc;" horiz-adv-x="330" 
d="M95 0v750h140v-750h-140zM234 796h-104l-124 119h154z" />
    <glyph glyph-name="Iacute" unicode="&#xcd;" horiz-adv-x="330" 
d="M95 0v750h140v-750h-140zM166 913h166l-135 -118h-103z" />
    <glyph glyph-name="Icircumflex" unicode="&#xce;" horiz-adv-x="330" 
d="M95 0v750h140v-750h-140zM96 914h136l111 -120h-115l-63 74l-63 -74h-113z" />
    <glyph glyph-name="Idieresis" unicode="&#xcf;" horiz-adv-x="330" 
d="M95 0v750h140v-750h-140zM124 851c0 -36 -18 -54 -56 -54s-57 14 -57 54c0 36 19 55 57 55s56 -19 56 -55zM319 851c0 -36 -17 -54 -56 -54c-37 0 -56 14 -56 54c0 36 19 55 56 55c39 0 56 -19 56 -55z" />
    <glyph glyph-name="Eth" unicode="&#xd0;" horiz-adv-x="744" 
d="M692 378c0 -272 -109 -378 -328 -378h-272v348h-65v85h65v317h270c233 0 330 -111 330 -372zM548 379c0 194 -52 244 -187 244h-131v-190h93v-85h-93v-222h131c130 0 187 45 187 253z" />
    <glyph glyph-name="Ntilde" unicode="&#xd1;" horiz-adv-x="752" 
d="M669 0h-97l-320 457l-45 68l-2 -1l1 -81v-443h-123v750h120l299 -438l45 -67l2 1l-2 80v424h122v-750zM278 799h-59c4 67 39 115 96 115c63 0 101 -50 137 -50c19 0 30 11 35 37l56 -1c-4 -68 -40 -114 -97 -114c-61 0 -97 50 -132 50c-18 0 -32 -15 -36 -37z" />
    <glyph glyph-name="Ograve" unicode="&#xd2;" horiz-adv-x="745" 
d="M693 375c0 -274 -91 -389 -320 -389c-227 0 -322 119 -322 389s92 387 322 387c229 0 320 -117 320 -387zM549 375c0 208 -46 260 -177 260c-128 0 -176 -53 -176 -260s48 -262 177 -262s176 56 176 262zM457 796h-104l-124 119h154z" />
    <glyph glyph-name="Oacute" unicode="&#xd3;" horiz-adv-x="745" 
d="M693 375c0 -274 -91 -389 -320 -389c-227 0 -322 119 -322 389s92 387 322 387c229 0 320 -117 320 -387zM549 375c0 208 -46 260 -177 260c-128 0 -176 -53 -176 -260s48 -262 177 -262s176 56 176 262zM374 913h166l-135 -118h-103z" />
    <glyph glyph-name="Ocircumflex" unicode="&#xd4;" horiz-adv-x="745" 
d="M693 375c0 -274 -91 -389 -320 -389c-227 0 -322 119 -322 389s92 387 322 387c229 0 320 -117 320 -387zM549 375c0 208 -46 260 -177 260c-128 0 -176 -53 -176 -260s48 -262 177 -262s176 56 176 262zM304 914h136l111 -120h-115l-63 74l-63 -74h-113z" />
    <glyph glyph-name="Otilde" unicode="&#xd5;" horiz-adv-x="745" 
d="M693 375c0 -274 -91 -389 -320 -389c-227 0 -322 119 -322 389s92 387 322 387c229 0 320 -117 320 -387zM549 375c0 208 -46 260 -177 260c-128 0 -176 -53 -176 -260s48 -262 177 -262s176 56 176 262zM271 799h-59c4 67 39 115 96 115c63 0 101 -50 137 -50
c19 0 30 11 35 37l56 -1c-4 -68 -40 -114 -97 -114c-61 0 -97 50 -132 50c-18 0 -32 -15 -36 -37z" />
    <glyph glyph-name="Odieresis" unicode="&#xd6;" horiz-adv-x="745" 
d="M693 375c0 -274 -91 -389 -320 -389c-227 0 -322 119 -322 389s92 387 322 387c229 0 320 -117 320 -387zM549 375c0 208 -46 260 -177 260c-128 0 -176 -53 -176 -260s48 -262 177 -262s176 56 176 262zM332 851c0 -36 -18 -54 -56 -54s-57 14 -57 54c0 36 19 55 57 55
s56 -19 56 -55zM527 851c0 -36 -17 -54 -56 -54c-37 0 -56 14 -56 54c0 36 19 55 56 55c39 0 56 -19 56 -55z" />
    <glyph glyph-name="multiply" unicode="&#xd7;" horiz-adv-x="600" 
d="M513 193l-73 -80l-140 137l-139 -137l-74 80l140 137l-142 139l74 81l142 -139l141 139l73 -81l-141 -139z" />
    <glyph glyph-name="Oslash" unicode="&#xd8;" horiz-adv-x="745" 
d="M107 -16l-66 62l58 74c-33 62 -48 146 -48 255c0 270 92 387 322 387c97 0 170 -21 221 -67l57 68l66 -64l-66 -80c29 -61 43 -141 43 -244c0 -274 -91 -389 -321 -389c-93 0 -164 20 -215 62zM196 375c0 -58 3 -104 11 -142l301 352c-28 37 -72 50 -135 50
c-129 0 -177 -53 -177 -260zM549 375c0 53 -3 95 -8 131l-299 -347c28 -34 70 -46 131 -46c129 0 176 56 176 262z" />
    <glyph glyph-name="Ugrave" unicode="&#xd9;" horiz-adv-x="731" 
d="M660 750v-481c0 -192 -102 -283 -294 -283c-191 0 -295 90 -295 283v481h137v-480c0 -108 50 -156 158 -156s156 48 156 156v480h138zM435 796h-104l-124 119h154z" />
    <glyph glyph-name="Uacute" unicode="&#xda;" horiz-adv-x="731" 
d="M660 750v-481c0 -192 -102 -283 -294 -283c-191 0 -295 90 -295 283v481h137v-480c0 -108 50 -156 158 -156s156 48 156 156v480h138zM366 913h166l-135 -118h-103z" />
    <glyph glyph-name="Ucircumflex" unicode="&#xdb;" horiz-adv-x="731" 
d="M660 750v-481c0 -192 -102 -283 -294 -283c-191 0 -295 90 -295 283v481h137v-480c0 -108 50 -156 158 -156s156 48 156 156v480h138zM297 914h136l111 -120h-115l-63 74l-63 -74h-113z" />
    <glyph glyph-name="Udieresis" unicode="&#xdc;" horiz-adv-x="731" 
d="M660 750v-481c0 -192 -102 -283 -294 -283c-191 0 -295 90 -295 283v481h137v-480c0 -108 50 -156 158 -156s156 48 156 156v480h138zM324 851c0 -36 -18 -54 -56 -54s-57 14 -57 54c0 36 19 55 57 55s56 -19 56 -55zM519 851c0 -36 -17 -54 -56 -54c-37 0 -56 14 -56 54
c0 36 19 55 56 55c39 0 56 -19 56 -55z" />
    <glyph glyph-name="Yacute" unicode="&#xdd;" horiz-adv-x="685" 
d="M13 750h156l144 -306l33 -73h3l31 74l141 305h151l-257 -504v-246h-141v246zM346 913h166l-135 -118h-103z" />
    <glyph glyph-name="Thorn" unicode="&#xde;" horiz-adv-x="659" 
d="M621 380c0 -156 -80 -242 -292 -242h-108v-138h-138v750h138v-122h108c209 0 292 -78 292 -248zM480 381c0 98 -41 129 -152 129h-107v-258h108c106 0 151 26 151 129z" />
    <glyph glyph-name="germandbls" unicode="&#xdf;" horiz-adv-x="647" 
d="M77 0v495c0 176 85 268 246 268c119 0 200 -70 200 -159c0 -92 -110 -137 -110 -175c0 -45 199 -74 199 -236c0 -124 -93 -202 -231 -202c-48 0 -109 10 -147 35l8 111c28 -19 73 -31 118 -31c70 0 122 26 122 84c0 106 -206 127 -206 223c0 72 124 120 124 187
c0 32 -30 55 -80 55c-78 0 -116 -46 -116 -148v-507h-127z" />
    <glyph glyph-name="agrave" unicode="&#xe0;" horiz-adv-x="577" 
d="M416 0l-11 64l-3 1c-37 -47 -98 -75 -170 -75c-112 0 -186 62 -186 196c0 113 76 186 216 186c47 0 91 -8 125 -19v45c0 75 -36 105 -126 105c-65 0 -112 -10 -167 -34l-11 105c59 26 126 39 201 39c168 0 229 -72 229 -234v-379h-97zM387 177v88c-15 7 -52 17 -102 17
c-82 0 -119 -33 -119 -94c0 -70 42 -95 101 -95c63 0 120 40 120 84zM351 658h-98l-114 145h148z" />
    <glyph glyph-name="aacute" unicode="&#xe1;" horiz-adv-x="577" 
d="M416 0l-11 64l-3 1c-37 -47 -98 -75 -170 -75c-112 0 -186 62 -186 196c0 113 76 186 216 186c47 0 91 -8 125 -19v45c0 75 -36 105 -126 105c-65 0 -112 -10 -167 -34l-11 105c59 26 126 39 201 39c168 0 229 -72 229 -234v-379h-97zM387 177v88c-15 7 -52 17 -102 17
c-82 0 -119 -33 -119 -94c0 -70 42 -95 101 -95c63 0 120 40 120 84zM279 803h148l-117 -145h-97z" />
    <glyph glyph-name="acircumflex" unicode="&#xe2;" horiz-adv-x="577" 
d="M416 0l-11 64l-3 1c-37 -47 -98 -75 -170 -75c-112 0 -186 62 -186 196c0 113 76 186 216 186c47 0 91 -8 125 -19v45c0 75 -36 105 -126 105c-65 0 -112 -10 -167 -34l-11 105c59 26 126 39 201 39c168 0 229 -72 229 -234v-379h-97zM387 177v88c-15 7 -52 17 -102 17
c-82 0 -119 -33 -119 -94c0 -70 42 -95 101 -95c63 0 120 40 120 84zM229 803h112l102 -145h-97l-60 92l-61 -92h-96z" />
    <glyph glyph-name="atilde" unicode="&#xe3;" horiz-adv-x="577" 
d="M416 0l-11 64l-3 1c-37 -47 -98 -75 -170 -75c-112 0 -186 62 -186 196c0 113 76 186 216 186c47 0 91 -8 125 -19v45c0 75 -36 105 -126 105c-65 0 -112 -10 -167 -34l-11 105c59 26 126 39 201 39c168 0 229 -72 229 -234v-379h-97zM387 177v88c-15 7 -52 17 -102 17
c-82 0 -119 -33 -119 -94c0 -70 42 -95 101 -95c63 0 120 40 120 84zM186 674l-60 1c5 74 40 127 96 127c65 0 90 -59 132 -59c19 0 31 18 38 48l59 -1c-4 -76 -42 -126 -96 -126c-63 0 -90 58 -131 58c-18 0 -32 -20 -38 -48z" />
    <glyph glyph-name="adieresis" unicode="&#xe4;" horiz-adv-x="577" 
d="M416 0l-11 64l-3 1c-37 -47 -98 -75 -170 -75c-112 0 -186 62 -186 196c0 113 76 186 216 186c47 0 91 -8 125 -19v45c0 75 -36 105 -126 105c-65 0 -112 -10 -167 -34l-11 105c59 26 126 39 201 39c168 0 229 -72 229 -234v-379h-97zM387 177v88c-15 7 -52 17 -102 17
c-82 0 -119 -33 -119 -94c0 -70 42 -95 101 -95c63 0 120 40 120 84zM261 743c0 -38 -18 -57 -57 -57c-38 0 -56 15 -56 57c0 38 18 58 56 58c39 0 57 -20 57 -58zM433 743c0 -38 -17 -57 -56 -57c-38 0 -57 15 -57 57c0 38 19 58 57 58c39 0 56 -20 56 -58z" />
    <glyph glyph-name="aring" unicode="&#xe5;" horiz-adv-x="577" 
d="M416 0l-11 64l-3 1c-37 -47 -98 -75 -170 -75c-112 0 -186 62 -186 196c0 113 76 186 216 186c47 0 91 -8 125 -19v45c0 75 -36 105 -126 105c-65 0 -112 -10 -167 -34l-11 105c59 26 126 39 201 39c168 0 229 -72 229 -234v-379h-97zM387 177v88c-15 7 -52 17 -102 17
c-82 0 -119 -33 -119 -94c0 -70 42 -95 101 -95c63 0 120 40 120 84zM173 743c0 53 34 86 114 86c78 0 115 -35 115 -86c0 -56 -37 -86 -115 -86c-75 0 -114 27 -114 86zM236 743c0 -22 14 -35 53 -35c35 0 52 13 52 35c0 21 -15 35 -52 35c-39 0 -53 -14 -53 -35z" />
    <glyph glyph-name="ae" unicode="&#xe6;" horiz-adv-x="916" 
d="M284 612c92 0 147 -24 178 -73c41 47 100 73 179 73c138 0 234 -87 234 -279c0 -19 -1 -43 -3 -61h-365c6 -126 60 -170 174 -170c58 0 111 12 162 35l14 -107c-50 -25 -117 -41 -192 -41c-115 0 -185 36 -225 96c-40 -61 -110 -96 -196 -96c-124 0 -198 62 -198 196
c0 113 76 185 216 185c49 0 91 -8 125 -19v46c0 75 -36 105 -126 105c-65 0 -112 -10 -167 -34l-11 105c60 25 126 39 201 39zM387 189v75c-15 7 -52 17 -102 17c-82 0 -120 -33 -120 -94c0 -70 43 -95 102 -95c68 0 120 40 120 97zM505 358h254c-2 106 -52 146 -125 146
c-87 0 -124 -44 -129 -146z" />
    <glyph glyph-name="ccedilla" unicode="&#xe7;" horiz-adv-x="496" 
d="M194 -190l61 180c-141 18 -214 119 -214 312c0 201 81 309 268 309c52 0 107 -11 146 -27l-8 -112c-33 14 -73 23 -111 23c-121 0 -163 -54 -163 -193c0 -147 57 -203 160 -203c43 0 85 10 118 28l9 -102c-28 -19 -70 -32 -118 -36l-32 -179h-116z" />
    <glyph glyph-name="egrave" unicode="&#xe8;" horiz-adv-x="582" 
d="M332 -11c-203 0 -291 107 -291 323c0 191 84 300 258 300c148 0 243 -87 243 -279c0 -19 -1 -43 -3 -61h-366c6 -126 59 -170 174 -170c59 0 111 11 162 33l15 -105c-51 -25 -117 -41 -192 -41zM170 358h255c-2 106 -50 146 -125 146c-87 0 -124 -44 -130 -146zM364 658
h-98l-114 145h148z" />
    <glyph glyph-name="eacute" unicode="&#xe9;" horiz-adv-x="582" 
d="M332 -11c-203 0 -291 107 -291 323c0 191 84 300 258 300c148 0 243 -87 243 -279c0 -19 -1 -43 -3 -61h-366c6 -126 59 -170 174 -170c59 0 111 11 162 33l15 -105c-51 -25 -117 -41 -192 -41zM170 358h255c-2 106 -50 146 -125 146c-87 0 -124 -44 -130 -146zM292 803
h148l-117 -145h-97z" />
    <glyph glyph-name="ecircumflex" unicode="&#xea;" horiz-adv-x="582" 
d="M332 -11c-203 0 -291 107 -291 323c0 191 84 300 258 300c148 0 243 -87 243 -279c0 -19 -1 -43 -3 -61h-366c6 -126 59 -170 174 -170c59 0 111 11 162 33l15 -105c-51 -25 -117 -41 -192 -41zM170 358h255c-2 106 -50 146 -125 146c-87 0 -124 -44 -130 -146zM242 803
h112l102 -145h-97l-60 92l-61 -92h-96z" />
    <glyph glyph-name="edieresis" unicode="&#xeb;" horiz-adv-x="582" 
d="M332 -11c-203 0 -291 107 -291 323c0 191 84 300 258 300c148 0 243 -87 243 -279c0 -19 -1 -43 -3 -61h-366c6 -126 59 -170 174 -170c59 0 111 11 162 33l15 -105c-51 -25 -117 -41 -192 -41zM170 358h255c-2 106 -50 146 -125 146c-87 0 -124 -44 -130 -146zM262 743
c0 -38 -18 -57 -57 -57c-38 0 -56 15 -56 57c0 38 18 58 56 58c39 0 57 -20 57 -58zM434 743c0 -38 -17 -57 -56 -57c-38 0 -57 15 -57 57c0 38 19 58 57 58c39 0 56 -20 56 -58z" />
    <glyph glyph-name="igrave" unicode="&#xec;" horiz-adv-x="316" 
d="M222 0h-129v598l129 7v-605zM224 658h-98l-114 145h148z" />
    <glyph glyph-name="iacute" unicode="&#xed;" horiz-adv-x="316" 
d="M222 0h-129v598l129 7v-605zM152 803h148l-117 -145h-97z" />
    <glyph glyph-name="icircumflex" unicode="&#xee;" horiz-adv-x="316" 
d="M222 0h-129v598l129 7v-605zM102 803h112l102 -145h-97l-60 92l-61 -92h-96z" />
    <glyph glyph-name="idieresis" unicode="&#xef;" horiz-adv-x="316" 
d="M222 0h-129v598l129 7v-605zM133 743c0 -38 -18 -57 -57 -57c-38 0 -56 15 -56 57c0 38 18 58 56 58c39 0 57 -20 57 -58zM305 743c0 -38 -17 -57 -56 -57c-38 0 -57 15 -57 57c0 38 19 58 57 58c39 0 56 -20 56 -58z" />
    <glyph glyph-name="eth" unicode="&#xf0;" horiz-adv-x="621" 
d="M475 744l-73 -48c100 -96 177 -228 177 -362c0 -248 -90 -345 -267 -345c-165 0 -271 68 -271 295c0 181 77 271 237 271c53 0 98 -10 135 -33l2 2c-26 43 -59 81 -98 116l-88 -58l-46 50l78 53c-29 20 -59 38 -90 55l87 61c30 -15 60 -35 90 -57l83 56zM173 279
c0 -146 48 -182 135 -182c93 0 139 60 139 209c0 99 -46 140 -138 140c-98 0 -136 -44 -136 -167z" />
    <glyph glyph-name="ntilde" unicode="&#xf1;" horiz-adv-x="625" 
d="M561 0h-127v389c0 76 -41 108 -115 108c-45 0 -95 -20 -120 -55v-442h-127v599l91 7l20 -58c45 42 106 65 171 65c127 0 207 -77 207 -223v-390zM218 674l-60 1c5 74 40 127 96 127c65 0 90 -59 132 -59c19 0 31 18 38 48l59 -1c-4 -76 -42 -126 -96 -126
c-63 0 -90 58 -131 58c-18 0 -32 -20 -38 -48z" />
    <glyph glyph-name="ograve" unicode="&#xf2;" horiz-adv-x="620" 
d="M578 299c0 -223 -80 -313 -267 -313c-186 0 -270 90 -270 313c0 222 84 314 270 314c187 0 267 -92 267 -314zM173 299c0 -158 39 -206 138 -206s136 48 136 206s-37 206 -136 206c-100 0 -138 -48 -138 -206zM376 658h-98l-114 145h148z" />
    <glyph glyph-name="oacute" unicode="&#xf3;" horiz-adv-x="620" 
d="M578 299c0 -223 -80 -313 -267 -313c-186 0 -270 90 -270 313c0 222 84 314 270 314c187 0 267 -92 267 -314zM173 299c0 -158 39 -206 138 -206s136 48 136 206s-37 206 -136 206c-100 0 -138 -48 -138 -206zM304 803h148l-117 -145h-97z" />
    <glyph glyph-name="ocircumflex" unicode="&#xf4;" horiz-adv-x="620" 
d="M578 299c0 -223 -80 -313 -267 -313c-186 0 -270 90 -270 313c0 222 84 314 270 314c187 0 267 -92 267 -314zM173 299c0 -158 39 -206 138 -206s136 48 136 206s-37 206 -136 206c-100 0 -138 -48 -138 -206zM254 803h112l102 -145h-97l-60 92l-61 -92h-96z" />
    <glyph glyph-name="otilde" unicode="&#xf5;" horiz-adv-x="620" 
d="M578 299c0 -223 -80 -313 -267 -313c-186 0 -270 90 -270 313c0 222 84 314 270 314c187 0 267 -92 267 -314zM173 299c0 -158 39 -206 138 -206s136 48 136 206s-37 206 -136 206c-100 0 -138 -48 -138 -206zM211 674l-60 1c5 74 40 127 96 127c65 0 90 -59 132 -59
c19 0 31 18 38 48l59 -1c-4 -76 -42 -126 -96 -126c-63 0 -90 58 -131 58c-18 0 -32 -20 -38 -48z" />
    <glyph glyph-name="odieresis" unicode="&#xf6;" horiz-adv-x="620" 
d="M578 299c0 -223 -80 -313 -267 -313c-186 0 -270 90 -270 313c0 222 84 314 270 314c187 0 267 -92 267 -314zM173 299c0 -158 39 -206 138 -206s136 48 136 206s-37 206 -136 206c-100 0 -138 -48 -138 -206zM281 743c0 -38 -18 -57 -57 -57c-38 0 -56 15 -56 57
c0 38 18 58 56 58c39 0 57 -20 57 -58zM453 743c0 -38 -17 -57 -56 -57c-38 0 -57 15 -57 57c0 38 19 58 57 58c39 0 56 -20 56 -58z" />
    <glyph glyph-name="divide" unicode="&#xf7;" horiz-adv-x="600" 
d="M381 517c0 -44 -28 -67 -81 -67s-82 16 -82 67c0 44 29 67 82 67s81 -23 81 -67zM381 157c0 -44 -28 -66 -81 -66s-82 15 -82 66c0 45 29 67 82 67s81 -22 81 -67zM539 277h-478v120h478v-120z" />
    <glyph glyph-name="oslash" unicode="&#xf8;" horiz-adv-x="620" 
d="M88 -10l-53 51l44 56c-26 49 -38 115 -38 202c0 222 84 314 269 314c73 0 129 -14 171 -44l37 47l54 -51l-40 -51c31 -50 46 -121 46 -215c0 -223 -81 -313 -268 -313c-79 0 -139 16 -183 51zM446 299c0 43 -3 77 -7 106l-239 -263c22 -36 58 -49 111 -49
c98 0 135 48 135 206zM172 299c0 -35 2 -64 5 -89l234 257c-22 27 -55 38 -101 38c-100 0 -138 -48 -138 -206z" />
    <glyph glyph-name="ugrave" unicode="&#xf9;" horiz-adv-x="617" 
d="M553 602v-396c0 -141 -80 -217 -245 -217s-244 79 -244 217v396h127v-393c0 -69 38 -105 118 -105c78 0 117 35 117 105v393h127zM376 658h-98l-114 145h148z" />
    <glyph glyph-name="uacute" unicode="&#xfa;" horiz-adv-x="617" 
d="M553 602v-396c0 -141 -80 -217 -245 -217s-244 79 -244 217v396h127v-393c0 -69 38 -105 118 -105c78 0 117 35 117 105v393h127zM303 803h148l-117 -145h-97z" />
    <glyph glyph-name="ucircumflex" unicode="&#xfb;" horiz-adv-x="617" 
d="M553 602v-396c0 -141 -80 -217 -245 -217s-244 79 -244 217v396h127v-393c0 -69 38 -105 118 -105c78 0 117 35 117 105v393h127zM253 803h112l102 -145h-97l-60 92l-61 -92h-96z" />
    <glyph glyph-name="udieresis" unicode="&#xfc;" horiz-adv-x="617" 
d="M553 602v-396c0 -141 -80 -217 -245 -217s-244 79 -244 217v396h127v-393c0 -69 38 -105 118 -105c78 0 117 35 117 105v393h127zM279 743c0 -38 -18 -57 -57 -57c-38 0 -56 15 -56 57c0 38 18 58 56 58c39 0 57 -20 57 -58zM451 743c0 -38 -17 -57 -56 -57
c-38 0 -57 15 -57 57c0 38 19 58 57 58c39 0 56 -20 56 -58z" />
    <glyph glyph-name="yacute" unicode="&#xfd;" horiz-adv-x="646" 
d="M184 -67c43 0 75 15 98 66l3 9l-261 594h146l149 -400l27 -76h3l20 78l117 398h136l-213 -604c-44 -118 -108 -162 -203 -162c-35 0 -69 6 -98 19l11 93c22 -11 43 -15 65 -15zM318 803h148l-117 -145h-97z" />
    <glyph glyph-name="thorn" unicode="&#xfe;" horiz-adv-x="633" 
d="M591 302c0 -217 -89 -313 -232 -313c-57 0 -111 14 -152 54l-3 -1l2 -81v-112h-129v934l128 7v-160l-2 -80l3 -2c41 40 99 64 164 64c139 0 221 -79 221 -310zM458 303c0 153 -41 194 -129 194c-54 0 -97 -22 -123 -59v-279c21 -34 60 -61 119 -61c80 0 133 38 133 205z
" />
    <glyph glyph-name="ydieresis" unicode="&#xff;" horiz-adv-x="646" 
d="M184 -67c43 0 75 15 98 66l3 9l-261 594h146l149 -400l27 -76h3l20 78l117 398h136l-213 -604c-44 -118 -108 -162 -203 -162c-35 0 -69 6 -98 19l11 93c22 -11 43 -15 65 -15zM295 743c0 -38 -18 -57 -57 -57c-38 0 -56 15 -56 57c0 38 18 58 56 58c39 0 57 -20 57 -58z
M467 743c0 -38 -17 -57 -56 -57c-38 0 -57 15 -57 57c0 38 19 58 57 58c39 0 56 -20 56 -58z" />
    <glyph glyph-name="dotlessi" unicode="&#x131;" horiz-adv-x="316" 
d="M222 0h-129v598l129 7v-605z" />
    <glyph glyph-name="IJ" unicode="&#x132;" horiz-adv-x="865" 
d="M96 0v750h140v-750h-140zM782 750v-485c0 -198 -106 -279 -283 -279c-63 0 -112 14 -150 36l9 120c29 -20 70 -32 121 -32c105 0 162 48 162 158v482h141z" />
    <glyph glyph-name="ij" unicode="&#x133;" horiz-adv-x="608" 
d="M223 0h-129v598l129 7v-605zM235 741c0 -40 -24 -59 -76 -59c-51 0 -76 15 -76 59c0 39 25 61 76 61c52 0 76 -22 76 -61zM527 605v-606c0 -122 -71 -161 -159 -161c-27 0 -55 5 -77 13l7 92c13 -4 26 -6 39 -6c37 0 63 19 63 66v595zM537 742c0 -40 -23 -59 -75 -59
s-76 15 -76 59c0 40 24 60 76 60s75 -20 75 -60z" />
    <glyph glyph-name="Lslash" unicode="&#x141;" horiz-adv-x="601" 
d="M253 127h327l-3 -127h-463v286l-73 -32l-10 112l83 37v347h139v-292l195 87l12 -117l-207 -88v-213z" />
    <glyph glyph-name="lslash" unicode="&#x142;" horiz-adv-x="366" 
d="M36 335l-1 112l81 41v295l128 7v-248l88 46l1 -109l-89 -47v-432h-128v377z" />
    <glyph glyph-name="OE" unicode="&#x152;" horiz-adv-x="1082" 
d="M1040 0h-482v72l-3 1c-44 -60 -115 -87 -208 -87c-201 0 -296 119 -296 389s92 387 297 387c89 0 162 -24 208 -78h2v66h466l3 -125h-345v-181h292v-113h-292v-208h361zM547 375c0 208 -44 261 -175 261c-128 0 -176 -54 -176 -261s48 -262 177 -262s174 56 174 262z" />
    <glyph glyph-name="oe" unicode="&#x153;" horiz-adv-x="991" 
d="M745 -11c-114 0 -183 31 -225 98c-38 -70 -107 -101 -214 -101c-177 0 -260 90 -260 313c0 222 85 314 260 314c106 0 173 -31 211 -92c38 59 101 91 195 91c144 0 239 -87 239 -279c0 -19 -2 -43 -4 -61h-364c6 -126 59 -170 173 -170c58 0 111 12 162 35l15 -107
c-51 -25 -118 -41 -188 -41zM178 299c0 -158 38 -206 138 -206c99 0 135 48 135 206s-36 206 -135 206c-100 0 -138 -48 -138 -206zM580 358h254c-2 106 -52 146 -125 146c-87 0 -124 -44 -129 -146z" />
    <glyph glyph-name="Scaron" unicode="&#x160;" horiz-adv-x="573" 
d="M539 220c0 -145 -98 -234 -268 -234c-86 0 -164 21 -226 56l19 123c63 -36 130 -56 206 -56c93 0 136 37 136 102c0 141 -357 80 -357 331c0 122 79 221 260 221c74 0 149 -15 205 -40l-18 -119c-61 22 -120 34 -180 34c-102 0 -134 -41 -134 -89
c0 -137 357 -74 357 -329zM378 794h-136l-108 120h114l63 -78l63 78h113z" />
    <glyph glyph-name="scaron" unicode="&#x161;" horiz-adv-x="495" 
d="M458 183c0 -117 -66 -195 -222 -195c-72 0 -137 15 -187 45l15 108c47 -31 117 -47 172 -47c73 0 104 33 104 77c0 114 -293 55 -293 263c0 105 73 178 220 178c60 0 117 -12 167 -34l-11 -106c-50 21 -112 31 -158 31c-60 0 -96 -24 -96 -64c0 -106 289 -47 289 -256z
M314 658h-112l-100 145h96l60 -94l60 94h98z" />
    <glyph glyph-name="Ydieresis" unicode="&#x178;" horiz-adv-x="685" 
d="M13 750h156l144 -306l33 -73h3l31 74l141 305h151l-257 -504v-246h-141v246zM304 851c0 -36 -18 -54 -56 -54s-57 14 -57 54c0 36 19 55 57 55s56 -19 56 -55zM499 851c0 -36 -17 -54 -56 -54c-37 0 -56 14 -56 54c0 36 19 55 56 55c39 0 56 -19 56 -55z" />
    <glyph glyph-name="Zcaron" unicode="&#x17d;" horiz-adv-x="617" 
d="M570 0h-529v92l316 464l46 64l-1 2h-352l5 128h515v-104l-309 -453l-46 -63l1 -3h356zM382 794h-136l-108 120h114l63 -78l63 78h113z" />
    <glyph glyph-name="zcaron" unicode="&#x17e;" horiz-adv-x="540" 
d="M487 511l-241 -338l-48 -62l1 -3h295l-4 -108h-440v91l242 337l48 63l-1 2h-280l5 109h423v-91zM331 658h-112l-100 145h96l60 -94l60 94h98z" />
    <glyph glyph-name="longs" unicode="&#x17f;" horiz-adv-x="320" 
d="M5 508l4 86h75c1 149 66 211 263 211l6 -88c-100 0 -144 -20 -144 -124v-501c0 -173 -89 -236 -236 -250l-8 87c84 13 119 48 119 163v416h-79z" />
    <glyph glyph-name="florin" unicode="&#x192;" horiz-adv-x="419" 
d="M111 -151h-126l141 653h-63l21 99h62l9 43c18 83 85 144 202 144c32 0 66 -6 88 -13l-26 -85c-16 5 -36 8 -54 8c-49 0 -75 -20 -83 -56l-8 -41h131l-20 -99h-132z" />
    <glyph glyph-name="uni02BB" unicode="&#x2bb;" horiz-adv-x="244" 
d="M123 542c-53 0 -76 31 -76 75c0 54 44 151 82 205l46 -11l-26 -122c25 -10 48 -37 48 -69c0 -45 -20 -78 -74 -78z" />
    <glyph glyph-name="afii57929" unicode="&#x2bc;" horiz-adv-x="244" 
d="M121 784c53 0 76 -31 76 -75c0 -54 -44 -151 -82 -205l-46 11l26 122c-25 10 -48 37 -48 69c0 45 20 78 74 78z" />
    <glyph glyph-name="circumflex" unicode="&#x2c6;" 
d="M145 803h112l102 -145h-97l-60 92l-61 -92h-96z" />
    <glyph glyph-name="caron" unicode="&#x2c7;" 
d="M258 658h-112l-100 145h96l60 -94l60 94h98z" />
    <glyph glyph-name="breve" unicode="&#x2d8;" 
d="M264 803h88c0 -96 -46 -153 -151 -153c-109 0 -151 57 -151 153h87c0 -60 26 -84 64 -84c37 0 63 23 63 84z" />
    <glyph glyph-name="dotaccent" unicode="&#x2d9;" 
d="M277 742c0 -40 -24 -59 -76 -59c-51 0 -76 15 -76 59c0 40 25 60 76 60c52 0 76 -20 76 -60z" />
    <glyph glyph-name="ring" unicode="&#x2da;" 
d="M88 743c0 53 34 86 114 86c78 0 115 -35 115 -86c0 -56 -37 -86 -115 -86c-75 0 -114 27 -114 86zM151 743c0 -22 14 -35 53 -35c35 0 52 13 52 35c0 21 -15 35 -52 35c-39 0 -53 -14 -53 -35z" />
    <glyph glyph-name="ogonek" unicode="&#x2db;" 
d="M257 -186c-81 0 -115 39 -115 88c0 57 39 97 103 117l51 -19c-39 -13 -58 -38 -58 -66c0 -24 16 -39 54 -40c21 0 38 4 54 13l10 -69c-27 -15 -59 -24 -99 -24z" />
    <glyph glyph-name="tilde" unicode="&#x2dc;" 
d="M105 674l-60 1c5 74 40 127 96 127c65 0 90 -59 132 -59c19 0 31 18 38 48l59 -1c-4 -76 -42 -126 -96 -126c-63 0 -90 58 -131 58c-18 0 -32 -20 -38 -48z" />
    <glyph glyph-name="hungarumlaut" unicode="&#x2dd;" 
d="M140 803h132l-108 -145h-83zM319 803h134l-118 -145h-94z" />
    <glyph glyph-name="uni0394" unicode="&#x394;" horiz-adv-x="748" 
d="M420 753l292 -753h-677l292 753h93zM372 592l-27 -77l-151 -401h354l-147 401l-26 77h-3z" />
    <glyph glyph-name="uni03A9" unicode="&#x3a9;" horiz-adv-x="744" 
d="M372 761c198 0 315 -99 315 -324c0 -129 -54 -243 -164 -321v-3h169v-113h-286v163c81 63 137 148 137 268c0 147 -54 205 -171 205s-171 -58 -171 -205c0 -120 56 -204 137 -268v-163h-286v113h169l1 3c-111 76 -165 188 -165 321c0 220 117 324 315 324z" />
    <glyph glyph-name="uni03BC" unicode="&#x3bc;" horiz-adv-x="625" 
d="M324 -10c-59 0 -110 24 -140 74l-2 -1c4 -74 8 -144 14 -211l-124 -10v760h127v-392c0 -66 50 -105 121 -105c66 0 113 32 113 94v403h127v-599l-90 -8l-17 49h-3c-26 -34 -72 -54 -126 -54z" />
    <glyph glyph-name="pi" unicode="&#x3c0;" horiz-adv-x="678" 
d="M426 160v330h-171v-490h-127v488c-38 -2 -63 -8 -80 -20l-31 101c29 21 83 33 160 33h459v-112h-84v-330c0 -51 15 -67 65 -67v-98c-153 0 -191 44 -191 165z" />
    <glyph glyph-name="uni2007" unicode="&#x2007;" horiz-adv-x="645" 
 />
    <glyph glyph-name="uni2008" unicode="&#x2008;" horiz-adv-x="261" 
 />
    <glyph glyph-name="uni200B" unicode="&#x200b;" horiz-adv-x="0" 
 />
    <glyph glyph-name="endash" unicode="&#x2013;" horiz-adv-x="524" 
d="M60 389h403v-95h-403v95z" />
    <glyph glyph-name="emdash" unicode="&#x2014;" horiz-adv-x="702" 
d="M60 389h582v-95h-582v95z" />
    <glyph glyph-name="quoteleft" unicode="&#x2018;" horiz-adv-x="244" 
d="M123 542c-53 0 -76 31 -76 75c0 54 44 151 82 205l46 -11l-26 -122c25 -10 48 -37 48 -69c0 -45 -20 -78 -74 -78z" />
    <glyph glyph-name="quoteright" unicode="&#x2019;" horiz-adv-x="244" 
d="M121 784c53 0 76 -31 76 -75c0 -54 -44 -151 -82 -205l-46 11l26 122c-25 10 -48 37 -48 69c0 45 20 78 74 78z" />
    <glyph glyph-name="quotesinglbase" unicode="&#x201a;" horiz-adv-x="244" 
d="M121 137c53 0 76 -31 76 -75c0 -54 -44 -151 -82 -205l-46 11l26 122c-25 10 -48 37 -48 69c0 45 20 78 74 78z" />
    <glyph glyph-name="quotedblleft" unicode="&#x201c;" horiz-adv-x="446" 
d="M325 542c-53 0 -76 31 -76 75c0 54 44 151 82 205l46 -11l-26 -122c25 -10 48 -37 48 -69c0 -45 -20 -78 -74 -78zM123 542c-53 0 -76 31 -76 75c0 54 44 151 82 205l46 -11l-26 -122c25 -10 48 -37 48 -69c0 -45 -20 -78 -74 -78z" />
    <glyph glyph-name="quotedblright" unicode="&#x201d;" horiz-adv-x="446" 
d="M121 784c53 0 76 -31 76 -75c0 -54 -44 -151 -82 -205l-46 11l26 122c-25 10 -48 37 -48 69c0 45 20 78 74 78zM323 784c53 0 76 -31 76 -75c0 -54 -44 -151 -82 -205l-46 11l26 122c-25 10 -48 37 -48 69c0 45 20 78 74 78z" />
    <glyph glyph-name="quotedblbase" unicode="&#x201e;" horiz-adv-x="446" 
d="M121 137c53 0 76 -31 76 -75c0 -54 -44 -151 -82 -205l-46 11l26 122c-25 10 -48 37 -48 69c0 45 20 78 74 78zM323 137c53 0 76 -31 76 -75c0 -54 -44 -151 -82 -205l-46 11l26 122c-25 10 -48 37 -48 69c0 45 20 78 74 78z" />
    <glyph glyph-name="dagger" unicode="&#x2020;" horiz-adv-x="496" 
d="M36 609l158 -9l-11 189h126l-9 -189l159 9v-122l-159 8l9 -641h-126l11 641l-158 -8v122z" />
    <glyph glyph-name="daggerdbl" unicode="&#x2021;" horiz-adv-x="496" 
d="M459 161v-121l-159 9l9 -195h-126l11 195l-158 -9v121l159 -8l-1 343l-158 -9v122l158 -9l-11 189h126l-9 -189l159 9v-122l-159 9v-343z" />
    <glyph glyph-name="bullet" unicode="&#x2022;" horiz-adv-x="410" 
d="M56 322c0 101 48 150 146 150c99 0 148 -49 148 -150c0 -102 -49 -151 -148 -151c-98 0 -146 49 -146 151z" />
    <glyph glyph-name="ellipsis" unicode="&#x2026;" horiz-adv-x="700" 
d="M646 64c0 -47 -24 -75 -77 -75c-54 0 -77 21 -77 75c0 49 23 76 77 76c53 0 77 -27 77 -76zM431 64c0 -47 -24 -75 -77 -75c-54 0 -77 21 -77 75c0 49 23 76 77 76c53 0 77 -27 77 -76zM208 64c0 -47 -24 -75 -77 -75c-54 0 -77 21 -77 75c0 49 23 76 77 76
c53 0 77 -27 77 -76z" />
    <glyph glyph-name="perthousand" unicode="&#x2030;" horiz-adv-x="1052" 
d="M338 586c0 -119 -51 -175 -150 -175c-103 0 -149 57 -149 175c0 122 44 174 150 174c98 0 149 -47 149 -174zM253 587c0 73 -21 93 -64 93c-44 0 -65 -19 -65 -93s21 -93 65 -93c43 0 64 19 64 93zM519 723l75 -59l-399 -642l-75 58zM687 165c0 -119 -51 -175 -150 -175
c-103 0 -150 57 -150 175c0 122 44 177 150 177c99 0 150 -50 150 -177zM602 165c0 73 -21 92 -65 92c-43 0 -64 -18 -64 -92c0 -72 21 -91 64 -91c44 0 65 18 65 91zM1014 165c0 -119 -51 -175 -151 -175c-103 0 -149 57 -149 175c0 122 44 177 150 177
c99 0 150 -50 150 -177zM929 165c0 73 -22 92 -65 92c-44 0 -65 -18 -65 -92c0 -72 22 -91 65 -91c44 0 65 18 65 91z" />
    <glyph glyph-name="guilsinglleft" unicode="&#x2039;" horiz-adv-x="399" 
d="M340 432l-175 -109l175 -110v-101l-302 206v10l302 206v-102z" />
    <glyph glyph-name="guilsinglright" unicode="&#x203a;" horiz-adv-x="399" 
d="M59 112v101l174 110l-174 109v102l303 -206v-10z" />
    <glyph glyph-name="fraction" unicode="&#x2044;" horiz-adv-x="298" 
d="M372 750h92l-501 -750h-91z" />
    <glyph glyph-name="uni2070" unicode="&#x2070;" horiz-adv-x="376" 
d="M350 689c0 -139 -48 -201 -162 -201c-113 0 -161 62 -161 201c0 145 48 204 162 204c113 0 161 -59 161 -204zM259 690c0 104 -23 127 -70 127c-50 0 -71 -24 -71 -127c0 -104 21 -127 71 -127c47 0 70 23 70 127z" />
    <glyph glyph-name="uni2074" unicode="&#x2074;" horiz-adv-x="376" 
d="M359 568h-41v-75h-85v75h-203l-7 53l184 266h111v-245h44zM235 642l2 84l4 80h-3l-65 -98l-46 -63l1 -3h107z" />
    <glyph glyph-name="uni2075" unicode="&#x2075;" horiz-adv-x="376" 
d="M343 629c0 -86 -45 -141 -158 -141c-50 0 -96 9 -135 29l15 71c37 -17 68 -26 113 -26c55 0 75 20 75 60c0 34 -23 50 -73 50c-32 0 -66 -5 -90 -13l-36 31l19 197h248l2 -78h-178l-6 -70c20 3 41 6 63 6c91 0 141 -39 141 -116z" />
    <glyph glyph-name="uni2076" unicode="&#x2076;" horiz-adv-x="376" 
d="M348 630c0 -94 -55 -142 -154 -142c-105 0 -164 58 -164 193c0 137 66 212 190 212c40 0 72 -5 104 -17l-6 -73c-29 9 -53 13 -86 13c-69 0 -101 -28 -111 -87l2 -2c24 14 54 22 87 22c91 0 138 -39 138 -119zM257 631c0 34 -18 51 -63 51c-22 0 -55 -9 -69 -25
c1 -69 20 -94 70 -94c42 0 62 22 62 68z" />
    <glyph glyph-name="uni2077" unicode="&#x2077;" horiz-adv-x="376" 
d="M346 887v-78l-163 -316h-107l172 310h-218l5 84h311z" />
    <glyph glyph-name="uni2078" unicode="&#x2078;" horiz-adv-x="376" 
d="M27 609c0 36 21 69 60 90c-26 18 -43 45 -43 87c0 66 43 107 145 107c101 0 144 -41 144 -107c0 -35 -18 -63 -45 -83c34 -17 61 -44 61 -94c0 -79 -53 -121 -160 -121c-112 0 -162 43 -162 121zM258 603c0 34 -40 47 -98 63c-24 -13 -43 -32 -43 -58
c0 -35 21 -50 74 -50c40 0 67 12 67 45zM130 782c0 -32 39 -42 84 -54c23 13 36 29 36 50c0 30 -18 46 -62 46c-40 0 -58 -15 -58 -42z" />
    <glyph glyph-name="uni2079" unicode="&#x2079;" horiz-adv-x="376" 
d="M344 706c0 -150 -60 -218 -181 -218c-49 0 -78 8 -109 19l13 73c30 -12 55 -17 91 -17c65 0 98 31 104 105l-2 1c-22 -18 -52 -27 -87 -27c-102 0 -143 50 -143 120c0 76 48 131 151 131c112 0 163 -65 163 -187zM253 734c0 64 -23 85 -73 85c-41 0 -63 -18 -63 -54
s18 -56 67 -56c30 0 57 10 69 25z" />
    <glyph glyph-name="uni207A" unicode="&#x207a;" horiz-adv-x="378" 
d="M335 653h-110v-108h-74v108h-109v80h109v109h74v-109h110v-80z" />
    <glyph glyph-name="uni207B" unicode="&#x207b;" horiz-adv-x="378" 
d="M329 659h-283v76h283v-76z" />
    <glyph glyph-name="uni207C" unicode="&#x207c;" horiz-adv-x="378" 
d="M329 724h-279v67h279v-67zM329 598h-279v68h279v-68z" />
    <glyph glyph-name="uni207D" unicode="&#x207d;" horiz-adv-x="215" 
d="M148 918l61 -6c-45 -66 -69 -147 -69 -237c0 -91 24 -171 69 -237l-61 -6c-60 60 -91 146 -91 243c0 99 30 181 91 243z" />
    <glyph glyph-name="uni207E" unicode="&#x207e;" horiz-adv-x="215" 
d="M6 912l62 6c61 -62 90 -144 90 -243c0 -97 -31 -183 -90 -243l-62 6c44 66 69 146 69 237c0 90 -24 171 -69 237z" />
    <glyph glyph-name="uni2080" unicode="&#x2080;" horiz-adv-x="376" 
d="M350 45c0 -139 -48 -201 -162 -201c-113 0 -161 62 -161 201c0 145 48 204 162 204c113 0 161 -59 161 -204zM259 46c0 104 -23 127 -70 127c-50 0 -71 -24 -71 -127c0 -104 21 -127 71 -127c47 0 70 23 70 127z" />
    <glyph glyph-name="uni2081" unicode="&#x2081;" horiz-adv-x="279" 
d="M219 245v-396h-92v206l3 79l-3 1l-81 -47l-8 75l124 82h57z" />
    <glyph glyph-name="uni2082" unicode="&#x2082;" horiz-adv-x="364" 
d="M330 130c0 -77 -69 -130 -170 -201v-3h170l-1 -77h-287v60c107 95 192 155 192 213c0 27 -19 48 -68 48c-39 0 -72 -14 -107 -36l-22 73c38 25 87 41 146 41c100 0 147 -48 147 -118z" />
    <glyph glyph-name="uni2083" unicode="&#x2083;" horiz-adv-x="364" 
d="M333 -33c0 -76 -50 -123 -165 -123c-55 0 -101 14 -134 33l20 70c33 -19 71 -30 114 -30c52 0 76 22 76 55s-22 50 -115 50v63c88 0 109 18 109 48c0 26 -22 40 -69 40c-45 0 -80 -11 -114 -34l-21 68c34 24 85 41 139 41c96 0 151 -40 151 -108c0 -42 -22 -69 -60 -84
v-2c44 -14 69 -41 69 -87z" />
    <glyph glyph-name="uni2084" unicode="&#x2084;" horiz-adv-x="376" 
d="M359 -76h-41v-75h-85v75h-203l-7 53l184 266h111v-245h44zM235 -2l2 85l4 80h-3l-66 -98l-45 -64l1 -3h107z" />
    <glyph glyph-name="uni2085" unicode="&#x2085;" horiz-adv-x="376" 
d="M343 -15c0 -86 -45 -141 -158 -141c-50 0 -96 9 -135 29l15 71c37 -17 68 -26 113 -26c55 0 75 20 75 60c0 34 -23 50 -73 50c-32 0 -66 -5 -90 -13l-36 31l19 197h248l2 -78h-178l-6 -70c20 3 41 6 63 6c91 0 141 -40 141 -116z" />
    <glyph glyph-name="uni2086" unicode="&#x2086;" horiz-adv-x="376" 
d="M348 -14c0 -94 -55 -142 -154 -142c-105 0 -164 58 -164 193c0 137 66 212 190 212c40 0 72 -5 104 -17l-6 -74c-29 10 -53 13 -86 13c-69 0 -101 -28 -111 -87l2 -2c24 14 54 22 87 22c91 0 138 -38 138 -118zM257 -14c0 35 -18 52 -63 52c-22 0 -55 -9 -69 -26
c1 -68 20 -93 70 -93c42 0 62 22 62 67z" />
    <glyph glyph-name="uni2087" unicode="&#x2087;" horiz-adv-x="376" 
d="M346 243v-78l-163 -316h-107l172 310h-218l5 84h311z" />
    <glyph glyph-name="uni2088" unicode="&#x2088;" horiz-adv-x="376" 
d="M27 -35c0 36 21 69 60 90c-26 19 -43 45 -43 87c0 66 43 107 145 107c101 0 144 -41 144 -107c0 -35 -18 -63 -45 -83c35 -17 61 -44 61 -94c0 -79 -53 -121 -160 -121c-112 0 -162 43 -162 121zM258 -42c0 38 -48 48 -98 64c-24 -14 -43 -32 -43 -58
c0 -35 21 -50 74 -50c40 0 67 12 67 44zM130 138c0 -33 39 -42 85 -54c22 14 35 29 35 50c0 29 -18 46 -62 46c-40 0 -58 -15 -58 -42z" />
    <glyph glyph-name="uni2089" unicode="&#x2089;" horiz-adv-x="376" 
d="M344 62c0 -150 -60 -218 -181 -218c-49 0 -78 7 -109 19l13 73c30 -12 55 -17 91 -17c65 0 98 32 104 105l-2 1c-22 -18 -52 -28 -87 -28c-102 0 -143 50 -143 121c0 76 48 131 151 131c112 0 163 -65 163 -187zM253 90c0 64 -23 85 -73 85c-41 0 -63 -18 -63 -54
s18 -57 67 -57c30 0 57 11 69 26z" />
    <glyph glyph-name="uni208A" unicode="&#x208a;" horiz-adv-x="378" 
d="M335 9h-110v-109h-74v109h-109v79h109v110h74v-110h110v-79z" />
    <glyph glyph-name="uni208B" unicode="&#x208b;" horiz-adv-x="378" 
d="M329 14h-283v77h283v-77z" />
    <glyph glyph-name="uni208C" unicode="&#x208c;" horiz-adv-x="378" 
d="M329 79h-279v68h279v-68zM329 -46h-279v68h279v-68z" />
    <glyph glyph-name="uni208D" unicode="&#x208d;" horiz-adv-x="215" 
d="M148 276l61 -6c-45 -66 -69 -147 -69 -237c0 -91 24 -171 69 -237l-61 -6c-60 60 -91 146 -91 243c0 99 30 181 91 243z" />
    <glyph glyph-name="uni208E" unicode="&#x208e;" horiz-adv-x="215" 
d="M6 270l62 6c61 -62 90 -144 90 -243c0 -97 -31 -183 -90 -243l-62 6c44 66 69 146 69 237c0 90 -24 171 -69 237z" />
    <glyph glyph-name="franc" unicode="&#x20a3;" horiz-adv-x="645" 
d="M26 192h76v558h477l3 -128h-342v-183h264l-1 -121h-263v-126h82v-95h-82v-97h-138v97h-76v95z" />
    <glyph glyph-name="lira" unicode="&#x20a4;" horiz-adv-x="645" 
d="M83 396l-5 74h32c-6 23 -10 46 -10 73c0 117 71 219 280 219c75 0 136 -15 183 -34l-16 -118c-40 17 -97 30 -153 30c-115 0 -158 -53 -158 -118c0 -18 2 -35 5 -52h275v-74h-254c5 -16 9 -32 13 -50h241v-73h-232c0 -5 1 -10 1 -15c0 -66 -27 -116 -71 -144l1 -2
c59 13 123 17 195 17c67 0 128 -4 189 -12l-7 -124c-85 10 -159 15 -242 15c-95 0 -174 -3 -281 -13l-7 120c61 16 96 74 96 137c0 7 0 14 -1 21h-69l-3 73h62c-4 17 -9 34 -14 50h-50z" />
    <glyph glyph-name="peseta" unicode="&#x20a7;" horiz-adv-x="645" 
d="M627 467h-52c-10 -139 -86 -209 -258 -209h-110v-258h-129v467h-53v67h53v216h239c172 0 249 -65 259 -216h52zM206 636v-102h237c-7 77 -46 102 -126 102h-111zM317 367c77 0 118 21 126 100h-237v-100h111z" />
    <glyph glyph-name="Euro" unicode="&#x20ac;" horiz-adv-x="645" 
d="M503 346l-17 -71h-227c22 -123 89 -172 203 -172c52 0 105 16 151 39l10 -105c-50 -29 -117 -46 -196 -46c-184 0 -282 91 -307 284h-86v71h80v52h-80v73h86c26 176 135 284 315 284c72 0 134 -12 179 -33l-27 -112c-39 15 -74 23 -123 23c-115 0 -181 -54 -203 -162h279
l-17 -73h-271v-52h251z" />
    <glyph glyph-name="trademark" unicode="&#x2122;" horiz-adv-x="679" 
d="M638 480h-66v115l2 81l-3 1l-28 -77l-46 -120h-56l-47 119l-28 76l-2 -1l1 -81v-113h-66v283h96l47 -118l28 -75h3l27 76l46 117h92v-283zM264 694h-80v-214h-78v214h-80v69h238v-69z" />
    <glyph glyph-name="Omega" unicode="&#x2126;" horiz-adv-x="744" 
d="M372 761c198 0 315 -99 315 -324c0 -129 -54 -243 -164 -321v-3h169v-113h-286v163c81 63 137 148 137 268c0 147 -54 205 -171 205s-171 -58 -171 -205c0 -120 56 -204 137 -268v-163h-286v113h169l1 3c-111 76 -165 188 -165 321c0 220 117 324 315 324z" />
    <glyph glyph-name="uni2150" unicode="&#x2150;" horiz-adv-x="953" 
d="M219 751v-395h-92v205l3 79l-3 1l-81 -47l-8 76l124 81h57zM651 750h92l-501 -750h-91zM923 394v-78l-163 -316h-107l172 310h-218l5 84h311z" />
    <glyph glyph-name="uni2151" unicode="&#x2151;" horiz-adv-x="953" 
d="M219 751v-395h-92v205l3 79l-3 1l-81 -47l-8 76l124 81h57zM651 750h92l-501 -750h-91zM921 213c0 -150 -60 -218 -181 -218c-49 0 -78 7 -109 19l13 73c30 -12 55 -17 91 -17c66 0 99 32 104 105l-2 1c-22 -18 -52 -28 -87 -28c-102 0 -143 50 -143 121
c0 76 48 131 151 131c112 0 163 -65 163 -187zM830 241c0 64 -23 85 -73 85c-41 0 -63 -18 -63 -54s18 -57 67 -57c30 0 57 11 69 26z" />
    <glyph glyph-name="uni2152" unicode="&#x2152;" horiz-adv-x="1232" 
d="M219 751v-395h-92v205l3 79l-3 1l-81 -47l-8 76l124 81h57zM651 750h92l-501 -750h-91zM796 395v-395h-92v205l3 79l-3 1l-81 -47l-8 76l124 81h57zM1206 196c0 -139 -48 -201 -162 -201c-113 0 -161 62 -161 201c0 145 48 203 162 203c113 0 161 -58 161 -203zM1115 197
c0 103 -23 127 -70 127c-50 0 -71 -24 -71 -127c0 -104 21 -127 71 -127c47 0 70 23 70 127z" />
    <glyph glyph-name="onethird" unicode="&#x2153;" horiz-adv-x="886" 
d="M633 750h92l-501 -750h-91zM822 118c0 -77 -50 -123 -164 -123c-56 0 -102 13 -135 33l20 70c34 -19 71 -30 114 -30c52 0 76 22 76 55s-22 50 -115 50v63c88 0 109 18 109 48c0 26 -22 40 -69 40c-45 0 -80 -11 -113 -34l-22 68c34 24 85 41 139 41
c96 0 151 -40 151 -108c0 -42 -22 -69 -60 -84v-2c44 -14 69 -41 69 -87zM281 751v-395h-92v205l3 79l-3 1l-81 -47l-8 76l124 81h57z" />
    <glyph glyph-name="twothirds" unicode="&#x2154;" horiz-adv-x="886" 
d="M342 636c0 -77 -70 -130 -170 -201v-3h170l-1 -76h-287v60c107 94 192 155 192 212c0 28 -19 48 -68 48c-39 0 -72 -14 -107 -35l-22 72c38 26 87 42 146 42c100 0 147 -49 147 -119zM648 750h92l-501 -750h-91zM832 118c0 -77 -50 -123 -164 -123c-56 0 -102 13 -135 33
l20 70c34 -19 71 -30 114 -30c52 0 76 22 76 55s-22 50 -115 50v63c88 0 109 18 109 48c0 26 -22 40 -69 40c-45 0 -80 -11 -113 -34l-22 68c34 24 85 41 139 41c96 0 151 -40 151 -108c0 -42 -22 -69 -60 -84v-2c44 -14 69 -41 69 -87z" />
    <glyph glyph-name="uni2155" unicode="&#x2155;" horiz-adv-x="953" 
d="M219 751v-395h-92v205l3 79l-3 1l-81 -47l-8 76l124 81h57zM651 750h92l-501 -750h-91zM920 136c0 -87 -45 -141 -158 -141c-50 0 -96 8 -135 29l15 71c37 -17 68 -26 113 -26c55 0 75 20 75 60c0 34 -23 49 -73 49c-32 0 -66 -5 -90 -12l-36 31l19 197h248l2 -78h-178
l-6 -70c20 3 41 6 63 6c91 0 141 -40 141 -116z" />
    <glyph glyph-name="uni2156" unicode="&#x2156;" horiz-adv-x="1038" 
d="M330 636c0 -77 -70 -130 -170 -201v-3h170l-1 -76h-287v60c107 94 192 155 192 212c0 28 -19 48 -68 48c-39 0 -72 -14 -107 -35l-22 72c38 26 87 42 146 42c100 0 147 -49 147 -119zM736 750h92l-501 -750h-91zM1005 136c0 -87 -45 -141 -158 -141c-50 0 -96 8 -135 29
l15 71c37 -17 68 -26 113 -26c55 0 75 20 75 60c0 34 -23 49 -73 49c-32 0 -66 -5 -90 -12l-36 31l19 197h248l2 -78h-178l-6 -70c20 3 41 6 63 6c91 0 141 -40 141 -116z" />
    <glyph glyph-name="uni2157" unicode="&#x2157;" horiz-adv-x="1038" 
d="M333 474c0 -77 -50 -124 -165 -124c-55 0 -101 14 -134 33l20 70c33 -18 71 -29 114 -29c52 0 76 21 76 54s-22 51 -115 51v63c88 0 109 17 109 47c0 26 -22 41 -69 41c-45 0 -80 -11 -114 -35l-21 68c34 25 85 42 139 42c96 0 151 -40 151 -109c0 -42 -23 -68 -60 -83
v-2c44 -14 69 -40 69 -87zM736 750h92l-501 -750h-91zM1005 136c0 -87 -45 -141 -158 -141c-50 0 -96 8 -135 29l15 71c37 -17 68 -26 113 -26c55 0 75 20 75 60c0 34 -23 49 -73 49c-32 0 -66 -5 -90 -12l-36 31l19 197h248l2 -78h-178l-6 -70c20 3 41 6 63 6
c91 0 141 -40 141 -116z" />
    <glyph glyph-name="uni2158" unicode="&#x2158;" horiz-adv-x="1050" 
d="M359 430h-41v-74h-85v74h-203l-7 53l184 267h111v-246h44zM235 504l2 85l4 80h-3l-66 -98l-45 -64l1 -3h107zM748 750h92l-501 -750h-91zM1017 136c0 -87 -45 -141 -158 -141c-50 0 -96 8 -135 29l15 71c37 -17 68 -26 113 -26c55 0 75 20 75 60c0 34 -23 49 -73 49
c-32 0 -66 -5 -90 -12l-36 31l19 197h248l2 -78h-178l-6 -70c20 3 41 6 63 6c91 0 141 -40 141 -116z" />
    <glyph glyph-name="uni2159" unicode="&#x2159;" horiz-adv-x="953" 
d="M219 751v-395h-92v205l3 79l-3 1l-81 -47l-8 76l124 81h57zM651 750h92l-501 -750h-91zM925 137c0 -94 -55 -142 -154 -142c-105 0 -164 58 -164 193c0 137 66 212 190 212c40 0 72 -5 104 -17l-6 -74c-29 10 -53 13 -86 13c-69 0 -101 -28 -111 -87l2 -2
c24 14 54 22 87 22c91 0 138 -38 138 -118zM834 137c0 35 -18 51 -63 51c-22 0 -55 -8 -69 -25c1 -68 20 -94 70 -94c42 0 62 23 62 68z" />
    <glyph glyph-name="uni215A" unicode="&#x215a;" horiz-adv-x="1050" 
d="M343 492c0 -87 -45 -141 -158 -141c-50 0 -96 8 -135 28l15 72c37 -18 68 -26 113 -26c55 0 75 19 75 59c0 35 -23 50 -73 50c-32 0 -66 -5 -90 -13l-36 32l19 197h248l2 -79h-178l-6 -70c20 4 41 6 63 6c91 0 141 -39 141 -115zM748 750h92l-501 -750h-91zM1022 137
c0 -94 -55 -142 -154 -142c-105 0 -164 58 -164 193c0 137 66 212 190 212c40 0 72 -5 104 -17l-6 -74c-29 10 -53 13 -86 13c-69 0 -101 -28 -111 -87l2 -2c24 14 54 22 87 22c91 0 138 -38 138 -118zM931 137c0 35 -18 51 -63 51c-22 0 -55 -8 -69 -25
c1 -68 20 -94 70 -94c42 0 62 23 62 68z" />
    <glyph glyph-name="oneeighth" unicode="&#x215b;" horiz-adv-x="886" 
d="M284 751v-395h-92v205l3 79l-3 1l-81 -47l-8 76l124 81h57zM628 750h92l-501 -750h-91zM495 115c0 36 21 70 59 91c-25 19 -42 45 -42 87c0 66 43 107 145 107c101 0 144 -42 144 -107c0 -35 -18 -63 -45 -83c35 -17 61 -44 61 -94c0 -79 -53 -121 -160 -121
c-112 0 -162 42 -162 120zM726 109c0 37 -48 48 -98 64c-24 -14 -43 -32 -43 -58c0 -35 21 -51 74 -51c40 0 67 13 67 45zM598 289c0 -33 39 -42 85 -54c22 14 35 29 35 49c0 30 -18 46 -62 46c-40 0 -58 -14 -58 -41z" />
    <glyph glyph-name="threeeighths" unicode="&#x215c;" horiz-adv-x="886" 
d="M357 474c0 -77 -50 -124 -165 -124c-55 0 -101 14 -134 33l20 70c33 -18 71 -29 114 -29c52 0 76 21 76 54s-22 51 -115 51v63c88 0 109 17 109 47c0 26 -22 41 -69 41c-45 0 -80 -11 -114 -35l-21 68c34 25 85 42 139 42c96 0 151 -40 151 -109c0 -42 -23 -68 -60 -83
v-2c44 -14 69 -40 69 -87zM644 750h92l-501 -750h-91zM509 115c0 36 21 70 59 91c-25 19 -42 45 -42 87c0 66 43 107 145 107c101 0 144 -42 144 -107c0 -35 -18 -63 -45 -83c35 -17 61 -44 61 -94c0 -79 -53 -121 -160 -121c-112 0 -162 42 -162 120zM740 109
c0 37 -48 48 -98 64c-24 -14 -43 -32 -43 -58c0 -35 21 -51 74 -51c40 0 67 13 67 45zM612 289c0 -33 39 -42 85 -54c22 14 35 29 35 49c0 30 -18 46 -62 46c-40 0 -58 -14 -58 -41z" />
    <glyph glyph-name="fiveeighths" unicode="&#x215d;" horiz-adv-x="886" 
d="M381 492c0 -87 -45 -141 -158 -141c-50 0 -96 8 -135 28l15 72c37 -18 68 -26 113 -26c55 0 75 19 75 59c0 35 -23 50 -73 50c-32 0 -66 -5 -90 -13l-36 32l19 197h248l2 -79h-178l-6 -70c20 4 41 6 63 6c91 0 141 -39 141 -115zM639 750h92l-501 -750h-91zM506 115
c0 36 21 70 59 91c-25 19 -42 45 -42 87c0 66 43 107 145 107c101 0 144 -42 144 -107c0 -35 -18 -63 -45 -83c35 -17 61 -44 61 -94c0 -79 -53 -121 -160 -121c-112 0 -162 42 -162 120zM737 109c0 37 -48 48 -98 64c-24 -14 -43 -32 -43 -58c0 -35 21 -51 74 -51
c40 0 67 13 67 45zM609 289c0 -33 39 -42 85 -54c22 14 35 29 35 49c0 30 -18 46 -62 46c-40 0 -58 -14 -58 -41z" />
    <glyph glyph-name="seveneighths" unicode="&#x215e;" horiz-adv-x="886" 
d="M417 749v-78l-163 -315h-107l172 310h-218l5 83h311zM630 750h92l-501 -750h-91zM497 115c0 36 21 70 59 91c-25 19 -42 45 -42 87c0 66 43 107 145 107c101 0 144 -42 144 -107c0 -35 -18 -63 -45 -83c35 -17 61 -44 61 -94c0 -79 -53 -121 -160 -121
c-112 0 -162 42 -162 120zM728 109c0 37 -48 48 -98 64c-24 -14 -43 -32 -43 -58c0 -35 21 -51 74 -51c40 0 67 13 67 45zM600 289c0 -33 39 -42 85 -54c22 14 35 29 35 49c0 30 -18 46 -62 46c-40 0 -58 -14 -58 -41z" />
    <glyph glyph-name="uni215F" unicode="&#x215f;" horiz-adv-x="577" 
d="M219 751v-395h-92v205l3 79l-3 1l-81 -47l-8 76l124 81h57zM651 750h92l-501 -750h-91z" />
    <glyph glyph-name="uni2189" unicode="&#x2189;" horiz-adv-x="942" 
d="M350 552c0 -139 -48 -202 -162 -202c-113 0 -161 63 -161 202c0 145 48 203 162 203c113 0 161 -58 161 -203zM259 552c0 104 -23 127 -70 127c-50 0 -71 -23 -71 -127c0 -103 21 -126 71 -126c47 0 70 23 70 126zM652 750h92l-501 -750h-91zM918 118
c0 -77 -50 -123 -164 -123c-56 0 -102 13 -135 33l20 70c34 -19 71 -30 114 -30c52 0 76 22 76 55s-22 50 -115 50v63c88 0 109 18 109 48c0 26 -22 40 -69 40c-45 0 -80 -11 -113 -34l-22 68c34 24 85 41 139 41c96 0 151 -40 151 -108c0 -42 -22 -69 -60 -84v-2
c44 -14 69 -41 69 -87z" />
    <glyph glyph-name="partialdiff" unicode="&#x2202;" horiz-adv-x="636" 
d="M320 552c57 0 109 -18 147 -50l2 2c-19 97 -76 143 -178 143c-78 0 -133 -20 -185 -57l-33 91c64 47 131 76 240 76c141 0 282 -92 282 -347c0 -244 -112 -424 -324 -424c-157 0 -230 89 -230 243c0 203 107 323 279 323zM460 354c0 49 -42 98 -121 98
c-103 0 -167 -78 -167 -233c0 -86 41 -129 118 -129c109 0 170 118 170 264z" />
    <glyph glyph-name="Delta" unicode="&#x2206;" horiz-adv-x="748" 
d="M420 753l292 -753h-677l292 753h93zM372 592l-27 -77l-151 -401h354l-147 401l-26 77h-3z" />
    <glyph glyph-name="product" unicode="&#x220f;" horiz-adv-x="749" 
d="M264 -156h-120v807l-89 8l-3 91h647l-2 -90l-89 -9v-807h-120v798h-224v-798z" />
    <glyph glyph-name="summation" unicode="&#x2211;" horiz-adv-x="699" 
d="M521 292l-227 -278l-53 -61l2 -1h414l-3 -108h-574v73l305 390l-305 362v81h558l3 -111h-389l-1 -2l53 -59l217 -257v-29z" />
    <glyph glyph-name="minus" unicode="&#x2212;" horiz-adv-x="600" 
d="M526 277h-452v120h452v-120z" />
    <glyph glyph-name="uni2219" unicode="&#x2219;" horiz-adv-x="600" 
d="M153 322c0 101 48 150 146 150c99 0 148 -49 148 -150c0 -102 -49 -151 -148 -151c-98 0 -146 49 -146 151z" />
    <glyph glyph-name="radical" unicode="&#x221a;" horiz-adv-x="601" 
d="M7 383v118h172l90 -286l23 -77h3l19 78l155 572h134l-231 -788h-152l-132 383h-81z" />
    <glyph glyph-name="infinity" unicode="&#x221e;" horiz-adv-x="754" 
d="M536 156c-72 0 -121 29 -160 78c-31 -44 -77 -78 -156 -78c-100 0 -177 69 -177 191c0 111 60 190 175 190c72 0 121 -29 159 -78c32 44 78 78 158 78c99 0 177 -68 177 -191c0 -111 -62 -190 -176 -190zM531 429c-58 0 -82 -52 -108 -110c25 -37 56 -62 106 -62
s77 38 77 88c0 55 -33 84 -75 84zM223 264c57 0 81 51 108 109c-25 38 -55 63 -105 63s-78 -37 -78 -87c0 -55 34 -85 75 -85z" />
    <glyph glyph-name="integral" unicode="&#x222b;" horiz-adv-x="324" 
d="M227 605l-1 -567c0 -140 -68 -201 -218 -201l-3 85c64 2 93 34 93 112v572c0 127 69 192 217 194l3 -86c-58 -1 -91 -36 -91 -109z" />
    <glyph glyph-name="approxequal" unicode="&#x2248;" horiz-adv-x="645" 
d="M432 352c-81 0 -152 48 -220 48c-43 0 -79 -11 -114 -32v103c34 19 71 31 114 31c79 0 151 -49 220 -49c44 0 80 12 115 32v-102c-34 -19 -71 -31 -115 -31zM432 160c-81 0 -152 48 -220 48c-43 0 -79 -11 -114 -32v102c34 20 71 32 114 32c79 0 151 -49 220 -49
c44 0 80 12 115 32v-102c-34 -19 -71 -31 -115 -31z" />
    <glyph glyph-name="notequal" unicode="&#x2260;" horiz-adv-x="645" 
d="M404 600l81 -41l-40 -80h102v-102h-152l-45 -93h197v-102h-247l-61 -124l-82 41l41 83h-100v102h150l46 93h-196v102h246z" />
    <glyph glyph-name="lessequal" unicode="&#x2264;" horiz-adv-x="645" 
d="M545 511l-284 -83l-78 -21v-3l78 -20l284 -79v-123l-452 162v126l451 166zM545 41h-448v105h448v-105z" />
    <glyph glyph-name="greaterequal" unicode="&#x2265;" horiz-adv-x="645" 
d="M93 182v123l284 79l79 20v3l-79 21l-283 83v125l451 -166v-126zM541 41h-448v105h448v-105z" />
    <glyph glyph-name="dotmath" unicode="&#x22c5;" horiz-adv-x="600" 
d="M377 345c0 -47 -24 -75 -77 -75c-54 0 -77 21 -77 75c0 49 23 76 77 76c53 0 77 -27 77 -76z" />
    <glyph glyph-name="lozenge" unicode="&#x25ca;" horiz-adv-x="620" 
d="M26 337l284 332l284 -332l-284 -332zM161 337l148 -172l149 172l-149 174z" />
    <glyph glyph-name="fi" unicode="&#xfb01;" horiz-adv-x="705" 
d="M236 505v-505h-127v505h-82v97h82v26c0 95 61 170 202 170c32 0 64 -5 84 -11l-3 -86c-15 4 -35 6 -54 6c-74 0 -102 -31 -102 -82v-23h374v-602h-129v505h-245zM623 742c0 -40 -24 -59 -77 -59c-51 0 -76 15 -76 59c0 40 25 60 76 60c53 0 77 -20 77 -60z" />
    <glyph glyph-name="fl" unicode="&#xfb02;" horiz-adv-x="673" 
d="M586 0h-128v704c-32 4 -62 8 -92 8c-99 0 -130 -33 -130 -90v-20h110v-97h-110v-505h-127v505h-82v97h81v24c0 97 63 174 259 174c83 0 139 -13 219 -16v-784z" />
    <glyph glyph-name="dollar.subs" horiz-adv-x="327" 
d="M163 309h70l-6 -75c26 -3 50 -10 73 -17l-11 -73c-36 11 -63 17 -96 17c-52 0 -65 -17 -65 -35c0 -56 185 -20 185 -151c0 -62 -37 -105 -106 -116l-4 -70h-70l4 69c-35 3 -68 12 -95 26l11 76c37 -21 69 -31 110 -31c45 0 66 15 66 39c0 57 -185 24 -185 153
c0 55 33 104 113 114z" />
    <glyph glyph-name="comma.subs" horiz-adv-x="166" 
d="M81 -65c36 0 52 -20 52 -46c0 -39 -29 -95 -54 -125l-32 7l16 69c-15 6 -32 23 -32 44c0 30 14 51 50 51z" />
    <glyph glyph-name="period.subs" horiz-adv-x="166" 
d="M135 -112c0 -31 -14 -48 -52 -48c-36 0 -52 13 -52 48c0 33 16 49 52 49c38 0 52 -16 52 -49z" />
    <glyph glyph-name="cent.subs" horiz-adv-x="327" 
d="M302 218l-5 -73c-21 8 -48 13 -73 13c-75 0 -100 -30 -100 -107c0 -81 36 -113 99 -113c28 0 54 6 77 16l6 -67c-18 -11 -44 -20 -76 -23l-4 -75h-72l5 78c-85 14 -130 76 -130 184c0 107 43 173 147 183l6 75h72l-7 -76c20 -3 39 -9 55 -15z" />
    <glyph glyph-name="dollar.sups" horiz-adv-x="327" 
d="M163 953h70l-6 -74c26 -3 50 -10 73 -18l-11 -73c-36 11 -63 17 -96 17c-52 0 -65 -16 -65 -35c0 -56 185 -19 185 -151c0 -63 -37 -106 -106 -117l-4 -69h-70l4 68c-35 4 -68 12 -95 28l11 75c37 -21 69 -31 110 -31c45 0 66 15 66 39c0 57 -185 24 -185 153
c0 55 33 104 113 114z" />
    <glyph glyph-name="comma.sups" horiz-adv-x="166" 
d="M81 579c36 0 52 -20 52 -46c0 -39 -29 -95 -54 -125l-32 7l16 69c-15 6 -32 23 -32 44c0 30 14 51 50 51z" />
    <glyph glyph-name="period.sups" horiz-adv-x="166" 
d="M135 532c0 -30 -14 -48 -52 -48c-36 0 -52 13 -52 48c0 33 16 49 52 49c38 0 52 -16 52 -49z" />
    <glyph glyph-name="cent.sups" horiz-adv-x="327" 
d="M302 862l-5 -72c-21 7 -48 12 -73 12c-75 0 -100 -30 -100 -107c0 -81 36 -113 99 -113c28 0 54 6 77 16l6 -66c-18 -12 -44 -20 -76 -24l-4 -75h-72l5 77c-85 15 -130 76 -130 185c0 107 43 173 147 183l6 75h72l-7 -76c20 -3 39 -9 55 -15z" />
    <glyph glyph-name="dollar.numr" horiz-adv-x="327" 
d="M163 816h70l-6 -75c26 -3 50 -10 73 -18l-11 -72c-36 11 -63 16 -96 16c-52 0 -65 -16 -65 -34c0 -56 185 -20 185 -152c0 -62 -37 -106 -106 -117l-4 -68h-70l4 67c-35 4 -68 13 -95 28l11 75c37 -20 69 -30 110 -30c45 0 66 14 66 39c0 57 -185 24 -185 153
c0 55 33 103 113 113z" />
    <glyph glyph-name="parenleft.numr" horiz-adv-x="215" 
d="M148 780l61 -6c-45 -66 -69 -147 -69 -237s24 -170 69 -236l-61 -7c-60 60 -91 146 -91 243c0 99 30 181 91 243z" />
    <glyph glyph-name="parenright.numr" horiz-adv-x="215" 
d="M6 774l62 6c61 -62 90 -144 90 -243c0 -97 -31 -183 -90 -243l-62 7c44 66 69 146 69 236s-24 171 -69 237z" />
    <glyph glyph-name="plus.numr" horiz-adv-x="378" 
d="M335 515h-110v-108h-74v108h-109v80h109v109h74v-109h110v-80z" />
    <glyph glyph-name="comma.numr" horiz-adv-x="166" 
d="M81 441c36 0 52 -20 52 -46c0 -39 -29 -95 -54 -125l-32 7l16 69c-15 6 -32 23 -32 44c0 30 14 51 50 51z" />
    <glyph glyph-name="period.numr" horiz-adv-x="166" 
d="M135 395c0 -31 -14 -48 -52 -48c-36 0 -52 12 -52 48c0 32 16 49 52 49c38 0 52 -17 52 -49z" />
    <glyph glyph-name="zero.numr" horiz-adv-x="376" 
d="M350 552c0 -139 -48 -202 -162 -202c-113 0 -161 63 -161 202c0 145 48 203 162 203c113 0 161 -58 161 -203zM259 552c0 104 -23 127 -70 127c-50 0 -71 -23 -71 -127c0 -103 21 -126 71 -126c47 0 70 23 70 126z" />
    <glyph glyph-name="one.numr" horiz-adv-x="279" 
d="M219 751v-395h-92v205l3 79l-3 1l-81 -47l-8 76l124 81h57z" />
    <glyph glyph-name="two.numr" horiz-adv-x="364" 
d="M330 636c0 -77 -70 -130 -170 -201v-3h170l-1 -76h-287v60c107 94 192 155 192 212c0 28 -19 48 -68 48c-39 0 -72 -14 -107 -35l-22 72c38 26 87 42 146 42c100 0 147 -49 147 -119z" />
    <glyph glyph-name="three.numr" horiz-adv-x="364" 
d="M333 474c0 -77 -50 -124 -165 -124c-55 0 -101 14 -134 33l20 70c33 -18 71 -29 114 -29c52 0 76 21 76 54s-22 51 -115 51v63c88 0 109 17 109 47c0 26 -22 41 -69 41c-45 0 -80 -11 -114 -35l-21 68c34 25 85 42 139 42c96 0 151 -40 151 -109c0 -42 -23 -68 -60 -83
v-2c44 -14 69 -40 69 -87z" />
    <glyph glyph-name="four.numr" horiz-adv-x="376" 
d="M359 430h-41v-74h-85v74h-203l-7 53l184 267h111v-246h44zM235 504l2 85l4 80h-3l-66 -98l-45 -64l1 -3h107z" />
    <glyph glyph-name="five.numr" horiz-adv-x="376" 
d="M343 492c0 -87 -45 -141 -158 -141c-50 0 -96 8 -135 28l15 72c37 -18 68 -26 113 -26c55 0 75 19 75 59c0 35 -23 50 -73 50c-32 0 -66 -5 -90 -13l-36 32l19 197h248l2 -79h-178l-6 -70c20 4 41 6 63 6c91 0 141 -39 141 -115z" />
    <glyph glyph-name="six.numr" horiz-adv-x="376" 
d="M348 493c0 -95 -55 -143 -154 -143c-105 0 -164 58 -164 193c0 137 66 212 190 212c40 0 72 -5 104 -16l-6 -74c-29 10 -53 13 -86 13c-69 0 -101 -28 -111 -87l2 -2c24 14 54 22 87 22c91 0 138 -39 138 -118zM257 493c0 34 -18 51 -63 51c-22 0 -55 -9 -69 -25
c1 -68 20 -94 70 -94c42 0 62 23 62 68z" />
    <glyph glyph-name="seven.numr" horiz-adv-x="376" 
d="M346 749v-78l-163 -315h-107l172 310h-218l5 83h311z" />
    <glyph glyph-name="eight.numr" horiz-adv-x="376" 
d="M27 471c0 36 21 70 60 91c-26 18 -43 45 -43 87c0 65 43 106 145 106c101 0 144 -41 144 -106c0 -36 -18 -64 -45 -83c35 -17 61 -45 61 -95c0 -79 -53 -121 -160 -121c-112 0 -162 43 -162 121zM258 465c0 37 -48 47 -98 63c-24 -13 -43 -32 -43 -58
c0 -35 21 -50 74 -50c40 0 67 12 67 45zM130 645c0 -33 39 -42 85 -54c22 14 35 29 35 49c0 30 -18 46 -62 46c-40 0 -58 -14 -58 -41z" />
    <glyph glyph-name="nine.numr" horiz-adv-x="376" 
d="M344 569c0 -151 -60 -219 -181 -219c-49 0 -78 8 -109 20l13 72c30 -11 55 -17 91 -17c66 0 98 32 104 106l-2 1c-22 -19 -52 -28 -87 -28c-102 0 -143 50 -143 120c0 76 48 132 151 132c112 0 163 -65 163 -187zM253 597c0 64 -23 85 -73 85c-41 0 -63 -19 -63 -54
c0 -37 18 -57 67 -57c30 0 57 11 69 26z" />
    <glyph glyph-name="equal.numr" horiz-adv-x="378" 
d="M329 586h-279v67h279v-67zM329 461h-279v68h279v-68z" />
    <glyph glyph-name="cent.numr" horiz-adv-x="327" 
d="M302 725l-5 -73c-21 7 -48 12 -72 12c-76 0 -101 -29 -101 -107c0 -81 36 -113 99 -113c28 0 55 7 77 16l6 -66c-18 -12 -44 -20 -76 -24l-4 -74h-72l5 76c-85 15 -130 76 -130 185c0 107 43 173 147 183l6 76h72l-7 -77c20 -3 39 -8 55 -14z" />
    <glyph glyph-name="minus.numr" horiz-adv-x="378" 
d="M329 521h-283v76h283v-76z" />
    <glyph glyph-name="dollar.dnom" horiz-adv-x="327" 
d="M163 460h70l-6 -74c26 -3 50 -10 73 -18l-11 -73c-36 11 -63 17 -96 17c-52 0 -65 -16 -65 -35c0 -56 185 -19 185 -151c0 -63 -37 -106 -106 -117l-4 -69h-70l4 68c-35 4 -68 12 -95 28l11 75c37 -21 69 -30 110 -30c45 0 66 14 66 38c0 57 -185 24 -185 153
c0 56 33 104 113 114z" />
    <glyph glyph-name="parenleft.dnom" horiz-adv-x="215" 
d="M148 425l61 -6c-45 -67 -69 -147 -69 -237c0 -91 24 -171 69 -237l-61 -6c-60 60 -91 146 -91 243c0 98 30 180 91 243z" />
    <glyph glyph-name="parenright.dnom" horiz-adv-x="215" 
d="M6 419l62 6c61 -63 90 -145 90 -243c0 -97 -31 -183 -90 -243l-62 6c44 66 69 146 69 237c0 90 -24 170 -69 237z" />
    <glyph glyph-name="plus.dnom" horiz-adv-x="378" 
d="M335 160h-110v-109h-74v109h-109v79h109v110h74v-110h110v-79z" />
    <glyph glyph-name="comma.dnom" horiz-adv-x="166" 
d="M81 86c36 0 52 -20 52 -46c0 -39 -29 -95 -54 -125l-32 7l16 69c-15 6 -32 23 -32 44c0 30 14 51 50 51z" />
    <glyph glyph-name="period.dnom" horiz-adv-x="166" 
d="M135 39c0 -31 -14 -48 -52 -48c-36 0 -52 13 -52 48c0 33 16 49 52 49c38 0 52 -16 52 -49z" />
    <glyph glyph-name="zero.dnom" horiz-adv-x="376" 
d="M350 196c0 -139 -48 -201 -162 -201c-113 0 -161 62 -161 201c0 145 48 203 162 203c113 0 161 -58 161 -203zM259 197c0 103 -23 127 -70 127c-50 0 -71 -24 -71 -127c0 -104 21 -127 71 -127c47 0 70 23 70 127z" />
    <glyph glyph-name="one.dnom" horiz-adv-x="279" 
d="M219 395v-395h-92v205l3 79l-3 1l-81 -47l-8 76l124 81h57z" />
    <glyph glyph-name="two.dnom" horiz-adv-x="364" 
d="M330 281c0 -77 -69 -131 -170 -201v-3h170l-1 -77h-287v60c107 95 192 155 192 213c0 27 -19 48 -68 48c-39 0 -72 -14 -107 -36l-22 73c38 25 87 41 146 41c100 0 147 -49 147 -118z" />
    <glyph glyph-name="three.dnom" horiz-adv-x="364" 
d="M340 118c0 -77 -50 -123 -164 -123c-56 0 -102 13 -135 33l20 70c34 -19 71 -30 114 -30c52 0 76 22 76 55s-22 50 -115 50v63c88 0 109 18 109 48c0 26 -22 40 -69 40c-45 0 -80 -11 -113 -34l-22 68c34 24 85 41 139 41c96 0 151 -40 151 -108c0 -42 -22 -69 -60 -84
v-2c44 -14 69 -41 69 -87z" />
    <glyph glyph-name="four.dnom" horiz-adv-x="376" 
d="M359 75h-41v-75h-85v75h-203l-7 53l184 266h111v-245h44zM235 149l2 85l4 80h-3l-66 -98l-45 -64l1 -3h107z" />
    <glyph glyph-name="five.dnom" horiz-adv-x="376" 
d="M343 136c0 -87 -45 -141 -158 -141c-50 0 -96 8 -135 29l15 71c37 -17 68 -26 113 -26c55 0 75 20 75 60c0 34 -23 49 -73 49c-32 0 -66 -5 -90 -12l-36 31l19 197h248l2 -78h-178l-6 -70c20 3 41 6 63 6c91 0 141 -40 141 -116z" />
    <glyph glyph-name="six.dnom" horiz-adv-x="376" 
d="M348 137c0 -94 -55 -142 -154 -142c-105 0 -164 58 -164 193c0 137 66 212 190 212c40 0 72 -5 104 -17l-6 -74c-29 10 -53 13 -86 13c-69 0 -101 -28 -111 -87l2 -2c24 14 54 22 87 22c91 0 138 -38 138 -118zM257 137c0 35 -18 51 -63 51c-22 0 -55 -8 -69 -25
c1 -68 20 -94 70 -94c42 0 62 23 62 68z" />
    <glyph glyph-name="seven.dnom" horiz-adv-x="376" 
d="M346 394v-78l-163 -316h-107l172 310h-218l5 84h311z" />
    <glyph glyph-name="eight.dnom" horiz-adv-x="376" 
d="M27 115c0 36 21 70 59 91c-25 19 -42 45 -42 87c0 66 43 107 145 107c101 0 144 -42 144 -107c0 -35 -18 -63 -45 -83c35 -17 61 -44 61 -94c0 -79 -53 -121 -160 -121c-112 0 -162 42 -162 120zM258 109c0 37 -48 48 -98 64c-24 -14 -43 -32 -43 -58
c0 -35 21 -51 74 -51c40 0 67 13 67 45zM130 289c0 -33 39 -42 85 -54c22 14 35 29 35 49c0 30 -18 46 -62 46c-40 0 -58 -14 -58 -41z" />
    <glyph glyph-name="nine.dnom" horiz-adv-x="376" 
d="M344 213c0 -150 -60 -218 -181 -218c-49 0 -78 7 -109 19l13 73c30 -12 55 -17 91 -17c66 0 99 32 104 105l-2 1c-22 -18 -52 -28 -87 -28c-102 0 -143 50 -143 121c0 76 48 131 151 131c112 0 163 -65 163 -187zM253 241c0 64 -23 85 -73 85c-41 0 -63 -18 -63 -54
s18 -57 67 -57c30 0 57 11 69 26z" />
    <glyph glyph-name="equal.dnom" horiz-adv-x="378" 
d="M329 230h-279v68h279v-68zM329 105h-279v68h279v-68z" />
    <glyph glyph-name="cent.dnom" horiz-adv-x="327" 
d="M302 369l-5 -73c-21 8 -48 13 -72 13c-76 0 -101 -30 -101 -108c0 -81 36 -112 99 -112c28 0 55 6 77 16l6 -67c-18 -12 -44 -20 -76 -23l-4 -75h-72l5 77c-85 15 -130 76 -130 185c0 106 43 173 147 183l6 75h72l-7 -76c20 -3 39 -9 55 -15z" />
    <glyph glyph-name="minus.dnom" horiz-adv-x="378" 
d="M329 165h-283v77h283v-77z" />
    <glyph glyph-name="space.frac" horiz-adv-x="56" 
 />
    <glyph glyph-name="numbersign.osf" horiz-adv-x="600" 
d="M39 262h93l22 127h-114v92h126l25 168h99l-25 -168h115l25 168h97l-25 -168h83v-92h-96l-20 -127h116v-92h-129l-25 -170h-97l25 170h-115l-26 -170h-98l25 170h-81v92zM252 389l-20 -127h114l21 127h-115z" />
    <glyph glyph-name="dollar.osf" horiz-adv-x="494" 
d="M458 183c0 -102 -50 -174 -164 -191l-8 -127h-100l8 125c-56 5 -105 19 -145 43l15 108c47 -31 117 -47 172 -47c73 0 104 33 104 77c0 114 -293 55 -293 263c0 94 59 163 178 176l9 120h100l-9 -122c38 -5 75 -15 109 -30l-11 -106c-50 21 -112 31 -158 31
c-60 0 -96 -24 -96 -64c0 -106 289 -47 289 -256z" />
    <glyph glyph-name="zero.osf" horiz-adv-x="621" 
d="M575 316c0 -224 -80 -326 -265 -326c-187 0 -264 102 -264 326c0 234 78 331 265 331c185 0 264 -97 264 -331zM447 317c0 172 -44 215 -136 215c-94 0 -138 -44 -138 -214c0 -175 44 -215 138 -215c92 0 136 42 136 214z" />
    <glyph glyph-name="one.osf" horiz-adv-x="463" 
d="M355 638v-638h-131v399l2 80l-2 2l-69 -43l-68 -40l-13 109l203 131h78z" />
    <glyph glyph-name="two.osf" horiz-adv-x="582" 
d="M526 456c0 -126 -115 -217 -290 -342v-3h293l-3 -111h-466v86c180 154 334 258 334 359c0 50 -37 86 -128 86c-65 0 -125 -23 -178 -60l-33 104c59 41 140 71 232 71c160 0 239 -78 239 -190z" />
    <glyph glyph-name="three.osf" horiz-adv-x="574" 
d="M523 170c0 -177 -149 -275 -406 -280l-11 106c213 5 294 79 294 171c0 62 -42 99 -136 99c-20 0 -45 -2 -66 -6l-6 90c150 16 189 47 189 104c0 45 -32 79 -126 79c-72 0 -129 -19 -182 -56l-29 103c51 40 134 67 220 67c156 0 234 -74 234 -175c0 -65 -27 -115 -85 -144
v-2c75 -27 110 -81 110 -156z" />
    <glyph glyph-name="four.osf" horiz-adv-x="612" 
d="M585 64h-77v-167l-118 -7v174h-350l-10 85l333 497l145 -10v-467h81zM394 169l7 285l4 81l-2 1l-43 -69l-150 -231l-44 -64l1 -3h227z" />
    <glyph glyph-name="five.osf" horiz-adv-x="564" 
d="M523 181c0 -175 -138 -288 -410 -291l-12 111c201 3 295 71 295 167c0 61 -44 96 -141 96c-58 0 -112 -13 -153 -32l-45 52l30 354h400l5 -123h-304l-12 -157c37 11 77 17 118 17c146 0 229 -70 229 -194z" />
    <glyph glyph-name="six.osf" horiz-adv-x="593" 
d="M552 257c0 -181 -90 -266 -248 -266c-165 0 -263 97 -263 333c0 283 188 421 406 425l19 -111c-176 -4 -275 -88 -297 -215l2 -2c44 31 98 50 157 50c151 0 224 -72 224 -214zM426 257c0 75 -37 111 -122 111c-45 0 -103 -21 -131 -55c2 -158 45 -206 131 -206
c78 0 122 47 122 150z" />
    <glyph glyph-name="seven.osf" horiz-adv-x="577" 
d="M533 637v-110l-284 -625h-143l289 610h-355l8 125h485z" />
    <glyph glyph-name="eight.osf" horiz-adv-x="605" 
d="M41 183c0 61 39 117 103 151c-44 29 -75 71 -75 141c0 105 70 171 234 171s233 -66 233 -171c0 -60 -29 -107 -79 -138v-2c61 -26 107 -69 107 -152c0 -127 -88 -194 -261 -194c-181 0 -262 69 -262 194zM436 176c0 69 -90 85 -181 112c-49 -23 -89 -56 -89 -103
c0 -63 40 -93 140 -93c78 0 130 25 130 84zM190 470c0 -61 75 -78 157 -99c49 24 75 52 75 91c0 54 -33 83 -120 83c-82 0 -112 -28 -112 -75z" />
    <glyph glyph-name="nine.osf" horiz-adv-x="586" 
d="M544 338c0 -312 -177 -442 -405 -446l-12 109c151 5 263 79 285 229l-2 2c-38 -31 -86 -48 -148 -48c-134 0 -221 73 -221 225c0 146 82 237 247 237c164 0 256 -100 256 -308zM415 357c-1 126 -40 172 -130 172c-77 0 -116 -39 -116 -117s37 -117 121 -117
c58 0 104 20 125 62z" />
    <glyph glyph-name="cent.osf" horiz-adv-x="498" 
d="M455 584l-8 -112c-33 14 -73 23 -111 23c-121 0 -163 -54 -163 -193c0 -147 57 -203 160 -203c43 0 85 10 118 28l9 -102c-29 -19 -70 -32 -119 -36l-7 -124h-100l8 127c-133 23 -201 123 -201 310c0 184 68 291 224 307l9 121h100l-9 -123c33 -5 65 -13 90 -23z" />
    <glyph glyph-name="sterling.osf" horiz-adv-x="562" 
d="M52 276l-5 94h44c-9 30 -17 59 -17 93c0 102 61 195 259 195c69 0 124 -12 170 -29l-16 -106c-37 14 -90 26 -142 26c-105 0 -142 -41 -142 -97c0 -29 6 -55 13 -82h232v-94h-209c3 -17 4 -34 4 -53c0 -55 -21 -97 -58 -121l2 -3c54 12 112 16 176 16
c61 0 118 -4 171 -11l-6 -110c-78 8 -149 12 -226 12c-87 0 -159 -2 -259 -10l-4 107c55 13 82 61 82 113c0 22 -2 41 -5 60h-64z" />
    <glyph glyph-name="currency.osf" horiz-adv-x="600" 
d="M116 327c0 34 9 67 25 95l-65 67l65 71l68 -71c27 15 57 24 90 24c32 0 63 -9 90 -24l70 71l65 -71l-67 -69c15 -27 25 -59 25 -93c0 -32 -8 -61 -21 -87l62 -65l-65 -70l-62 64c-28 -18 -62 -28 -97 -28c-36 0 -69 10 -97 27l-62 -63l-64 70l61 63c-14 26 -21 57 -21 89
zM201 329c0 -54 43 -95 98 -95s98 41 98 95c0 52 -43 94 -98 94s-98 -42 -98 -94z" />
    <glyph glyph-name="yen.osf" horiz-adv-x="600" 
d="M111 300h91l-184 349h139l111 -259l31 -75h3l29 75l111 259h136l-179 -349h93v-64h-124v-46h124v-64h-124v-126h-135v126h-122v64h122v46h-122v64z" />
    <glyph glyph-name="franc.osf" horiz-adv-x="600" 
d="M34 169h71v480h450l3 -114h-327v-154h249l-1 -108h-248v-104h77v-85h-77v-84h-126v84h-71v85z" />
    <glyph glyph-name="lira.osf" horiz-adv-x="600" 
d="M62 342l-5 63h30c-5 18 -7 36 -7 56c0 103 63 197 267 197c71 0 130 -12 177 -30l-16 -106c-39 15 -95 26 -149 26c-110 0 -150 -41 -150 -98c0 -16 2 -31 5 -45h260v-63h-243c4 -14 8 -28 11 -43h232v-63h-223v-13c0 -56 -22 -98 -60 -121l1 -2c57 11 118 16 186 16
c63 0 122 -5 178 -12l-7 -110c-81 8 -154 13 -233 13c-90 0 -164 -2 -267 -11l-4 107c56 14 84 62 84 112c0 7 -1 14 -1 21h-61l-4 63h55c-3 15 -8 29 -12 43h-44z" />
    <glyph glyph-name="peseta.osf" horiz-adv-x="600" 
d="M272 453c0 -154 -30 -195 -128 -195h-37v-258h-73v649h109c95 0 129 -38 129 -196zM415 336h-43v-244c0 -22 10 -29 23 -29c5 0 10 1 14 3l1 -65c-6 -5 -21 -8 -34 -8c-43 0 -68 30 -68 97v246h-21v65h23l12 89l49 9v-98h44v-65zM575 116c0 -87 -29 -124 -87 -124
c-21 0 -41 6 -54 15l2 71c13 -10 28 -14 45 -14c24 0 34 16 34 51c0 68 -85 54 -85 174c0 60 29 117 86 117c22 0 38 -6 51 -15l-4 -72c-13 7 -27 11 -41 11c-22 0 -31 -16 -31 -40c0 -67 84 -50 84 -174zM198 453c0 95 -13 109 -54 109h-37v-222h37c38 0 54 14 54 113z" />
    <glyph glyph-name="Euro.osf" horiz-adv-x="600" 
d="M566 623l-32 -102c-35 15 -80 23 -124 23c-111 0 -167 -38 -187 -122h279l-22 -67h-266v-56h248l-22 -64h-217c23 -96 87 -136 185 -136c53 0 101 12 142 36l6 -102c-43 -28 -106 -46 -182 -46c-172 0 -273 83 -299 248h-45v64h39v56h-39v67h46c26 151 121 237 302 237
c69 0 140 -13 188 -36z" />
    <glyph glyph-name="numbersign.lf" horiz-adv-x="637" 
d="M45 299h109l25 152h-133v100h147l30 199h101l-30 -199h99l30 199h99l-30 -199h99v-100h-112l-25 -152h136l1 -101h-150l-30 -198h-99l29 198h-99l-30 -198h-101l30 198h-96v101zM281 451l-25 -152h100l24 152h-99z" />
    <glyph glyph-name="dollar.lf" horiz-adv-x="596" 
d="M281 -82l-71 7l8 65c-65 7 -127 23 -169 47l16 123c49 -28 108 -48 167 -57l27 224c-103 37 -211 87 -211 221c0 136 91 211 265 214l8 65l78 -7l-8 -62c48 -6 93 -17 122 -30l-9 -118c-39 13 -85 23 -129 28l-26 -197c99 -35 202 -86 202 -225
c0 -156 -81 -227 -261 -230zM445 198c0 52 -50 78 -114 103l-26 -202c97 2 140 36 140 99zM165 555c0 -47 49 -69 111 -90l22 177c-94 -2 -133 -38 -133 -87z" />
    <glyph glyph-name="zero.lf" horiz-adv-x="629" 
d="M588 373c0 -272 -83 -384 -274 -384c-193 0 -273 112 -273 384c0 283 80 386 274 386c191 0 273 -103 273 -386zM456 375c0 219 -44 263 -141 263c-98 0 -143 -46 -143 -264c0 -223 45 -266 143 -266c97 0 141 45 141 267z" />
    <glyph glyph-name="one.lf" horiz-adv-x="472" 
d="M366 751v-751h-138v499l2 80l-2 2l-68 -44l-77 -48l-14 115l216 147h81z" />
    <glyph glyph-name="two.lf" horiz-adv-x="621" 
d="M558 545c0 -144 -130 -266 -314 -420v-3h316l-3 -122h-491v91c185 180 354 318 354 440c0 60 -40 104 -138 104c-68 0 -132 -28 -186 -69l-33 112c60 47 144 80 244 80c166 0 251 -84 251 -213z" />
    <glyph glyph-name="three.lf" horiz-adv-x="621" 
d="M570 225c0 -142 -88 -234 -284 -234c-96 0 -171 25 -226 58l27 109c58 -33 120 -52 196 -52c106 0 156 50 156 124s-50 113 -217 113v98c157 0 205 40 205 108c0 59 -49 91 -139 91c-78 0 -140 -26 -194 -68l-33 107c56 45 141 79 235 79c161 0 255 -73 255 -199
c0 -80 -42 -133 -111 -163v-2c83 -26 130 -79 130 -169z" />
    <glyph glyph-name="four.lf" horiz-adv-x="641" 
d="M600 151h-81v-151h-124v151h-339l-11 87l312 512h162v-483h85zM399 267l5 280l4 81l-2 1l-41 -71l-132 -222l-42 -66l1 -3h207z" />
    <glyph glyph-name="five.lf" horiz-adv-x="599" 
d="M557 257c0 -168 -84 -266 -271 -266c-87 0 -163 20 -225 58l25 110c59 -34 112 -53 188 -53c107 0 151 47 151 140c0 82 -47 116 -147 116c-58 0 -118 -12 -161 -31l-49 53l30 366h420l5 -122h-319l-13 -169c39 10 82 16 125 16c157 0 241 -72 241 -218z" />
    <glyph glyph-name="six.lf" horiz-adv-x="617" 
d="M577 261c0 -182 -94 -270 -260 -270c-178 0 -276 97 -276 364c0 268 112 404 323 404c63 0 116 -8 170 -29l-10 -117c-48 17 -90 24 -144 24c-134 0 -196 -64 -209 -204l2 -2c47 33 105 53 168 53c158 0 236 -73 236 -223zM445 263c0 79 -38 116 -129 116
c-46 0 -109 -22 -139 -58c2 -162 43 -214 139 -214c85 0 129 49 129 156z" />
    <glyph glyph-name="seven.lf" horiz-adv-x="623" 
d="M578 750v-117l-294 -633h-151l314 622h-399l6 128h524z" />
    <glyph glyph-name="eight.lf" horiz-adv-x="623" 
d="M154 393v2c-51 33 -86 83 -86 168c0 121 74 196 244 196c168 0 242 -73 242 -197c0 -71 -35 -128 -93 -165v-2c67 -30 120 -80 120 -181c0 -148 -92 -223 -269 -223c-187 0 -271 77 -271 224c0 73 42 138 113 178zM451 205c0 78 -77 102 -161 130l-23 8
c-55 -29 -98 -69 -98 -129c0 -79 42 -115 146 -115c82 0 136 30 136 106zM192 557c0 -76 74 -98 158 -123c57 31 85 65 85 117c0 66 -38 99 -124 99c-81 0 -119 -32 -119 -93z" />
    <glyph glyph-name="nine.lf" horiz-adv-x="618" 
d="M577 408c0 -296 -104 -417 -309 -417c-77 0 -128 10 -183 35l19 112c49 -20 94 -30 151 -30c127 0 184 66 193 226l-2 2c-44 -33 -100 -48 -165 -48c-164 0 -240 90 -240 227c0 150 83 244 260 244c174 0 276 -115 276 -351zM444 453c-2 141 -57 190 -146 190
c-85 0 -128 -40 -128 -123c0 -80 40 -124 135 -124c58 0 109 18 139 57z" />
    <glyph glyph-name="cent.lf" horiz-adv-x="645" 
d="M511 584l-8 -112c-33 14 -73 23 -111 23c-121 0 -163 -54 -163 -193c0 -147 57 -203 160 -203c43 0 85 10 118 28l9 -102c-29 -19 -72 -33 -122 -37l-7 -123h-100l8 128c-131 23 -198 123 -198 309c0 183 67 289 222 306l9 122h99l-9 -123c34 -4 67 -13 93 -23z" />
    <glyph glyph-name="sterling.lf" horiz-adv-x="631" 
d="M64 320l-6 105h50c-12 37 -22 73 -22 116c0 117 71 221 286 221c78 0 140 -15 189 -35l-17 -119c-41 17 -100 30 -157 30c-117 0 -161 -48 -161 -112c0 -36 8 -68 18 -101h257v-105h-232c3 -19 5 -40 5 -62c0 -66 -26 -115 -70 -143l2 -3c60 14 125 19 199 19
c68 0 130 -5 191 -13l-7 -125c-86 10 -164 15 -249 15c-96 0 -177 -3 -287 -13l-6 122c62 15 96 72 96 134c0 25 -3 48 -6 69h-73z" />
    <glyph glyph-name="currency.lf" horiz-adv-x="594" 
d="M109 363c0 35 9 68 26 97l-68 70l67 72l71 -73c27 16 58 25 92 25c33 0 65 -9 92 -25l72 74l67 -73l-69 -72c16 -28 25 -60 25 -95c0 -33 -8 -63 -21 -90l65 -66l-67 -73l-65 66c-29 -18 -63 -28 -99 -28s-70 10 -99 28l-65 -67l-67 73l65 67c-14 27 -22 57 -22 90z
M193 365c0 -56 46 -99 103 -99c58 0 103 43 103 99c0 55 -45 99 -103 99c-57 0 -103 -44 -103 -99z" />
    <glyph glyph-name="yen.lf" horiz-adv-x="719" 
d="M153 354h100l-205 396h156l129 -327l28 -75h3l27 76l127 326h152l-199 -396h103v-74h-136v-46h136v-73h-136v-161h-151v161h-134v73h134v46h-134v74z" />
    <glyph glyph-name="franc.lf" horiz-adv-x="617" 
d="M16 192h76v558h479l3 -128h-344v-183h262l-1 -121h-261v-126h83v-95h-83v-97h-138v97h-76v95z" />
    <glyph glyph-name="lira.lf" horiz-adv-x="651" 
d="M70 396l-5 73h31c-6 23 -9 46 -9 72c0 117 71 221 287 221c77 0 139 -15 188 -35l-17 -119c-41 17 -99 30 -157 30c-117 0 -160 -52 -160 -117c0 -18 2 -35 5 -52h280v-73h-259l12 -50h247v-73h-238c0 -5 1 -10 1 -15c0 -65 -26 -115 -70 -143l1 -2c61 13 126 18 199 18
c68 0 131 -5 192 -13l-7 -125c-87 10 -164 15 -249 15c-97 0 -177 -3 -288 -13l-6 122c62 15 96 72 96 134c0 7 0 15 -1 22h-68l-4 73h62c-4 17 -9 34 -14 50h-49z" />
    <glyph glyph-name="peseta.lf" horiz-adv-x="817" 
d="M384 520c0 -165 -51 -229 -182 -229h-48v-291h-95v750h143c126 0 182 -56 182 -230zM568 381h-54v-270c0 -25 12 -35 29 -35c6 0 12 2 18 4l2 -79c-7 -6 -26 -10 -43 -10c-60 0 -91 41 -91 119v271h-26v78h30l14 102l67 8v-110h54v-78zM786 133c0 -97 -38 -145 -115 -145
c-27 0 -55 8 -73 23l3 86c18 -13 41 -20 65 -20c30 0 43 20 43 53c0 79 -118 55 -118 199c0 73 38 136 112 136c28 0 52 -8 70 -20l-6 -85c-18 10 -39 15 -59 15c-26 0 -38 -15 -38 -44c0 -73 116 -49 116 -198zM283 519c0 102 -19 127 -81 127h-48v-256h48
c58 0 81 20 81 129z" />
    <glyph glyph-name="Euro.lf" horiz-adv-x="640" 
d="M483 346l-16 -71h-225c20 -127 88 -174 200 -174c51 0 103 14 147 37l10 -102c-48 -28 -114 -45 -188 -45c-181 0 -276 91 -301 284h-84v71h78v52h-78v74h84c25 178 132 283 308 283c68 0 129 -12 172 -32l-25 -109c-37 15 -73 22 -120 22c-116 0 -180 -53 -202 -164h276
l-17 -74h-267v-52h248z" />
    <glyph glyph-name="numbersign.tosf" horiz-adv-x="600" 
d="M39 262h93l22 127h-114v92h126l25 168h99l-25 -168h115l25 168h97l-25 -168h83v-92h-96l-20 -127h116v-92h-129l-25 -170h-97l25 170h-115l-26 -170h-98l25 170h-81v92zM252 389l-20 -127h114l21 127h-115z" />
    <glyph glyph-name="dollar.tosf" horiz-adv-x="600" 
d="M534 187c0 -102 -57 -181 -195 -196l-9 -130h-107l9 130c-62 5 -118 20 -163 46l18 114c57 -36 140 -53 202 -53c80 0 112 33 112 75c0 109 -333 42 -333 257c0 98 65 166 197 179l10 128h107l-11 -128c48 -5 94 -17 138 -33l-12 -113c-59 23 -123 34 -181 34
c-73 0 -111 -23 -111 -61c0 -104 329 -35 329 -249z" />
    <glyph glyph-name="zero.tosf" horiz-adv-x="600" 
d="M564 316c0 -224 -80 -326 -265 -326c-186 0 -264 102 -264 326c0 234 78 331 265 331c185 0 264 -97 264 -331zM436 317c0 172 -44 215 -136 215c-93 0 -137 -44 -137 -214c0 -175 44 -215 137 -215s136 42 136 214z" />
    <glyph glyph-name="one.tosf" horiz-adv-x="600" 
d="M113 0v80h155v404l-175 -97l-13 108l241 143h78v-558h145v-80h-431z" />
    <glyph glyph-name="two.tosf" horiz-adv-x="600" 
d="M535 456c0 -126 -115 -217 -291 -342v-3h294l-4 -111h-465v86c180 154 334 258 334 359c0 50 -37 86 -128 86c-65 0 -125 -23 -178 -60l-33 104c59 41 140 71 232 71c160 0 239 -78 239 -190z" />
    <glyph glyph-name="three.tosf" horiz-adv-x="600" 
d="M539 170c0 -177 -149 -275 -405 -280l-12 106c214 5 294 79 294 171c0 62 -42 99 -135 99c-21 0 -46 -2 -67 -6l-6 90c151 16 190 47 190 104c0 45 -32 79 -126 79c-73 0 -130 -19 -182 -56l-30 103c51 40 135 67 220 67c157 0 234 -74 234 -175c0 -65 -27 -115 -85 -144
v-2c75 -27 110 -81 110 -156z" />
    <glyph glyph-name="four.tosf" horiz-adv-x="600" 
d="M577 64h-76v-167l-118 -7v174h-350l-10 85l332 497l146 -10v-467h80zM387 169l6 284l4 81l-2 1l-43 -69l-149 -230l-45 -64l1 -3h228z" />
    <glyph glyph-name="five.tosf" horiz-adv-x="600" 
d="M540 181c0 -175 -139 -288 -410 -291l-12 111c202 3 295 71 295 167c0 61 -44 96 -141 96c-58 0 -113 -13 -153 -32l-45 52l30 354h399l6 -123h-304l-13 -157c38 11 78 17 119 17c146 0 229 -70 229 -194z" />
    <glyph glyph-name="six.tosf" horiz-adv-x="600" 
d="M557 257c0 -181 -90 -266 -249 -266c-165 0 -262 97 -262 333c0 283 188 421 406 425l18 -111c-175 -4 -274 -88 -296 -215l2 -2c44 31 98 50 157 50c150 0 224 -72 224 -214zM431 257c0 75 -37 111 -122 111c-45 0 -103 -21 -132 -55c2 -158 46 -206 132 -206
c78 0 122 47 122 150z" />
    <glyph glyph-name="seven.tosf" horiz-adv-x="600" 
d="M546 637v-110l-283 -625h-144l289 610h-355l8 125h485z" />
    <glyph glyph-name="eight.tosf" horiz-adv-x="600" 
d="M40 183c0 61 38 117 103 151c-45 29 -76 71 -76 141c0 105 70 171 235 171c163 0 233 -66 233 -171c0 -60 -30 -107 -80 -138v-2c61 -26 107 -69 107 -152c0 -127 -87 -194 -260 -194c-182 0 -262 69 -262 194zM434 176c0 69 -90 85 -180 112c-50 -23 -89 -56 -89 -103
c0 -63 39 -93 140 -93c78 0 129 25 129 84zM188 470c0 -61 75 -78 157 -99c49 24 75 52 75 91c0 54 -32 83 -120 83c-81 0 -112 -28 -112 -75z" />
    <glyph glyph-name="nine.tosf" horiz-adv-x="600" 
d="M549 338c0 -312 -176 -442 -405 -446l-12 109c151 5 263 79 285 229l-2 2c-38 -31 -86 -48 -148 -48c-134 0 -220 73 -220 225c0 146 81 237 246 237s256 -100 256 -308zM421 357c-2 126 -41 172 -131 172c-77 0 -116 -39 -116 -117s37 -117 121 -117c58 0 104 20 126 62
z" />
    <glyph glyph-name="cent.tosf" horiz-adv-x="600" 
d="M538 580l-8 -115c-41 15 -91 25 -136 25c-139 0 -190 -54 -190 -188c0 -145 72 -198 190 -198c51 0 101 12 140 32l10 -106c-34 -22 -84 -37 -145 -41l-9 -130h-105l9 133c-150 23 -228 126 -228 310c0 179 77 290 256 306l10 129h105l-11 -131c41 -5 80 -14 112 -26z
" />
    <glyph glyph-name="sterling.tosf" horiz-adv-x="600" 
d="M56 276l-5 94h43c-9 29 -16 58 -16 91c0 103 64 197 267 197c71 0 130 -12 178 -30l-17 -106c-39 15 -95 26 -149 26c-110 0 -149 -41 -149 -98c0 -28 6 -54 13 -80h243v-94h-220c3 -17 5 -34 5 -53c0 -56 -22 -98 -61 -122l1 -2c58 12 118 17 187 17
c63 0 122 -5 178 -12l-7 -110c-81 8 -154 13 -233 13c-90 0 -164 -2 -267 -11l-4 107c56 14 84 62 84 112c0 22 -2 42 -6 61h-65z" />
    <glyph glyph-name="currency.tosf" horiz-adv-x="600" 
d="M116 327c0 34 9 67 25 95l-65 67l65 71l68 -71c27 15 57 24 90 24c32 0 63 -9 90 -24l70 71l65 -71l-67 -69c15 -27 25 -59 25 -93c0 -32 -8 -61 -21 -87l62 -65l-65 -70l-62 64c-28 -18 -62 -28 -97 -28c-36 0 -69 10 -97 27l-62 -63l-64 70l61 63c-14 26 -21 57 -21 89
zM201 329c0 -54 43 -95 98 -95s98 41 98 95c0 52 -43 94 -98 94s-98 -42 -98 -94z" />
    <glyph glyph-name="yen.tosf" horiz-adv-x="600" 
d="M111 300h91l-184 349h139l111 -259l31 -75h3l29 75l111 259h136l-179 -349h93v-64h-124v-46h124v-64h-124v-126h-135v126h-122v64h122v46h-122v64z" />
    <glyph glyph-name="uni2007.tosf" horiz-adv-x="600" 
 />
    <glyph glyph-name="franc.tosf" horiz-adv-x="600" 
d="M34 169h71v480h450l3 -114h-327v-154h249l-1 -108h-248v-104h77v-85h-77v-84h-126v84h-71v85z" />
    <glyph glyph-name="lira.tosf" horiz-adv-x="600" 
d="M62 342l-5 63h30c-5 18 -7 36 -7 56c0 103 63 197 267 197c71 0 130 -12 177 -30l-16 -106c-39 15 -95 26 -149 26c-110 0 -150 -41 -150 -98c0 -16 2 -31 5 -45h260v-63h-243c4 -14 8 -28 11 -43h232v-63h-223v-13c0 -56 -22 -98 -60 -121l1 -2c57 11 118 16 186 16
c63 0 122 -5 178 -12l-7 -110c-81 8 -154 13 -233 13c-90 0 -164 -2 -267 -11l-4 107c56 14 84 62 84 112c0 7 -1 14 -1 21h-61l-4 63h55c-3 15 -8 29 -12 43h-44z" />
    <glyph glyph-name="peseta.tosf" horiz-adv-x="600" 
d="M585 403h-53c-10 -117 -80 -179 -238 -179h-102v-224h-121v402h-48v60h48v187h223c158 0 229 -59 238 -187h53v-59zM191 544v-82h216c-7 61 -40 82 -113 82h-103zM294 325c69 0 104 15 113 77h-216v-77h103z" />
    <glyph glyph-name="Euro.tosf" horiz-adv-x="600" 
d="M566 623l-32 -102c-35 15 -80 23 -124 23c-111 0 -167 -38 -187 -122h279l-22 -67h-266v-56h248l-22 -64h-217c23 -96 87 -136 185 -136c53 0 101 12 142 36l6 -102c-43 -28 -106 -46 -182 -46c-172 0 -273 83 -299 248h-45v64h39v56h-39v67h46c26 151 121 237 302 237
c69 0 140 -13 188 -36z" />
    <glyph glyph-name="f_i.sc" horiz-adv-x="856" 
d="M522 532h-317v-158h274l-1 -111h-273v-263h-129v649h443zM639 0v649h131v-649h-131z" />
    <glyph glyph-name="f_l.sc" horiz-adv-x="1081" 
d="M522 532h-317v-158h274l-1 -111h-273v-263h-129v649h443zM758 116h301l-3 -116h-427v649h129v-533z" />
    <glyph glyph-name="exclam.sc" horiz-adv-x="291" 
d="M191 185h-92l-19 464h129zM216 51c0 -38 -20 -61 -68 -61s-69 17 -69 61c0 40 21 63 69 63s68 -23 68 -63z" />
    <glyph glyph-name="ampersand.sc" horiz-adv-x="660" 
d="M652 100l-42 -108c-47 21 -97 50 -146 84c-56 -52 -127 -88 -216 -88c-145 0 -198 89 -198 180c0 89 56 148 120 193c-34 52 -54 101 -54 143c0 86 47 155 181 155c106 0 180 -52 180 -127c0 -83 -83 -135 -162 -187c38 -42 85 -85 137 -124c25 39 42 83 51 123h101
c-5 -47 -27 -117 -68 -181c38 -24 77 -46 116 -63zM267 98c42 0 80 15 113 41c-56 45 -107 94 -150 143c-33 -30 -56 -63 -56 -104c0 -52 35 -80 93 -80zM227 503c0 -24 11 -53 31 -85c55 33 98 63 98 102c0 33 -25 48 -62 48c-41 0 -67 -22 -67 -65z" />
    <glyph glyph-name="question.sc" horiz-adv-x="484" 
d="M444 494c0 -97 -61 -162 -161 -210l-5 -98h-93l-8 145c89 44 143 83 143 144c0 48 -35 72 -99 72c-60 0 -106 -19 -147 -53l-44 95c46 41 124 69 208 69c138 0 206 -63 206 -164zM300 51c0 -38 -20 -61 -68 -61s-69 17 -69 61c0 40 21 63 69 63s68 -23 68 -63z" />
    <glyph glyph-name="grave.sc" 
d="M286 690h-95l-121 129h144z" />
    <glyph glyph-name="a.sc" horiz-adv-x="671" 
d="M514 0l-45 136h-275l-46 -136h-137l247 649h151l250 -649h-145zM332 550l-25 -78l-77 -229h203l-75 229l-23 78h-3z" />
    <glyph glyph-name="b.sc" horiz-adv-x="623" 
d="M586 188c0 -116 -67 -188 -232 -188h-278v649h270c143 0 214 -62 214 -165c0 -76 -37 -120 -90 -140v-2c75 -20 116 -72 116 -154zM458 198c0 59 -32 88 -106 88h-153v-180h156c70 0 103 22 103 92zM437 460c0 58 -29 80 -95 80h-142v-161h148c61 0 89 25 89 81z" />
    <glyph glyph-name="c.sc" horiz-adv-x="550" 
d="M511 631l-15 -112c-36 15 -86 26 -140 26c-135 0 -184 -55 -184 -217c0 -172 51 -226 186 -226c54 0 101 12 141 29l14 -105c-46 -22 -111 -38 -172 -38c-205 0 -303 111 -303 341c0 216 96 331 312 331c56 0 121 -13 161 -29z" />
    <glyph glyph-name="d.sc" horiz-adv-x="666" 
d="M629 326c0 -231 -101 -326 -301 -326h-252v649h251c213 0 302 -102 302 -323zM495 328c0 161 -47 205 -170 205h-121v-418h121c119 0 170 40 170 213z" />
    <glyph glyph-name="e.sc" horiz-adv-x="573" 
d="M204 113h333l-4 -113h-457v649h444l2 -115h-318v-149h270v-101h-270v-171z" />
    <glyph glyph-name="f.sc" horiz-adv-x="553" 
d="M522 532h-317v-158h274l-1 -111h-273v-263h-129v649h443z" />
    <glyph glyph-name="g.sc" horiz-adv-x="614" 
d="M561 345v-320c-51 -23 -129 -37 -203 -37c-228 0 -320 112 -320 335c0 227 97 338 323 338c65 0 137 -13 187 -32l-13 -112c-48 18 -108 29 -167 29c-144 0 -196 -52 -196 -221s48 -222 182 -222c35 0 65 4 92 12v230h115z" />
    <glyph glyph-name="h.sc" horiz-adv-x="687" 
d="M611 0h-129v274h-277v-274h-129v649h129v-258h277v258h129v-649z" />
    <glyph glyph-name="i.sc" horiz-adv-x="303" 
d="M86 0v649h131v-649h-131z" />
    <glyph glyph-name="j.sc" horiz-adv-x="455" 
d="M388 649v-425c0 -168 -85 -236 -221 -236c-54 0 -103 12 -136 32l8 109c28 -18 68 -29 103 -29c83 0 116 38 116 124v425h130z" />
    <glyph glyph-name="k.sc" horiz-adv-x="656" 
d="M639 0h-159l-190 281h-86v-281h-128v649h128v-262h90l184 262h149l-220 -308z" />
    <glyph glyph-name="l.sc" horiz-adv-x="528" 
d="M205 116h301l-3 -116h-427v649h129v-533z" />
    <glyph glyph-name="m.sc" horiz-adv-x="845" 
d="M76 649h142l172 -401l31 -75h3l30 74l175 402h140v-649h-117v374l2 81l-3 1l-30 -76l-158 -380h-84l-157 372l-30 76l-2 -1l1 -81v-366h-115v649z" />
    <glyph glyph-name="n.sc" horiz-adv-x="693" 
d="M616 0h-102l-277 392l-45 67l-2 -1l1 -81v-377h-115v649h110l270 -378l46 -66l2 1l-2 80v363h114v-649z" />
    <glyph glyph-name="o.sc" horiz-adv-x="668" 
d="M630 324c0 -231 -84 -336 -296 -336c-210 0 -296 108 -296 336c0 229 85 335 296 335c212 0 296 -106 296 -335zM495 324c0 172 -41 220 -161 220c-119 0 -162 -48 -162 -220c0 -171 44 -221 163 -221c118 0 160 51 160 221z" />
    <glyph glyph-name="p.sc" horiz-adv-x="608" 
d="M571 431c0 -135 -73 -212 -254 -212h-112v-219h-129v649h241c179 0 254 -71 254 -218zM439 432c0 82 -35 109 -123 109h-112v-218h113c85 0 122 21 122 109z" />
    <glyph glyph-name="q.sc" horiz-adv-x="679" 
d="M636 324c0 -182 -50 -283 -177 -322l130 -105l-149 -22l-118 113c-197 6 -278 114 -278 336c0 229 85 335 296 335c212 0 296 -106 296 -335zM501 324c0 172 -41 220 -161 220c-119 0 -162 -48 -162 -220c0 -171 44 -221 163 -221c118 0 160 51 160 221z" />
    <glyph glyph-name="r.sc" horiz-adv-x="628" 
d="M562 452c0 -94 -44 -157 -122 -177l167 -275h-153l-132 249h-117v-249h-129v649h246c161 0 240 -64 240 -197zM428 447c0 70 -28 95 -106 95h-117v-195h115c77 0 108 25 108 100z" />
    <glyph glyph-name="s.sc" horiz-adv-x="534" 
d="M499 192c0 -124 -90 -204 -245 -204c-80 0 -152 18 -210 50l18 112c60 -33 121 -51 192 -51c83 0 122 32 122 85c0 117 -327 60 -327 282c0 105 71 194 238 194c67 0 137 -13 190 -35l-17 -109c-58 19 -112 30 -168 30c-92 0 -120 -34 -120 -74c0 -114 327 -53 327 -280z
" />
    <glyph glyph-name="t.sc" horiz-adv-x="543" 
d="M530 534h-193v-534h-131v534h-193l2 115h513z" />
    <glyph glyph-name="u.sc" horiz-adv-x="678" 
d="M610 649v-408c0 -172 -94 -253 -270 -253c-177 0 -273 81 -273 253v408h129v-407c0 -95 45 -137 144 -137s142 42 142 137v407h128z" />
    <glyph glyph-name="v.sc" horiz-adv-x="653" 
d="M504 649h135l-241 -649h-143l-241 649h143l147 -455l24 -77h3l23 77z" />
    <glyph glyph-name="w.sc" horiz-adv-x="950" 
d="M407 649h141l108 -454l18 -79h3l14 79l95 454h128l-164 -649h-155l-102 446l-16 80h-3l-17 -80l-102 -446h-154l-166 649h135l94 -459l15 -79h3l16 79z" />
    <glyph glyph-name="x.sc" horiz-adv-x="657" 
d="M619 649l-199 -310l209 -339h-149l-112 192l-38 71h-3l-38 -72l-109 -191h-152l204 336l-198 313h156l139 -235l140 235h150z" />
    <glyph glyph-name="y.sc" horiz-adv-x="638" 
d="M14 649h147l127 -258l34 -73h3l33 73l124 258h142l-236 -436v-213h-133v213z" />
    <glyph glyph-name="z.sc" horiz-adv-x="577" 
d="M531 0h-489v84l280 383l48 63l-1 2h-318l5 117h474v-95l-276 -374l-48 -61l1 -3h326z" />
    <glyph glyph-name="exclamdown.sc" horiz-adv-x="302" 
d="M100 445h103l16 -538h-135zM74 599c0 42 23 68 75 68c51 0 75 -20 75 -68c0 -44 -24 -69 -75 -69c-52 0 -75 25 -75 69z" />
    <glyph glyph-name="dieresis.sc" 
d="M169 760c0 -34 -17 -51 -54 -51c-36 0 -54 14 -54 51c0 32 18 50 54 50c37 0 54 -17 54 -50zM345 760c0 -34 -17 -51 -55 -51c-36 0 -54 14 -54 51c0 32 18 50 54 50c38 0 55 -17 55 -50z" />
    <glyph glyph-name="macron.sc" 
d="M354 783v-72h-302v72h302z" />
    <glyph glyph-name="acute.sc" 
d="M225 819h155l-142 -129h-105z" />
    <glyph glyph-name="cedilla.sc" 
d="M115 -190l68 199l84 2l-36 -201h-116z" />
    <glyph glyph-name="questiondown.sc" horiz-adv-x="519" 
d="M39 84c0 111 66 186 175 244l6 117h100l7 -166c-95 -54 -157 -102 -157 -175c0 -57 41 -85 110 -85c66 0 119 24 162 61l46 -104c-50 -45 -133 -77 -225 -77c-149 0 -224 70 -224 185zM195 599c0 42 23 68 75 68c51 0 75 -19 75 -68c0 -44 -24 -69 -75 -69
c-52 0 -75 25 -75 69z" />
    <glyph glyph-name="germandbls.sc" horiz-adv-x="1068" 
d="M499 192c0 -124 -90 -204 -245 -204c-80 0 -152 18 -210 50l18 112c60 -33 121 -51 192 -51c83 0 122 32 122 85c0 117 -327 60 -327 282c0 105 71 194 238 194c67 0 137 -13 190 -35l-17 -109c-58 19 -112 30 -168 30c-92 0 -120 -34 -120 -74c0 -114 327 -53 327 -280z
M1033 192c0 -124 -90 -204 -245 -204c-80 0 -152 18 -210 50l18 112c60 -33 121 -51 192 -51c83 0 122 32 122 85c0 117 -327 60 -327 282c0 105 71 194 238 194c67 0 137 -13 190 -35l-17 -109c-58 19 -112 30 -168 30c-92 0 -120 -34 -120 -74c0 -114 327 -53 327 -280z
" />
    <glyph glyph-name="agrave.sc" horiz-adv-x="671" 
d="M514 0l-45 136h-275l-46 -136h-137l247 649h151l250 -649h-145zM332 550l-25 -78l-77 -229h203l-75 229l-23 78h-3zM411 690h-95l-121 129h144z" />
    <glyph glyph-name="aacute.sc" horiz-adv-x="671" 
d="M514 0l-45 136h-275l-46 -136h-137l247 649h151l250 -649h-145zM332 550l-25 -78l-77 -229h203l-75 229l-23 78h-3zM354 819h155l-142 -129h-105z" />
    <glyph glyph-name="acircumflex.sc" horiz-adv-x="671" 
d="M514 0l-45 136h-275l-46 -136h-137l247 649h151l250 -649h-145zM332 550l-25 -78l-77 -229h203l-75 229l-23 78h-3zM276 819h111l102 -129h-98l-59 83l-59 -83h-97z" />
    <glyph glyph-name="atilde.sc" horiz-adv-x="671" 
d="M514 0l-45 136h-275l-46 -136h-137l247 649h151l250 -649h-145zM332 550l-25 -78l-77 -229h203l-75 229l-23 78h-3zM235 721h-59c5 59 39 105 95 105c63 0 87 -48 128 -48c19 0 31 13 37 36l59 -1c-4 -60 -40 -103 -95 -103c-61 0 -88 47 -127 47c-19 0 -32 -15 -38 -36z
" />
    <glyph glyph-name="adieresis.sc" horiz-adv-x="671" 
d="M514 0l-45 136h-275l-46 -136h-137l247 649h151l250 -649h-145zM332 550l-25 -78l-77 -229h203l-75 229l-23 78h-3zM299 760c0 -34 -17 -51 -54 -51c-36 0 -54 14 -54 51c0 32 18 50 54 50c37 0 54 -17 54 -50zM475 760c0 -34 -17 -51 -55 -51c-36 0 -54 14 -54 51
c0 32 18 50 54 50c38 0 55 -17 55 -50z" />
    <glyph glyph-name="aring.sc" horiz-adv-x="671" 
d="M214 713c0 55 35 91 119 91c81 0 120 -38 120 -91c0 -35 -13 -60 -40 -75l246 -638h-145l-45 136h-275l-46 -136h-137l242 637c-26 15 -39 40 -39 76zM332 550l-25 -78l-77 -229h203l-75 229l-23 78h-3zM280 713c0 -23 15 -37 55 -37c36 0 54 13 54 37
c0 22 -16 37 -54 37c-40 0 -55 -15 -55 -37z" />
    <glyph glyph-name="ae.sc" horiz-adv-x="959" 
d="M912 535h-321l13 -150h256v-101h-248l14 -171h296l-3 -113h-415l-12 137h-257l-73 -137h-154l379 649h522zM457 557l-37 -73l-129 -241h193l-19 232l-5 81z" />
    <glyph glyph-name="ccedilla.sc" horiz-adv-x="550" 
d="M216 -190l62 182c-162 21 -240 132 -240 337c0 216 96 331 312 331c56 0 121 -13 161 -29l-15 -112c-36 15 -86 26 -140 26c-135 0 -184 -55 -184 -217c0 -172 51 -226 186 -226c54 0 101 12 141 29l14 -105c-41 -20 -95 -34 -149 -37l-32 -179h-116z" />
    <glyph glyph-name="egrave.sc" horiz-adv-x="573" 
d="M204 113h333l-4 -113h-457v649h444l2 -115h-318v-149h270v-101h-270v-171zM388 690h-95l-121 129h144z" />
    <glyph glyph-name="eacute.sc" horiz-adv-x="573" 
d="M204 113h333l-4 -113h-457v649h444l2 -115h-318v-149h270v-101h-270v-171zM330 819h155l-142 -129h-105z" />
    <glyph glyph-name="ecircumflex.sc" horiz-adv-x="573" 
d="M204 113h333l-4 -113h-457v649h444l2 -115h-318v-149h270v-101h-270v-171zM253 819h111l102 -129h-98l-59 83l-59 -83h-97z" />
    <glyph glyph-name="edieresis.sc" horiz-adv-x="573" 
d="M204 113h333l-4 -113h-457v649h444l2 -115h-318v-149h270v-101h-270v-171zM276 760c0 -34 -17 -51 -54 -51c-36 0 -54 14 -54 51c0 32 18 50 54 50c37 0 54 -17 54 -50zM452 760c0 -34 -17 -51 -55 -51c-36 0 -54 14 -54 51c0 32 18 50 54 50c38 0 55 -17 55 -50z" />
    <glyph glyph-name="igrave.sc" horiz-adv-x="303" 
d="M86 0v649h131v-649h-131zM229 690h-95l-121 129h144z" />
    <glyph glyph-name="iacute.sc" horiz-adv-x="303" 
d="M86 0v649h131v-649h-131zM171 819h155l-142 -129h-105z" />
    <glyph glyph-name="icircumflex.sc" horiz-adv-x="303" 
d="M86 0v649h131v-649h-131zM93 819h111l102 -129h-98l-59 83l-59 -83h-97z" />
    <glyph glyph-name="idieresis.sc" horiz-adv-x="303" 
d="M86 0v649h131v-649h-131zM116 760c0 -34 -17 -51 -54 -51c-36 0 -54 14 -54 51c0 32 18 50 54 50c37 0 54 -17 54 -50zM292 760c0 -34 -17 -51 -55 -51c-36 0 -54 14 -54 51c0 32 18 50 54 50c38 0 55 -17 55 -50z" />
    <glyph glyph-name="eth.sc" horiz-adv-x="674" 
d="M637 326c0 -231 -101 -326 -301 -326h-252v293h-70v91h70v265h251c213 0 302 -102 302 -323zM503 328c0 161 -47 205 -170 205h-121v-149h115v-91h-115v-178h121c119 0 170 40 170 213z" />
    <glyph glyph-name="ntilde.sc" horiz-adv-x="693" 
d="M616 0h-102l-277 392l-45 67l-2 -1l1 -81v-377h-115v649h110l270 -378l46 -66l2 1l-2 80v363h114v-649zM245 721h-59c5 59 39 105 95 105c63 0 87 -48 128 -48c19 0 31 13 37 36l59 -1c-4 -60 -40 -103 -95 -103c-61 0 -88 47 -127 47c-19 0 -32 -15 -38 -36z" />
    <glyph glyph-name="ograve.sc" horiz-adv-x="668" 
d="M630 324c0 -231 -84 -336 -296 -336c-210 0 -296 108 -296 336c0 229 85 335 296 335c212 0 296 -106 296 -335zM495 324c0 172 -41 220 -161 220c-119 0 -162 -48 -162 -220c0 -171 44 -221 163 -221c118 0 160 51 160 221zM413 690h-95l-121 129h144z" />
    <glyph glyph-name="oacute.sc" horiz-adv-x="668" 
d="M630 324c0 -231 -84 -336 -296 -336c-210 0 -296 108 -296 336c0 229 85 335 296 335c212 0 296 -106 296 -335zM495 324c0 172 -41 220 -161 220c-119 0 -162 -48 -162 -220c0 -171 44 -221 163 -221c118 0 160 51 160 221zM355 819h155l-142 -129h-105z" />
    <glyph glyph-name="ocircumflex.sc" horiz-adv-x="668" 
d="M630 324c0 -231 -84 -336 -296 -336c-210 0 -296 108 -296 336c0 229 85 335 296 335c212 0 296 -106 296 -335zM495 324c0 172 -41 220 -161 220c-119 0 -162 -48 -162 -220c0 -171 44 -221 163 -221c118 0 160 51 160 221zM277 819h111l102 -129h-98l-59 83l-59 -83
h-97z" />
    <glyph glyph-name="otilde.sc" horiz-adv-x="668" 
d="M630 324c0 -231 -84 -336 -296 -336c-210 0 -296 108 -296 336c0 229 85 335 296 335c212 0 296 -106 296 -335zM495 324c0 172 -41 220 -161 220c-119 0 -162 -48 -162 -220c0 -171 44 -221 163 -221c118 0 160 51 160 221zM236 721h-59c5 59 39 105 95 105
c63 0 87 -48 128 -48c19 0 31 13 37 36l59 -1c-4 -60 -40 -103 -95 -103c-61 0 -88 47 -127 47c-19 0 -32 -15 -38 -36z" />
    <glyph glyph-name="odieresis.sc" horiz-adv-x="668" 
d="M630 324c0 -231 -84 -336 -296 -336c-210 0 -296 108 -296 336c0 229 85 335 296 335c212 0 296 -106 296 -335zM495 324c0 172 -41 220 -161 220c-119 0 -162 -48 -162 -220c0 -171 44 -221 163 -221c118 0 160 51 160 221zM300 760c0 -34 -17 -51 -54 -51
c-36 0 -54 14 -54 51c0 32 18 50 54 50c37 0 54 -17 54 -50zM476 760c0 -34 -17 -51 -55 -51c-36 0 -54 14 -54 51c0 32 18 50 54 50c38 0 55 -17 55 -50z" />
    <glyph glyph-name="oslash.sc" horiz-adv-x="668" 
d="M97 -16l-58 54l48 61c-34 54 -49 129 -49 225c0 229 86 335 297 335c83 0 147 -17 194 -51l50 59l58 -56l-53 -64c32 -54 47 -128 47 -223c0 -231 -84 -336 -296 -336c-83 0 -147 16 -194 51zM173 324c0 -54 4 -96 13 -129l268 311c-26 28 -64 38 -119 38
c-119 0 -162 -48 -162 -220zM496 324c0 53 -4 94 -11 127l-269 -309c26 -29 65 -39 120 -39c118 0 160 51 160 221z" />
    <glyph glyph-name="ugrave.sc" horiz-adv-x="678" 
d="M610 649v-408c0 -172 -94 -253 -270 -253c-177 0 -273 81 -273 253v408h129v-407c0 -95 45 -137 144 -137s142 42 142 137v407h128zM418 690h-95l-121 129h144z" />
    <glyph glyph-name="uacute.sc" horiz-adv-x="678" 
d="M610 649v-408c0 -172 -94 -253 -270 -253c-177 0 -273 81 -273 253v408h129v-407c0 -95 45 -137 144 -137s142 42 142 137v407h128zM360 819h155l-142 -129h-105z" />
    <glyph glyph-name="ucircumflex.sc" horiz-adv-x="678" 
d="M610 649v-408c0 -172 -94 -253 -270 -253c-177 0 -273 81 -273 253v408h129v-407c0 -95 45 -137 144 -137s142 42 142 137v407h128zM282 819h111l102 -129h-98l-59 83l-59 -83h-97z" />
    <glyph glyph-name="udieresis.sc" horiz-adv-x="678" 
d="M610 649v-408c0 -172 -94 -253 -270 -253c-177 0 -273 81 -273 253v408h129v-407c0 -95 45 -137 144 -137s142 42 142 137v407h128zM305 760c0 -34 -17 -51 -54 -51c-36 0 -54 14 -54 51c0 32 18 50 54 50c37 0 54 -17 54 -50zM481 760c0 -34 -17 -51 -55 -51
c-36 0 -54 14 -54 51c0 32 18 50 54 50c38 0 55 -17 55 -50z" />
    <glyph glyph-name="yacute.sc" horiz-adv-x="638" 
d="M14 649h147l127 -258l34 -73h3l33 73l124 258h142l-236 -436v-213h-133v213zM343 819h155l-142 -129h-105z" />
    <glyph glyph-name="thorn.sc" horiz-adv-x="613" 
d="M571 329c0 -135 -74 -213 -268 -213h-98v-116h-129v649h129v-103h98c193 0 268 -71 268 -217zM439 329c0 83 -37 109 -136 109h-99v-219h99c97 0 136 24 136 110z" />
    <glyph glyph-name="ydieresis.sc" horiz-adv-x="638" 
d="M14 649h147l127 -258l34 -73h3l33 73l124 258h142l-236 -436v-213h-133v213zM288 760c0 -34 -17 -51 -54 -51c-36 0 -54 14 -54 51c0 32 18 50 54 50c37 0 54 -17 54 -50zM464 760c0 -34 -17 -51 -55 -51c-36 0 -54 14 -54 51c0 32 18 50 54 50c38 0 55 -17 55 -50z" />
    <glyph glyph-name="dotlessi.sc" horiz-adv-x="303" 
d="M86 0v649h131v-649h-131z" />
    <glyph glyph-name="ij.sc" horiz-adv-x="757" 
d="M690 649v-425c0 -168 -85 -236 -221 -236c-54 0 -103 12 -136 32l8 109c28 -18 68 -29 103 -29c83 0 116 38 116 124v425h130zM86 0v649h131v-649h-131z" />
    <glyph glyph-name="lslash.sc" horiz-adv-x="551" 
d="M229 116h301l-3 -116h-427v261l-71 -30l-6 106l77 32v280h129v-230l187 80l8 -110l-195 -81v-192z" />
    <glyph glyph-name="oe.sc" horiz-adv-x="976" 
d="M938 0h-440v64l-2 1c-42 -52 -108 -77 -189 -77c-183 0 -269 106 -269 336c0 231 84 335 270 335c80 0 146 -21 188 -68h2v58h425l3 -116h-312v-147h264v-103h-264v-169h326zM489 324c0 172 -40 219 -158 219c-117 0 -160 -47 -160 -219c0 -171 43 -220 160 -220
c116 0 158 50 158 220z" />
    <glyph glyph-name="scaron.sc" horiz-adv-x="534" 
d="M499 192c0 -124 -90 -204 -245 -204c-80 0 -152 18 -210 50l18 112c60 -33 121 -51 192 -51c83 0 122 32 122 85c0 117 -327 60 -327 282c0 105 71 194 238 194c67 0 137 -13 190 -35l-17 -109c-58 19 -112 30 -168 30c-92 0 -120 -34 -120 -74c0 -114 327 -53 327 -280z
M335 690h-112l-100 129h97l59 -85l59 85h99z" />
    <glyph glyph-name="zcaron.sc" horiz-adv-x="577" 
d="M531 0h-489v84l280 383l48 63l-1 2h-318l5 117h474v-95l-276 -374l-48 -61l1 -3h326zM347 690h-112l-100 129h97l59 -85l59 85h99z" />
    <glyph glyph-name="longs.sc" horiz-adv-x="534" 
d="M499 192c0 -124 -90 -204 -245 -204c-80 0 -152 18 -210 50l18 112c60 -33 121 -51 192 -51c83 0 122 32 122 85c0 117 -327 60 -327 282c0 105 71 194 238 194c67 0 137 -13 190 -35l-17 -109c-58 19 -112 30 -168 30c-92 0 -120 -34 -120 -74c0 -114 327 -53 327 -280z
" />
    <glyph glyph-name="circumflex.sc" 
d="M145 819h111l102 -129h-98l-59 83l-59 -83h-97z" />
    <glyph glyph-name="caron.sc" 
d="M258 690h-112l-100 129h97l59 -85l59 85h99z" />
    <glyph glyph-name="breve.sc" 
d="M263 819h88c0 -85 -46 -134 -151 -134c-108 0 -150 50 -150 134h86c1 -52 27 -73 65 -73c36 0 62 22 62 73z" />
    <glyph glyph-name="dotaccent.sc" 
d="M271 756c0 -35 -22 -53 -69 -53c-46 0 -69 14 -69 53c0 35 23 53 69 53c47 0 69 -18 69 -53z" />
    <glyph glyph-name="ring.sc" 
d="M83 743c0 55 35 91 119 91c81 0 120 -38 120 -91c0 -60 -38 -91 -120 -91c-78 0 -119 28 -119 91zM149 743c0 -23 15 -37 55 -37c36 0 54 13 54 37c0 22 -16 37 -54 37c-40 0 -55 -15 -55 -37z" />
    <glyph glyph-name="ogonek.sc" 
d="M253 20l48 -20c-38 0 -65 -32 -65 -62c0 -27 16 -43 55 -44c21 0 36 4 53 12l11 -69c-28 -15 -59 -24 -100 -24c-78 0 -117 37 -117 88c0 64 49 104 115 119z" />
    <glyph glyph-name="tilde.sc" 
d="M104 721h-59c5 59 39 105 95 105c63 0 87 -48 128 -48c19 0 31 13 37 36l59 -1c-4 -60 -40 -103 -95 -103c-61 0 -88 47 -127 47c-19 0 -32 -15 -38 -36z" />
    <glyph glyph-name="hungarumlaut.sc" 
d="M147 819h128l-111 -129h-81zM324 819h130l-120 -129h-92z" />
    <glyph glyph-name="fi.sc" horiz-adv-x="856" 
d="M522 532h-317v-158h274l-1 -111h-273v-263h-129v649h443zM639 0v649h131v-649h-131z" />
    <glyph glyph-name="fl.sc" horiz-adv-x="1081" 
d="M522 532h-317v-158h274l-1 -111h-273v-263h-129v649h443zM758 116h301l-3 -116h-427v649h129v-533z" />
    <glyph glyph-name="parenleft.case" horiz-adv-x="346" 
d="M244 838l99 -8c-89 -129 -136 -286 -136 -455c0 -172 49 -328 135 -455l-98 -8c-101 113 -159 280 -159 463c0 187 56 342 159 463z" />
    <glyph glyph-name="parenright.case" horiz-adv-x="345" 
d="M3 830l98 8c104 -121 159 -276 159 -463c0 -183 -57 -350 -159 -463l-98 8c87 127 135 283 135 455c0 169 -47 326 -135 455z" />
    <glyph glyph-name="hyphen.case" horiz-adv-x="397" 
d="M60 422h277v-95h-277v95z" />
    <glyph glyph-name="bracketleft.case" horiz-adv-x="340" 
d="M85 -85v919h252v-93h-136v-735h136v-91h-252z" />
    <glyph glyph-name="bracketright.case" horiz-adv-x="340" 
d="M255 834v-919h-252v90h137v736h-137v93h252z" />
    <glyph glyph-name="grave.case" 
d="M289 796h-104l-124 119h154z" />
    <glyph glyph-name="braceleft.case" horiz-adv-x="379" 
d="M265 482c0 -48 -21 -87 -59 -106v-3c38 -20 59 -58 59 -105c0 -70 -13 -114 -13 -178c0 -46 26 -81 92 -81h32v-97h-26c-157 0 -213 59 -213 161c0 70 17 131 17 197c0 41 -28 70 -69 77v55c41 7 69 36 69 77c0 66 -17 127 -17 197c0 102 56 161 213 161h26v-97h-32
c-66 0 -92 -34 -92 -81c0 -64 13 -108 13 -177z" />
    <glyph glyph-name="braceright.case" horiz-adv-x="379" 
d="M114 268c0 47 21 85 60 105v3c-40 19 -60 58 -60 106c0 69 13 113 13 177c0 47 -27 81 -92 81h-32v97h26c157 0 212 -59 212 -161c0 -70 -16 -131 -16 -197c0 -41 28 -70 69 -77v-55c-41 -7 -69 -36 -69 -77c0 -66 16 -127 16 -197c0 -102 -55 -161 -212 -161h-26v97h32
c65 0 92 35 92 81c0 64 -13 108 -13 178z" />
    <glyph glyph-name="dieresis.case" 
d="M161 851c0 -36 -18 -54 -56 -54s-57 14 -57 54c0 36 19 55 57 55s56 -19 56 -55zM356 851c0 -36 -17 -54 -56 -54c-37 0 -56 14 -56 54c0 36 19 55 56 55c39 0 56 -19 56 -55z" />
    <glyph glyph-name="guillemotleft.case" horiz-adv-x="639" 
d="M563 484l-175 -109l175 -110v-101l-302 206v10l302 206v-102zM326 484l-175 -109l175 -110v-101l-302 206v10l302 206v-102z" />
    <glyph glyph-name="uni00AD.case" horiz-adv-x="397" 
d="M60 422h277v-95h-277v95z" />
    <glyph glyph-name="macron.case" 
d="M353 875v-67h-304v67h304z" />
    <glyph glyph-name="acute.case" 
d="M192 913h166l-135 -118h-103z" />
    <glyph glyph-name="guillemotright.case" horiz-adv-x="639" 
d="M300 164v101l174 110l-174 109v102l303 -206v-10zM64 164v101l174 110l-174 109v102l303 -206v-10z" />
    <glyph glyph-name="circumflex.case" 
d="M131 914h136l111 -120h-115l-63 74l-63 -74h-113z" />
    <glyph glyph-name="caron.case" 
d="M268 794h-136l-108 120h114l63 -78l63 78h113z" />
    <glyph glyph-name="breve.case" 
d="M271 914h95c0 -80 -50 -125 -164 -125c-117 0 -164 45 -164 125h94c0 -42 31 -57 70 -57c40 0 69 15 69 57z" />
    <glyph glyph-name="dotaccent.case" 
d="M279 848c0 -36 -21 -54 -78 -54c-56 0 -78 14 -78 54c0 37 22 56 78 56c57 0 78 -19 78 -56z" />
    <glyph glyph-name="ring.case" 
d="M83 814c0 56 31 92 115 92c82 0 117 -37 117 -92c0 -62 -35 -93 -117 -93c-79 0 -115 27 -115 93zM150 810c0 -22 11 -35 50 -35c36 0 49 11 49 35c0 23 -12 37 -49 37c-38 0 -50 -14 -50 -37z" />
    <glyph glyph-name="ogonek.case" 
d="M245 22l56 -22c-38 0 -65 -32 -65 -62c0 -27 16 -43 55 -44c21 0 36 4 53 12l11 -69c-28 -15 -59 -24 -100 -24c-78 0 -117 37 -117 92c0 60 41 102 107 117z" />
    <glyph glyph-name="tilde.case" 
d="M100 799h-59c4 67 39 115 96 115c63 0 101 -50 137 -50c19 0 30 11 35 37l56 -1c-4 -68 -40 -114 -97 -114c-61 0 -97 50 -132 50c-18 0 -32 -15 -36 -37z" />
    <glyph glyph-name="hungarumlaut.case" 
d="M93 913h133l-96 -119h-83zM274 913h135l-117 -119h-94z" />
    <glyph glyph-name="endash.case" horiz-adv-x="524" 
d="M60 422h403v-95h-403v95z" />
    <glyph glyph-name="emdash.case" horiz-adv-x="702" 
d="M60 422h582v-95h-582v95z" />
    <glyph glyph-name="guilsinglleft.case" horiz-adv-x="399" 
d="M340 484l-175 -109l175 -110v-101l-302 206v10l302 206v-102z" />
    <glyph glyph-name="guilsinglright.case" horiz-adv-x="399" 
d="M59 164v101l174 110l-174 109v102l303 -206v-10z" />
    <glyph glyph-name="zero.zero" horiz-adv-x="645" 
d="M370 377c0 -42 -16 -58 -48 -58c-31 0 -48 13 -48 58c0 42 17 59 48 59c32 0 48 -17 48 -59zM596 373c0 -272 -83 -384 -274 -384c-194 0 -273 112 -273 384c0 283 80 386 274 386c191 0 273 -103 273 -386zM464 375c0 219 -44 263 -141 263c-98 0 -143 -46 -143 -264
c0 -223 45 -266 143 -266c97 0 141 45 141 267z" />
    <glyph glyph-name="zero.osf.zero" horiz-adv-x="621" 
d="M575 316c0 -224 -80 -326 -265 -326c-187 0 -264 102 -264 326c0 234 78 331 265 331c185 0 264 -97 264 -331zM452 318c0 167 -45 208 -142 208c-96 0 -142 -43 -142 -208c0 -168 46 -209 142 -209c98 0 142 42 142 209zM358 318c0 -42 -16 -58 -48 -58
c-31 0 -48 13 -48 58c0 42 17 59 48 59c32 0 48 -17 48 -59z" />
    <glyph glyph-name="zero.lf.zero" horiz-adv-x="629" 
d="M361 377c0 -42 -16 -58 -48 -58c-31 0 -48 13 -48 58c0 42 17 59 48 59c32 0 48 -17 48 -59zM588 373c0 -272 -83 -384 -274 -384c-193 0 -273 112 -273 384c0 283 80 386 274 386c191 0 273 -103 273 -386zM456 375c0 219 -44 263 -141 263c-98 0 -143 -46 -143 -264
c0 -223 45 -266 143 -266c97 0 141 45 141 267z" />
    <glyph glyph-name="zero.tosf.zero" horiz-adv-x="600" 
d="M348 318c0 -42 -16 -58 -48 -58c-31 0 -48 13 -48 58c0 42 17 59 48 59c32 0 48 -17 48 -59zM564 316c0 -224 -80 -326 -265 -326c-186 0 -264 102 -264 326c0 234 78 331 265 331c185 0 264 -97 264 -331zM436 317c0 172 -44 215 -136 215c-93 0 -137 -44 -137 -214
c0 -175 44 -215 137 -215s136 42 136 214z" />
    <glyph glyph-name="orn001" horiz-adv-x="712" 
d="M356 -14c-76 0 -147 121 -182 159c-59 65 -125 207 -125 345c0 153 78 276 307 276c228 0 307 -123 307 -276c0 -138 -66 -280 -125 -345c-36 -38 -107 -159 -182 -159zM357 44c53 0 109 97 138 125c45 44 103 160 103 270c0 83 -51 110 -241 110
c-193 0 -242 -26 -242 -110c0 -110 58 -226 103 -270c29 -29 86 -125 139 -125zM459 194c-31 7 -65 10 -99 10c-35 0 -70 -3 -102 -10c-23 25 -41 63 -49 102c47 -15 97 -23 147 -23c51 0 102 8 148 23c-6 -39 -21 -76 -45 -102zM401 332l-26 43c45 20 96 48 134 91
c21 -17 30 -57 30 -96c-37 -18 -93 -32 -138 -38zM340 375l-26 -43c-45 6 -100 20 -137 38c0 39 9 79 30 96c38 -43 89 -71 133 -91z" />
    </font>
</defs>
</svg>
